{"glyphs":{"0":{"ha":833,"x_min":0,"x_max":0,"o":"m 417 -17 b 735 446 614 -17 735 151 b 417 903 735 743 614 903 b 99 446 219 903 99 743 b 417 -17 99 151 219 -17 z m 417 75 b 206 446 293 75 206 192 b 417 811 206 701 293 811 b 628 446 540 811 628 701 b 417 75 628 192 540 75 z m 417 363 b 503 456 463 363 503 397 b 417 547 503 513 463 547 b 331 456 371 547 331 513 b 417 363 331 397 371 363 z "},"1":{"ha":833,"x_min":0,"x_max":0,"o":"m 135 0 l 736 0 l 736 94 l 504 94 l 504 886 l 419 886 b 192 821 363 856 296 835 l 192 747 l 390 747 l 390 94 l 135 94 z "},"2":{"ha":833,"x_min":0,"x_max":0,"o":"m 101 0 l 725 0 l 725 99 l 433 99 b 268 90 381 99 324 94 b 676 642 510 310 676 475 b 388 903 676 799 565 903 b 96 768 263 903 175 849 l 161 703 b 374 810 218 763 290 810 b 567 636 504 810 567 738 b 101 68 567 489 401 333 z "},"3":{"ha":833,"x_min":0,"x_max":0,"o":"m 399 -17 b 719 236 575 -17 719 79 b 500 461 719 358 618 436 l 500 467 b 689 678 610 503 689 571 b 396 903 689 821 563 903 b 113 792 282 903 186 856 l 174 719 b 392 810 232 772 308 810 b 572 669 500 810 572 756 b 282 504 572 576 492 504 l 282 417 b 604 240 515 417 604 346 b 392 78 604 142 513 78 b 138 183 278 78 196 128 l 79 108 b 399 -17 144 43 246 -17 z "},"4":{"ha":833,"x_min":0,"x_max":0,"o":"m 181 336 l 421 639 b 511 768 450 682 483 725 l 518 768 b 511 611 515 719 513 660 l 511 336 z m 511 0 l 619 0 l 619 244 l 757 244 l 757 336 l 619 336 l 619 886 l 497 886 l 54 321 l 54 244 l 511 244 z "},"5":{"ha":833,"x_min":0,"x_max":0,"o":"m 397 -17 b 725 283 567 -17 725 92 b 421 561 725 475 590 561 b 257 525 353 561 308 547 l 281 788 l 681 788 l 681 886 l 179 886 l 150 460 l 211 421 b 392 475 274 456 318 475 b 610 281 524 475 610 403 b 385 78 610 157 510 78 b 135 179 265 78 193 126 l 78 104 b 397 -17 146 43 239 -17 z "},"6":{"ha":833,"x_min":0,"x_max":0,"o":"m 444 456 b 633 268 567 456 633 389 b 446 74 633 151 551 74 b 218 336 317 74 235 165 b 444 456 289 421 374 456 z m 446 -17 b 742 268 604 -17 742 99 b 465 542 742 450 629 542 b 214 426 376 542 286 497 b 485 807 219 711 343 807 b 661 738 551 807 615 781 l 725 808 b 478 903 667 863 586 903 b 107 410 285 903 107 765 b 446 -17 107 125 253 -17 z "},"7":{"ha":833,"x_min":0,"x_max":0,"o":"m 314 0 l 433 0 b 739 815 446 347 504 547 l 739 886 l 97 886 l 97 788 l 608 788 b 314 0 406 539 329 336 z "},"8":{"ha":833,"x_min":0,"x_max":0,"o":"m 419 -17 b 738 219 622 -17 738 88 b 564 450 738 346 661 401 l 564 456 b 699 667 638 507 699 583 b 424 903 699 804 597 903 b 150 675 265 903 150 811 b 285 468 150 582 211 514 l 285 463 b 94 226 190 418 94 349 b 419 -17 94 86 219 -17 z m 489 483 b 254 675 357 525 254 569 b 421 818 254 761 322 818 b 600 661 538 818 600 749 b 489 483 600 596 561 536 z m 422 68 b 199 238 286 68 199 139 b 350 431 199 326 264 383 b 628 224 506 378 628 347 b 422 68 628 132 554 68 z "},"9":{"ha":833,"x_min":0,"x_max":0,"o":"m 201 618 b 389 813 201 735 283 813 b 617 549 519 813 599 721 b 390 431 544 465 460 431 b 201 618 267 431 201 497 z m 357 -17 b 728 476 549 -17 728 121 b 388 903 728 761 581 903 b 93 618 231 903 93 788 b 368 344 93 436 204 344 b 619 458 458 344 547 388 b 350 78 614 175 490 78 b 174 149 282 78 218 106 l 110 76 b 357 -17 168 24 249 -17 z "}," ":{"ha":833,"x_min":0,"x_max":0,"o":""},"A":{"ha":833,"x_min":0,"x_max":0,"o":"m 322 510 b 413 817 354 611 383 711 l 418 817 b 508 510 446 711 476 611 l 551 371 l 279 371 z m 44 0 l 163 0 l 250 278 l 581 278 l 667 0 l 789 0 l 482 911 l 351 911 z "},"B":{"ha":833,"x_min":0,"x_max":0,"o":"m 138 0 l 417 0 b 760 267 621 0 760 88 b 549 485 760 392 682 464 l 549 490 b 708 689 657 518 708 599 b 396 911 708 849 582 911 l 138 911 z m 253 528 l 253 814 l 382 814 b 594 679 522 814 594 778 b 376 528 594 578 532 528 z m 253 97 l 253 431 l 400 431 b 646 272 560 431 646 385 b 400 97 646 149 556 97 z "},"C":{"ha":833,"x_min":0,"x_max":0,"o":"m 488 -17 b 769 115 608 -17 697 32 l 704 186 b 499 85 646 121 582 85 b 210 458 324 85 210 229 b 499 826 210 685 324 826 b 682 743 575 826 635 793 l 747 817 b 499 928 694 875 607 928 b 90 456 261 928 90 749 b 488 -17 90 158 263 -17 z "},"D":{"ha":833,"x_min":0,"x_max":0,"o":"m 121 0 l 351 0 b 768 460 619 0 768 169 b 346 911 768 749 619 911 l 121 911 z m 236 94 l 236 817 l 338 817 b 649 460 546 817 649 689 b 338 94 649 229 546 94 z "},"E":{"ha":833,"x_min":0,"x_max":0,"o":"m 158 0 l 736 0 l 736 99 l 275 99 l 275 429 l 653 429 l 653 528 l 275 528 l 275 814 l 722 814 l 722 911 l 158 911 z "},"F":{"ha":833,"x_min":0,"x_max":0,"o":"m 185 0 l 301 0 l 301 408 l 676 408 l 676 506 l 301 506 l 301 814 l 744 814 l 744 911 l 185 911 z "},"G":{"ha":833,"x_min":0,"x_max":0,"o":"m 468 -17 b 740 89 586 -17 683 31 l 740 472 l 451 472 l 451 376 l 633 376 l 633 139 b 475 85 599 106 539 85 b 194 458 296 85 194 229 b 478 826 194 685 307 826 b 664 743 565 826 619 790 l 729 817 b 478 928 678 871 599 928 b 74 456 242 928 74 750 b 468 -17 74 158 239 -17 z "},"H":{"ha":833,"x_min":0,"x_max":0,"o":"m 110 0 l 226 0 l 226 429 l 607 429 l 607 0 l 724 0 l 724 911 l 607 911 l 607 529 l 226 529 l 226 911 l 110 911 z "},"I":{"ha":833,"x_min":0,"x_max":0,"o":"m 132 0 l 701 0 l 701 99 l 475 99 l 475 814 l 701 814 l 701 911 l 132 911 l 132 814 l 358 814 l 358 99 l 132 99 z "},"J":{"ha":833,"x_min":0,"x_max":0,"o":"m 383 -17 b 685 292 610 -17 685 122 l 685 913 l 188 913 l 188 815 l 569 815 l 569 301 b 381 85 569 151 511 85 b 185 206 310 85 236 124 l 113 135 b 383 -17 175 31 282 -17 z "},"K":{"ha":833,"x_min":0,"x_max":0,"o":"m 136 0 l 253 0 l 253 290 l 410 478 l 675 0 l 806 0 l 483 565 l 772 911 l 640 911 l 257 454 l 253 454 l 253 911 l 136 911 z "},"L":{"ha":833,"x_min":0,"x_max":0,"o":"m 186 0 l 751 0 l 751 99 l 300 99 l 300 911 l 186 911 z "},"M":{"ha":833,"x_min":0,"x_max":0,"o":"m 100 0 l 208 0 l 208 456 b 189 778 208 544 197 700 l 192 778 l 244 600 l 372 242 l 456 242 l 586 600 l 638 778 l 642 778 b 622 456 636 700 622 544 l 622 0 l 733 0 l 733 911 l 592 911 l 463 522 l 419 375 l 414 375 l 369 522 l 242 911 l 100 911 z "},"N":{"ha":833,"x_min":0,"x_max":0,"o":"m 114 0 l 225 0 l 225 476 b 210 761 225 571 214 668 l 213 761 l 300 572 l 592 0 l 719 0 l 719 911 l 608 911 l 608 439 b 624 150 608 343 619 240 l 621 150 l 533 339 l 242 911 l 114 911 z "},"O":{"ha":833,"x_min":0,"x_max":0,"o":"m 417 -17 b 767 460 622 -17 767 161 b 417 928 767 754 622 928 b 67 460 211 928 67 754 b 417 -17 67 161 211 -17 z m 417 85 b 186 460 278 85 186 226 b 417 826 186 689 278 826 b 647 460 556 826 647 689 b 417 85 647 226 556 85 z "},"P":{"ha":833,"x_min":0,"x_max":0,"o":"m 142 0 l 257 0 l 257 361 l 417 361 b 754 643 617 361 754 451 b 417 911 754 843 618 911 l 142 911 z m 257 456 l 257 818 l 403 818 b 638 643 560 818 638 775 b 403 456 638 514 563 456 z "},"Q":{"ha":833,"x_min":0,"x_max":0,"o":"m 417 79 b 186 460 278 79 186 218 b 417 826 186 689 278 826 b 647 460 556 826 647 689 b 417 79 647 218 556 79 z m 668 -226 b 771 -207 707 -226 740 -218 l 749 -114 b 681 -128 732 -121 708 -128 b 483 -10 586 -128 515 -89 b 767 460 653 25 767 194 b 417 928 767 754 622 928 b 67 460 211 928 67 754 b 361 -12 67 189 185 18 b 668 -226 406 -135 507 -226 z "},"R":{"ha":833,"x_min":0,"x_max":0,"o":"m 139 0 l 254 0 l 254 385 l 417 385 l 636 0 l 768 0 l 536 397 b 740 656 660 429 740 514 b 422 911 740 844 607 911 l 139 911 z m 254 479 l 254 818 l 406 818 b 625 656 547 818 625 775 b 406 479 625 538 547 479 z "},"S":{"ha":833,"x_min":0,"x_max":0,"o":"m 424 -17 b 746 243 624 -17 746 99 b 544 486 746 378 657 440 l 417 542 b 254 693 339 574 254 606 b 431 826 254 775 325 826 b 654 740 525 826 594 793 l 715 815 b 435 928 649 882 549 928 b 136 686 261 928 136 825 b 333 451 136 553 242 488 l 464 394 b 628 229 557 354 628 326 b 429 85 628 144 554 85 b 163 199 325 85 231 131 l 93 118 b 424 -17 175 36 290 -17 z "},"T":{"ha":833,"x_min":0,"x_max":0,"o":"m 358 0 l 475 0 l 475 814 l 775 814 l 775 911 l 58 911 l 58 814 l 358 814 z "},"U":{"ha":833,"x_min":0,"x_max":0,"o":"m 418 -17 b 724 344 596 -17 724 83 l 724 911 l 611 911 l 611 342 b 418 85 611 153 528 85 b 226 342 308 85 226 153 l 226 911 l 110 911 l 110 344 b 418 -17 110 83 239 -17 z "},"V":{"ha":833,"x_min":0,"x_max":0,"o":"m 350 0 l 485 0 l 774 911 l 656 911 l 510 419 b 422 118 479 311 456 225 l 417 118 b 329 419 383 225 361 311 l 182 911 l 60 911 z "},"W":{"ha":833,"x_min":0,"x_max":0,"o":"m 153 0 l 294 0 l 383 367 b 415 531 397 422 406 475 l 419 531 b 453 367 428 475 439 422 l 542 0 l 686 0 l 819 913 l 694 913 l 631 339 b 614 129 622 264 619 219 l 608 129 b 564 339 592 219 583 264 l 478 678 l 367 678 l 278 339 b 233 129 260 264 250 219 l 229 129 b 211 340 225 219 219 264 l 144 913 l 14 913 z "},"X":{"ha":833,"x_min":0,"x_max":0,"o":"m 75 0 l 197 0 l 333 246 b 407 392 357 290 381 336 l 413 392 b 493 246 443 336 468 290 l 631 0 l 758 0 l 486 465 l 740 911 l 618 911 l 493 678 b 428 546 471 636 453 599 l 422 546 b 349 678 393 599 372 636 l 221 911 l 93 911 l 347 471 z "},"Y":{"ha":833,"x_min":0,"x_max":0,"o":"m 358 0 l 475 0 l 475 325 l 781 911 l 661 911 l 529 642 b 422 428 494 571 458 501 l 417 428 b 313 640 379 501 347 571 l 175 911 l 53 911 l 358 325 z "},"Z":{"ha":833,"x_min":0,"x_max":0,"o":"m 90 0 l 749 0 l 749 99 l 232 99 l 742 843 l 742 913 l 135 913 l 135 815 l 599 815 l 90 69 z "},"a":{"ha":833,"x_min":0,"x_max":0,"o":"m 342 -17 b 608 92 438 -17 533 33 l 613 92 l 622 0 l 715 0 l 715 414 b 442 692 715 582 626 692 b 142 594 324 692 210 639 l 186 517 b 422 597 249 556 335 597 b 601 428 553 597 599 519 b 113 175 253 400 113 326 b 342 -17 113 54 215 -17 z m 372 75 b 224 183 294 75 224 107 b 601 353 224 272 313 329 l 601 175 b 372 75 525 111 449 75 z "},"b":{"ha":833,"x_min":0,"x_max":0,"o":"m 444 -17 b 750 349 606 -17 750 118 b 469 692 750 557 651 692 b 243 589 390 692 304 651 l 239 589 l 243 719 l 243 989 l 129 989 l 129 0 l 221 0 l 231 75 l 235 75 b 444 -17 299 18 379 -17 z m 426 79 b 243 158 378 79 307 101 l 243 494 b 442 596 313 564 382 596 b 632 347 576 596 632 496 b 426 79 632 181 544 79 z "},"c":{"ha":833,"x_min":0,"x_max":0,"o":"m 481 -17 b 749 89 581 -17 674 22 l 697 163 b 489 78 642 115 572 78 b 229 336 333 78 229 182 b 492 597 229 492 336 597 b 676 519 563 597 621 568 l 733 593 b 488 692 678 647 597 692 b 111 336 283 692 111 563 b 481 -17 111 113 269 -17 z "},"d":{"ha":833,"x_min":0,"x_max":0,"o":"m 376 -17 b 596 89 460 -17 540 32 l 600 89 l 610 0 l 704 0 l 704 989 l 590 989 l 590 729 l 596 604 l 592 604 b 390 692 533 660 471 692 b 83 336 231 692 83 556 b 376 -17 83 111 200 -17 z m 400 79 b 201 338 275 79 201 176 b 413 596 201 492 296 596 b 590 517 471 596 529 574 l 590 181 b 400 79 531 114 467 79 z "},"e":{"ha":833,"x_min":0,"x_max":0,"o":"m 442 601 b 643 394 557 601 633 533 l 213 394 b 442 601 233 528 331 601 z m 458 -17 b 719 64 567 -17 653 19 l 678 139 b 472 75 617 100 553 75 b 210 306 332 75 224 153 l 742 306 b 747 375 744 324 747 349 b 439 692 747 565 633 692 b 94 339 258 692 94 558 b 458 -17 94 114 256 -17 z "},"f":{"ha":833,"x_min":0,"x_max":0,"o":"m 336 0 l 449 0 l 449 582 l 732 582 l 732 675 l 449 675 l 449 736 b 619 913 449 846 499 913 b 776 881 678 913 721 906 l 803 967 b 608 1006 739 993 675 1006 b 336 732 422 1006 336 897 l 336 675 l 143 668 l 143 582 l 336 582 z "},"g":{"ha":833,"x_min":0,"x_max":0,"o":"m 411 -311 b 786 -75 640 -311 786 -201 b 529 83 786 39 703 83 l 378 83 b 238 161 289 83 238 108 b 290 239 238 193 257 218 b 404 214 328 222 369 214 b 665 446 550 214 665 301 b 608 582 665 500 639 550 l 783 582 l 783 675 l 504 675 b 404 692 475 686 443 692 b 139 450 261 692 139 597 b 222 275 139 369 176 310 l 222 269 b 142 143 171 235 142 186 b 211 32 142 86 175 51 l 211 26 b 100 -124 139 -15 100 -69 b 411 -311 100 -243 214 -311 z m 404 290 b 249 450 319 290 249 353 b 404 608 249 544 319 608 b 560 450 490 608 560 544 b 404 290 560 353 490 290 z m 419 -228 b 199 -112 275 -228 199 -183 b 285 0 199 -74 221 -35 b 388 -11 314 -8 349 -11 l 519 -11 b 674 -93 622 -11 674 -29 b 419 -228 674 -162 576 -228 z "},"h":{"ha":833,"x_min":0,"x_max":0,"o":"m 129 0 l 243 0 l 243 471 b 457 593 322 553 376 593 b 613 404 568 593 613 532 l 613 0 l 726 0 l 726 419 b 493 692 726 597 653 692 b 240 560 388 692 310 635 l 236 560 l 243 719 l 243 989 l 129 989 z "},"i":{"ha":833,"x_min":0,"x_max":0,"o":"m 439 0 l 553 0 l 553 675 l 125 675 l 125 582 l 439 582 z m 483 817 b 575 906 535 817 575 851 b 483 994 575 958 535 994 b 392 906 432 994 392 958 b 483 817 392 851 432 817 z "},"j":{"ha":833,"x_min":0,"x_max":0,"o":"m 269 -301 b 553 -17 488 -301 553 -183 l 553 675 l 125 675 l 125 582 l 439 582 l 439 -25 b 268 -208 439 -140 403 -208 b 114 -171 217 -208 163 -194 l 76 -256 b 269 -301 131 -282 199 -301 z m 483 817 b 575 906 535 817 575 851 b 483 994 575 958 535 994 b 392 906 432 994 392 958 b 483 817 392 851 432 817 z "},"k":{"ha":833,"x_min":0,"x_max":0,"o":"m 147 0 l 261 0 l 261 183 l 421 340 l 669 0 l 797 0 l 492 410 l 761 675 l 631 675 l 267 319 l 261 319 l 261 989 l 147 989 z "},"l":{"ha":833,"x_min":0,"x_max":0,"o":"m 565 -17 b 746 24 639 -17 683 -3 l 717 108 b 590 78 671 88 629 78 b 457 218 510 78 457 119 l 457 989 l 103 989 l 103 896 l 343 896 l 343 226 b 565 -17 343 67 422 -17 z "},"m":{"ha":833,"x_min":0,"x_max":0,"o":"m 81 0 l 194 0 l 194 489 b 306 593 228 558 258 593 b 375 475 356 593 375 553 l 375 0 l 481 0 l 481 489 b 589 593 517 558 542 593 b 661 475 639 593 661 553 l 661 0 l 775 0 l 775 483 b 625 692 775 618 719 692 b 467 575 547 692 506 647 b 339 692 447 653 406 692 b 185 586 261 692 219 649 l 182 586 l 172 675 l 81 675 z "},"n":{"ha":833,"x_min":0,"x_max":0,"o":"m 129 0 l 243 0 l 243 471 b 457 593 322 553 376 593 b 613 404 568 593 613 532 l 613 0 l 726 0 l 726 419 b 493 692 726 597 653 692 b 239 560 388 692 310 635 l 233 560 l 224 675 l 129 675 z "},"o":{"ha":833,"x_min":0,"x_max":0,"o":"m 417 -17 b 750 336 594 -17 750 113 b 417 692 750 563 594 692 b 83 336 239 692 83 563 b 417 -17 83 113 239 -17 z m 417 78 b 201 336 288 78 201 182 b 417 597 201 492 288 597 b 632 336 546 597 632 492 b 417 78 632 182 546 78 z "},"p":{"ha":833,"x_min":0,"x_max":0,"o":"m 129 -285 l 243 -285 l 243 -57 l 238 71 l 242 71 b 443 -17 301 15 381 -17 b 750 347 606 -17 750 118 b 471 692 750 557 653 692 b 238 589 388 692 300 649 l 233 589 l 224 675 l 129 675 z m 424 79 b 243 158 378 79 307 101 l 243 494 b 442 596 313 564 382 596 b 632 347 576 596 632 496 b 424 79 632 181 544 79 z "},"q":{"ha":833,"x_min":0,"x_max":0,"o":"m 590 -285 l 704 -285 l 704 675 l 613 675 l 603 600 l 599 600 b 390 692 535 660 472 692 b 83 336 231 692 83 556 b 375 -17 83 111 200 -17 b 592 86 458 -17 536 29 l 596 86 l 590 -39 z m 400 79 b 201 338 275 79 201 176 b 413 596 201 492 296 596 b 590 517 471 596 529 574 l 590 181 b 400 79 531 114 467 79 z "},"r":{"ha":833,"x_min":0,"x_max":0,"o":"m 203 0 l 317 0 l 317 396 b 594 589 397 536 493 589 b 719 565 647 589 672 582 l 746 664 b 613 692 704 685 663 692 b 311 515 488 692 382 624 l 307 515 l 297 675 l 203 675 z "},"s":{"ha":833,"x_min":0,"x_max":0,"o":"m 431 -17 b 731 185 624 -17 731 75 b 451 393 731 288 676 344 b 256 506 314 422 256 447 b 411 603 256 557 296 603 b 638 532 497 603 575 575 l 693 606 b 421 692 626 651 524 692 b 140 500 236 692 140 608 b 404 303 140 399 229 339 b 615 178 588 265 615 229 b 444 72 615 121 558 72 b 151 164 319 72 229 108 l 99 89 b 431 -17 181 32 299 -17 z "},"t":{"ha":833,"x_min":0,"x_max":0,"o":"m 547 -17 b 758 24 632 -17 697 1 l 733 107 b 571 76 685 89 635 76 b 400 261 440 76 400 140 l 400 582 l 732 582 l 732 675 l 400 675 l 400 892 l 306 892 l 290 675 l 96 668 l 96 582 l 286 582 l 286 263 b 547 -17 286 96 350 -17 z "},"u":{"ha":833,"x_min":0,"x_max":0,"o":"m 342 -17 b 593 118 446 -17 525 39 l 599 118 l 608 0 l 701 0 l 701 675 l 588 675 l 588 207 b 378 82 513 119 456 82 b 222 271 265 82 222 143 l 222 675 l 107 675 l 107 256 b 342 -17 107 78 181 -17 z "},"v":{"ha":833,"x_min":0,"x_max":0,"o":"m 356 0 l 483 0 l 763 675 l 653 675 l 497 292 b 424 93 469 224 447 157 l 418 93 b 342 292 394 157 369 224 l 186 675 l 71 675 z "},"w":{"ha":833,"x_min":0,"x_max":0,"o":"m 158 0 l 306 0 l 381 322 b 414 522 392 369 403 436 l 419 522 b 453 322 431 436 442 369 l 531 0 l 678 0 l 822 675 l 717 675 l 636 283 b 606 97 624 219 617 161 l 600 97 b 558 283 592 161 574 219 l 478 633 l 364 633 l 281 283 b 242 97 265 221 250 161 l 236 97 b 206 283 228 161 218 219 l 125 675 l 11 675 z "},"x":{"ha":833,"x_min":0,"x_max":0,"o":"m 89 0 l 211 0 l 322 156 b 406 278 350 199 378 238 l 411 278 b 500 156 440 239 472 194 l 618 0 l 743 0 l 485 340 l 725 675 l 604 675 l 503 529 b 426 413 479 492 451 450 l 421 413 b 342 526 393 450 365 490 l 235 675 l 108 675 l 346 350 z "},"y":{"ha":833,"x_min":0,"x_max":0,"o":"m 182 -290 b 468 -56 335 -290 418 -189 l 765 675 l 657 675 l 510 301 b 438 106 488 240 461 169 l 432 106 b 349 301 404 171 375 242 l 183 675 l 68 675 l 383 -1 l 363 -51 b 178 -196 329 -135 272 -196 b 117 -186 157 -196 135 -192 l 93 -276 b 182 -290 117 -285 150 -290 z "},"z":{"ha":833,"x_min":0,"x_max":0,"o":"m 99 0 l 738 0 l 738 93 l 261 93 l 725 614 l 725 675 l 150 675 l 150 582 l 561 582 l 99 61 z "},"À":{"ha":833,"x_min":0,"x_max":0,"o":"m 322 510 b 413 817 354 611 383 711 l 418 817 b 508 510 446 711 476 611 l 551 371 l 279 371 z m 44 0 l 163 0 l 250 278 l 581 278 l 667 0 l 789 0 l 482 911 l 351 911 z m 457 968 l 507 1026 l 311 1204 l 246 1128 z "},"Á":{"ha":833,"x_min":0,"x_max":0,"o":"m 322 510 b 413 817 354 611 383 711 l 418 817 b 508 510 446 711 476 611 l 551 371 l 279 371 z m 44 0 l 163 0 l 250 278 l 581 278 l 667 0 l 789 0 l 482 911 l 351 911 z m 376 968 l 588 1128 l 522 1204 l 326 1026 z "},"Â":{"ha":833,"x_min":0,"x_max":0,"o":"m 322 510 b 413 817 354 611 383 711 l 418 817 b 508 510 446 711 476 611 l 551 371 l 279 371 z m 44 0 l 163 0 l 250 278 l 581 278 l 667 0 l 789 0 l 482 911 l 351 911 z m 261 971 l 414 1100 l 419 1100 l 572 971 l 622 1007 l 476 1164 l 357 1164 l 211 1007 z "},"Ã":{"ha":833,"x_min":0,"x_max":0,"o":"m 322 510 b 413 817 354 611 383 711 l 418 817 b 508 510 446 711 476 611 l 551 371 l 279 371 z m 44 0 l 163 0 l 250 278 l 581 278 l 667 0 l 789 0 l 482 911 l 351 911 z m 521 985 b 663 1156 604 985 657 1049 l 585 1161 b 518 1069 578 1101 553 1069 b 313 1168 453 1069 417 1168 b 171 997 229 1168 176 1103 l 249 992 b 315 1083 254 1051 281 1083 b 521 985 381 1083 417 985 z "},"Ä":{"ha":833,"x_min":0,"x_max":0,"o":"m 322 510 b 413 817 354 611 383 711 l 418 817 b 508 510 446 711 476 611 l 551 371 l 279 371 z m 44 0 l 163 0 l 250 278 l 581 278 l 667 0 l 789 0 l 482 911 l 351 911 z m 290 993 b 360 1064 331 993 360 1022 b 290 1133 360 1106 331 1133 b 219 1064 250 1133 219 1106 b 290 993 219 1022 250 993 z m 543 993 b 614 1064 583 993 614 1022 b 543 1133 614 1106 583 1133 b 474 1064 503 1133 474 1106 b 543 993 474 1022 503 993 z "},"Ā":{"ha":833,"x_min":0,"x_max":0,"o":"m 322 510 b 413 817 354 611 383 711 l 418 817 b 508 510 446 711 476 611 l 551 371 l 279 371 z m 44 0 l 163 0 l 250 278 l 581 278 l 667 0 l 789 0 l 482 911 l 351 911 z m 231 1021 l 603 1021 l 603 1100 l 231 1100 z "},"Ă":{"ha":833,"x_min":0,"x_max":0,"o":"m 322 510 b 413 817 354 611 383 711 l 418 817 b 508 510 446 711 476 611 l 551 371 l 279 371 z m 44 0 l 163 0 l 250 278 l 581 278 l 667 0 l 789 0 l 482 911 l 351 911 z m 417 979 b 619 1158 546 979 608 1061 l 550 1169 b 417 1053 539 1104 496 1053 b 283 1169 338 1053 294 1104 l 214 1158 b 417 979 225 1061 288 979 z "},"Å":{"ha":833,"x_min":0,"x_max":0,"o":"m 322 510 b 413 817 354 611 383 711 l 418 817 b 508 510 446 711 476 611 l 551 371 l 279 371 z m 44 0 l 163 0 l 250 278 l 581 278 l 667 0 l 789 0 l 482 911 l 351 911 z m 417 1021 b 344 1096 376 1021 344 1047 b 417 1171 344 1143 376 1171 b 488 1096 454 1171 488 1143 b 417 1021 488 1047 454 1021 z m 417 971 b 551 1096 493 971 551 1021 b 417 1222 551 1172 493 1222 b 282 1096 339 1222 282 1172 b 417 971 282 1021 339 971 z "},"Ǻ":{"ha":833,"x_min":0,"x_max":0,"o":"m 417 971 b 551 1096 493 971 551 1021 b 458 1217 551 1157 514 1201 l 568 1275 l 517 1344 l 333 1199 b 282 1096 301 1176 282 1140 b 417 971 282 1021 339 971 z m 322 510 b 413 817 354 611 383 711 l 418 817 b 508 510 446 711 476 611 l 551 371 l 279 371 z m 44 0 l 163 0 l 250 278 l 581 278 l 667 0 l 789 0 l 482 911 l 351 911 z m 417 1021 b 344 1096 376 1021 344 1047 b 417 1171 344 1143 376 1171 b 488 1096 454 1171 488 1143 b 417 1021 488 1047 454 1021 z "},"Ǎ":{"ha":833,"x_min":0,"x_max":0,"o":"m 322 510 b 413 817 354 611 383 711 l 418 817 b 508 510 446 711 476 611 l 551 371 l 279 371 z m 44 0 l 163 0 l 250 278 l 581 278 l 667 0 l 789 0 l 482 911 l 351 911 z m 357 981 l 476 981 l 622 1138 l 572 1174 l 419 1046 l 414 1046 l 261 1174 l 211 1138 z "},"Ą":{"ha":833,"x_min":0,"x_max":0,"o":"m 322 510 b 413 817 354 611 383 711 l 418 817 b 508 510 446 711 476 611 l 551 371 l 279 371 z m 715 -312 b 843 -262 768 -312 811 -290 l 807 -203 b 738 -232 790 -218 768 -232 b 663 -161 697 -232 663 -208 b 789 0 663 -93 718 -32 l 482 911 l 351 911 l 44 0 l 163 0 l 250 278 l 581 278 l 667 0 l 693 0 b 572 -186 638 -36 572 -100 b 715 -312 572 -271 635 -312 z "},"Ạ":{"ha":833,"x_min":0,"x_max":0,"o":"m 322 510 b 413 817 354 611 383 711 l 418 817 b 508 510 446 711 476 611 l 551 371 l 279 371 z m 44 0 l 163 0 l 250 278 l 581 278 l 667 0 l 789 0 l 482 911 l 351 911 z m 417 -299 b 508 -210 468 -299 508 -264 b 417 -121 508 -157 468 -121 b 325 -210 365 -121 325 -157 b 417 -299 325 -264 365 -299 z "},"Ả":{"ha":833,"x_min":0,"x_max":0,"o":"m 322 510 b 413 817 354 611 383 711 l 418 817 b 508 510 446 711 476 611 l 551 371 l 279 371 z m 44 0 l 163 0 l 250 278 l 581 278 l 667 0 l 789 0 l 482 911 l 351 911 z m 372 969 b 526 1099 453 983 526 1018 b 335 1211 526 1169 456 1207 l 322 1144 b 438 1086 400 1142 438 1122 b 360 1022 438 1051 404 1035 z "},"Ấ":{"ha":833,"x_min":0,"x_max":0,"o":"m 322 510 b 413 817 354 611 383 711 l 418 817 b 508 510 446 711 476 611 l 551 371 l 279 371 z m 585 1060 l 726 1179 l 678 1233 l 543 1104 z m 44 0 l 163 0 l 250 278 l 581 278 l 667 0 l 789 0 l 482 911 l 351 911 z m 285 971 l 414 1067 l 419 1067 l 549 971 l 596 1007 l 467 1132 l 367 1132 l 238 1007 z "},"Ầ":{"ha":833,"x_min":0,"x_max":0,"o":"m 322 510 b 413 817 354 611 383 711 l 418 817 b 508 510 446 711 476 611 l 551 371 l 279 371 z m 249 1060 l 290 1101 l 172 1233 l 124 1182 z m 44 0 l 163 0 l 250 278 l 581 278 l 667 0 l 789 0 l 482 911 l 351 911 z m 285 971 l 414 1067 l 419 1067 l 549 971 l 596 1007 l 467 1132 l 367 1132 l 238 1007 z "},"Ẩ":{"ha":833,"x_min":0,"x_max":0,"o":"m 322 510 b 413 817 354 611 383 711 l 418 817 b 508 510 446 711 476 611 l 551 371 l 279 371 z m 576 1047 b 704 1157 643 1058 704 1086 b 538 1258 704 1221 646 1254 l 525 1200 b 624 1146 594 1196 624 1182 b 561 1096 624 1117 596 1104 z m 44 0 l 163 0 l 250 278 l 581 278 l 667 0 l 789 0 l 482 911 l 351 911 z m 285 971 l 414 1067 l 419 1067 l 549 971 l 596 1007 l 467 1132 l 367 1132 l 238 1007 z "},"Ẫ":{"ha":833,"x_min":0,"x_max":0,"o":"m 322 510 b 413 817 354 611 383 711 l 418 817 b 508 510 446 711 476 611 l 551 371 l 279 371 z m 44 0 l 163 0 l 250 278 l 581 278 l 667 0 l 789 0 l 482 911 l 351 911 z m 285 971 l 414 1063 l 419 1063 l 549 971 l 596 1007 l 467 1128 l 367 1128 l 238 1007 z m 508 1165 b 618 1293 583 1165 614 1221 l 556 1300 b 503 1236 550 1260 536 1236 b 325 1304 446 1236 414 1304 b 215 1178 250 1304 219 1249 l 278 1171 b 331 1235 283 1211 297 1235 b 508 1165 388 1235 419 1165 z "},"Ậ":{"ha":833,"x_min":0,"x_max":0,"o":"m 322 510 b 413 817 354 611 383 711 l 418 817 b 508 510 446 711 476 611 l 551 371 l 279 371 z m 44 0 l 163 0 l 250 278 l 581 278 l 667 0 l 789 0 l 482 911 l 351 911 z m 261 971 l 414 1100 l 419 1100 l 572 971 l 622 1007 l 476 1164 l 357 1164 l 211 1007 z m 417 -299 b 508 -210 468 -299 508 -264 b 417 -121 508 -157 468 -121 b 325 -210 365 -121 325 -157 b 417 -299 325 -264 365 -299 z "},"Ắ":{"ha":833,"x_min":0,"x_max":0,"o":"m 322 510 b 413 817 354 611 383 711 l 418 817 b 508 510 446 711 476 611 l 551 371 l 279 371 z m 44 0 l 163 0 l 250 278 l 581 278 l 667 0 l 789 0 l 482 911 l 351 911 z m 417 979 b 619 1158 546 979 608 1061 l 554 1169 b 417 1047 543 1101 499 1047 b 279 1169 335 1047 290 1101 l 214 1158 b 417 979 225 1061 288 979 z m 421 1115 l 569 1267 l 496 1317 l 364 1156 z "},"Ằ":{"ha":833,"x_min":0,"x_max":0,"o":"m 322 510 b 413 817 354 611 383 711 l 418 817 b 508 510 446 711 476 611 l 551 371 l 279 371 z m 44 0 l 163 0 l 250 278 l 581 278 l 667 0 l 789 0 l 482 911 l 351 911 z m 417 979 b 619 1158 546 979 608 1061 l 554 1169 b 417 1047 543 1101 499 1047 b 279 1169 335 1047 290 1101 l 214 1158 b 417 979 225 1061 288 979 z m 413 1115 l 469 1156 l 338 1317 l 264 1267 z "},"Ẳ":{"ha":833,"x_min":0,"x_max":0,"o":"m 322 510 b 413 817 354 611 383 711 l 418 817 b 508 510 446 711 476 611 l 551 371 l 279 371 z m 44 0 l 163 0 l 250 278 l 581 278 l 667 0 l 789 0 l 482 911 l 351 911 z m 417 979 b 619 1158 546 979 608 1061 l 554 1169 b 417 1047 543 1101 499 1047 b 279 1169 335 1047 290 1101 l 214 1158 b 417 979 225 1061 288 979 z m 385 1111 b 514 1221 451 1122 514 1150 b 346 1322 514 1286 454 1318 l 335 1264 b 432 1210 403 1260 432 1246 b 371 1160 432 1181 404 1168 z "},"Ẵ":{"ha":833,"x_min":0,"x_max":0,"o":"m 322 510 b 413 817 354 611 383 711 l 418 817 b 508 510 446 711 476 611 l 551 371 l 279 371 z m 44 0 l 163 0 l 250 278 l 581 278 l 667 0 l 789 0 l 482 911 l 351 911 z m 417 983 b 615 1131 546 983 606 1053 l 551 1142 b 417 1046 542 1092 501 1046 b 282 1142 332 1046 292 1092 l 218 1131 b 417 983 228 1053 288 983 z m 508 1171 b 618 1297 583 1171 614 1226 l 556 1304 b 503 1240 550 1264 536 1240 b 325 1310 446 1240 414 1310 b 215 1182 250 1310 219 1254 l 278 1175 b 331 1240 283 1217 297 1240 b 508 1171 388 1240 419 1171 z "},"Ặ":{"ha":833,"x_min":0,"x_max":0,"o":"m 322 510 b 413 817 354 611 383 711 l 418 817 b 508 510 446 711 476 611 l 551 371 l 279 371 z m 44 0 l 163 0 l 250 278 l 581 278 l 667 0 l 789 0 l 482 911 l 351 911 z m 417 979 b 619 1158 546 979 608 1061 l 550 1169 b 417 1053 539 1104 496 1053 b 283 1169 338 1053 294 1104 l 214 1158 b 417 979 225 1061 288 979 z m 417 -299 b 508 -210 468 -299 508 -264 b 417 -121 508 -157 468 -121 b 325 -210 365 -121 325 -157 b 417 -299 325 -264 365 -299 z "},"Æ":{"ha":833,"x_min":0,"x_max":0,"o":"m 321 524 b 436 819 358 622 399 719 l 440 819 l 440 358 l 257 358 z m -1 0 l 119 0 l 221 265 l 440 265 l 440 0 l 821 0 l 821 99 l 546 99 l 546 431 l 750 431 l 750 529 l 546 529 l 546 814 l 808 814 l 808 911 l 365 911 z "},"Ǽ":{"ha":833,"x_min":0,"x_max":0,"o":"m 321 524 b 436 819 358 622 399 719 l 440 819 l 440 358 l 257 358 z m -1 0 l 119 0 l 221 265 l 440 265 l 440 0 l 821 0 l 821 99 l 546 99 l 546 431 l 750 431 l 750 529 l 546 529 l 546 814 l 808 814 l 808 911 l 365 911 z m 543 968 l 754 1128 l 689 1204 l 493 1026 z "},"Ǣ":{"ha":833,"x_min":0,"x_max":0,"o":"m 321 524 b 436 819 358 622 399 719 l 440 819 l 440 358 l 257 358 z m -1 0 l 119 0 l 221 265 l 440 265 l 440 0 l 821 0 l 821 99 l 546 99 l 546 431 l 750 431 l 750 529 l 546 529 l 546 814 l 808 814 l 808 911 l 365 911 z m 397 1021 l 769 1021 l 769 1100 l 397 1100 z "},"Ƀ":{"ha":833,"x_min":0,"x_max":0,"o":"m 146 0 l 425 0 b 768 267 629 0 768 88 b 557 485 768 392 690 464 l 557 490 b 717 689 665 518 717 599 b 404 911 717 849 590 911 l 146 911 l 146 311 l 36 303 l 36 225 l 146 225 z m 261 97 l 261 225 l 458 225 l 458 311 l 261 311 l 261 431 l 408 431 b 654 272 568 431 654 385 b 408 97 654 149 564 97 z m 261 528 l 261 814 l 390 814 b 603 679 531 814 603 778 b 385 528 603 578 540 528 z "},"Ḇ":{"ha":833,"x_min":0,"x_max":0,"o":"m 138 0 l 417 0 b 760 267 621 0 760 88 b 549 485 760 392 682 464 l 549 490 b 708 689 657 518 708 599 b 396 911 708 849 582 911 l 138 911 z m 253 528 l 253 814 l 382 814 b 594 679 522 814 594 778 b 376 528 594 578 532 528 z m 253 97 l 253 431 l 400 431 b 646 272 560 431 646 385 b 400 97 646 149 556 97 z m 242 -236 l 611 -236 l 611 -157 l 242 -157 z "},"Ç":{"ha":833,"x_min":0,"x_max":0,"o":"m 365 -314 b 594 -187 513 -307 594 -268 b 493 -89 594 -131 557 -104 l 519 -15 b 769 115 624 -7 704 39 l 704 186 b 499 85 646 121 582 85 b 210 458 324 85 210 229 b 499 826 210 685 324 826 b 682 743 575 826 635 793 l 747 817 b 499 928 694 875 607 928 b 90 456 261 928 90 749 b 443 -14 90 178 240 7 l 399 -122 b 506 -189 478 -133 506 -153 b 354 -258 506 -229 471 -250 z "},"Ć":{"ha":833,"x_min":0,"x_max":0,"o":"m 488 -17 b 769 115 608 -17 697 32 l 704 186 b 499 85 646 121 582 85 b 210 458 324 85 210 229 b 499 826 210 685 324 826 b 682 743 575 826 635 793 l 747 817 b 499 928 694 875 607 928 b 90 456 261 928 90 749 b 488 -17 90 158 263 -17 z m 440 968 l 651 1128 l 586 1204 l 390 1026 z "},"Ĉ":{"ha":833,"x_min":0,"x_max":0,"o":"m 488 -17 b 769 115 608 -17 697 32 l 704 186 b 499 85 646 121 582 85 b 210 458 324 85 210 229 b 499 826 210 685 324 826 b 682 743 575 826 635 793 l 747 817 b 499 928 694 875 607 928 b 90 456 261 928 90 749 b 488 -17 90 158 263 -17 z m 325 971 l 478 1100 l 483 1100 l 636 971 l 686 1007 l 540 1164 l 421 1164 l 275 1007 z "},"Č":{"ha":833,"x_min":0,"x_max":0,"o":"m 488 -17 b 769 115 608 -17 697 32 l 704 186 b 499 85 646 121 582 85 b 210 458 324 85 210 229 b 499 826 210 685 324 826 b 682 743 575 826 635 793 l 747 817 b 499 928 694 875 607 928 b 90 456 261 928 90 749 b 488 -17 90 158 263 -17 z m 421 981 l 540 981 l 686 1138 l 636 1174 l 483 1046 l 478 1046 l 325 1174 l 275 1138 z "},"Ċ":{"ha":833,"x_min":0,"x_max":0,"o":"m 488 -17 b 769 115 608 -17 697 32 l 704 186 b 499 85 646 121 582 85 b 210 458 324 85 210 229 b 499 826 210 685 324 826 b 682 743 575 826 635 793 l 747 817 b 499 928 694 875 607 928 b 90 456 261 928 90 749 b 488 -17 90 158 263 -17 z m 481 992 b 563 1071 526 992 563 1024 b 481 1149 563 1117 526 1149 b 399 1071 435 1149 399 1117 b 481 992 399 1024 435 992 z "},"Ď":{"ha":833,"x_min":0,"x_max":0,"o":"m 121 0 l 351 0 b 768 460 619 0 768 169 b 346 911 768 749 619 911 l 121 911 z m 236 94 l 236 817 l 338 817 b 649 460 546 817 649 689 b 338 94 649 229 546 94 z m 357 981 l 476 981 l 622 1138 l 572 1174 l 419 1046 l 414 1046 l 261 1174 l 211 1138 z "},"Ḍ":{"ha":833,"x_min":0,"x_max":0,"o":"m 121 0 l 351 0 b 768 460 619 0 768 169 b 346 911 768 749 619 911 l 121 911 z m 236 94 l 236 817 l 338 817 b 649 460 546 817 649 689 b 338 94 649 229 546 94 z m 408 -299 b 500 -210 460 -299 500 -264 b 408 -121 500 -157 460 -121 b 317 -210 357 -121 317 -157 b 408 -299 317 -264 357 -299 z "},"Ḏ":{"ha":833,"x_min":0,"x_max":0,"o":"m 121 0 l 351 0 b 768 460 619 0 768 169 b 346 911 768 749 619 911 l 121 911 z m 236 94 l 236 817 l 338 817 b 649 460 546 817 649 689 b 338 94 649 229 546 94 z m 224 -236 l 593 -236 l 593 -157 l 224 -157 z "},"Ḑ":{"ha":833,"x_min":0,"x_max":0,"o":"m 236 94 l 236 817 l 338 817 b 649 460 546 817 649 689 b 338 94 649 229 546 94 z m 121 0 l 351 0 b 361 0 354 0 357 0 l 310 -122 b 417 -189 389 -133 417 -153 b 265 -258 417 -229 382 -250 l 276 -314 b 506 -187 424 -307 506 -268 b 404 -89 506 -131 468 -104 l 439 7 b 768 460 651 40 768 203 b 346 911 768 749 619 911 l 121 911 z "},"Đ":{"ha":833,"x_min":0,"x_max":0,"o":"m 121 0 l 351 0 b 768 460 619 0 768 169 b 346 911 768 749 619 911 l 121 911 l 121 522 l 17 514 l 17 436 l 121 436 z m 236 94 l 236 436 l 436 436 l 436 522 l 236 522 l 236 817 l 338 817 b 647 460 544 817 647 689 b 338 94 647 229 544 94 z "},"Ɗ":{"ha":833,"x_min":0,"x_max":0,"o":"m 290 0 l 428 0 b 788 469 653 0 788 171 b 374 928 788 763 653 928 b 28 618 144 928 28 797 b 181 364 28 490 86 411 l 236 444 b 131 624 167 486 131 535 b 290 826 131 725 185 806 z m 406 94 l 406 832 b 668 469 589 824 668 694 b 435 94 668 232 586 94 z "},"È":{"ha":833,"x_min":0,"x_max":0,"o":"m 158 0 l 736 0 l 736 99 l 275 99 l 275 429 l 653 429 l 653 528 l 275 528 l 275 814 l 722 814 l 722 911 l 158 911 z m 500 968 l 550 1026 l 354 1204 l 289 1128 z "},"É":{"ha":833,"x_min":0,"x_max":0,"o":"m 158 0 l 736 0 l 736 99 l 275 99 l 275 429 l 653 429 l 653 528 l 275 528 l 275 814 l 722 814 l 722 911 l 158 911 z m 419 968 l 631 1128 l 565 1204 l 369 1026 z "},"Ê":{"ha":833,"x_min":0,"x_max":0,"o":"m 158 0 l 736 0 l 736 99 l 275 99 l 275 429 l 653 429 l 653 528 l 275 528 l 275 814 l 722 814 l 722 911 l 158 911 z m 304 971 l 457 1100 l 463 1100 l 615 971 l 665 1007 l 519 1164 l 400 1164 l 254 1007 z "},"Ě":{"ha":833,"x_min":0,"x_max":0,"o":"m 158 0 l 736 0 l 736 99 l 275 99 l 275 429 l 653 429 l 653 528 l 275 528 l 275 814 l 722 814 l 722 911 l 158 911 z m 400 981 l 519 981 l 665 1138 l 615 1174 l 463 1046 l 457 1046 l 304 1174 l 254 1138 z "},"Ë":{"ha":833,"x_min":0,"x_max":0,"o":"m 158 0 l 736 0 l 736 99 l 275 99 l 275 429 l 653 429 l 653 528 l 275 528 l 275 814 l 722 814 l 722 911 l 158 911 z m 333 993 b 403 1064 374 993 403 1022 b 333 1133 403 1106 374 1133 b 263 1064 293 1133 263 1106 b 333 993 263 1022 293 993 z m 586 993 b 657 1064 626 993 657 1022 b 586 1133 657 1106 626 1133 b 517 1064 546 1133 517 1106 b 586 993 517 1022 546 993 z "},"Ē":{"ha":833,"x_min":0,"x_max":0,"o":"m 158 0 l 736 0 l 736 99 l 275 99 l 275 429 l 653 429 l 653 528 l 275 528 l 275 814 l 722 814 l 722 911 l 158 911 z m 274 1021 l 646 1021 l 646 1100 l 274 1100 z "},"Ĕ":{"ha":833,"x_min":0,"x_max":0,"o":"m 158 0 l 736 0 l 736 99 l 275 99 l 275 429 l 653 429 l 653 528 l 275 528 l 275 814 l 722 814 l 722 911 l 158 911 z m 460 979 b 663 1158 589 979 651 1061 l 593 1169 b 460 1053 582 1104 539 1053 b 326 1169 381 1053 338 1104 l 257 1158 b 460 979 268 1061 331 979 z "},"Ė":{"ha":833,"x_min":0,"x_max":0,"o":"m 158 0 l 736 0 l 736 99 l 275 99 l 275 429 l 653 429 l 653 528 l 275 528 l 275 814 l 722 814 l 722 911 l 158 911 z m 460 992 b 542 1071 506 992 542 1024 b 460 1149 542 1117 506 1149 b 378 1071 414 1149 378 1117 b 460 992 378 1024 414 992 z "},"Ę":{"ha":833,"x_min":0,"x_max":0,"o":"m 642 -312 b 768 -262 694 -312 736 -290 l 733 -203 b 664 -232 715 -218 693 -232 b 588 -161 625 -232 588 -210 b 731 0 588 -87 660 -11 l 736 0 l 736 99 l 276 99 l 276 429 l 653 429 l 653 528 l 276 528 l 276 814 l 722 814 l 722 911 l 160 911 l 160 0 l 618 0 b 499 -186 557 -36 499 -103 b 642 -312 499 -271 560 -312 z "},"Ẹ":{"ha":833,"x_min":0,"x_max":0,"o":"m 158 0 l 736 0 l 736 99 l 275 99 l 275 429 l 653 429 l 653 528 l 275 528 l 275 814 l 722 814 l 722 911 l 158 911 z m 463 -299 b 554 -210 514 -299 554 -264 b 463 -121 554 -157 514 -121 b 371 -210 411 -121 371 -157 b 463 -299 371 -264 411 -299 z "},"Ẻ":{"ha":833,"x_min":0,"x_max":0,"o":"m 158 0 l 736 0 l 736 99 l 275 99 l 275 429 l 653 429 l 653 528 l 275 528 l 275 814 l 722 814 l 722 911 l 158 911 z m 415 969 b 569 1099 496 983 569 1018 b 378 1211 569 1169 499 1207 l 365 1144 b 481 1086 443 1142 481 1122 b 403 1022 481 1051 447 1035 z "},"Ẽ":{"ha":833,"x_min":0,"x_max":0,"o":"m 158 0 l 736 0 l 736 99 l 275 99 l 275 429 l 653 429 l 653 528 l 275 528 l 275 814 l 722 814 l 722 911 l 158 911 z m 564 985 b 706 1156 647 985 700 1049 l 628 1161 b 561 1069 621 1101 596 1069 b 356 1168 496 1069 460 1168 b 214 997 272 1168 219 1103 l 292 992 b 358 1083 297 1051 324 1083 b 564 985 424 1083 460 985 z "},"Ế":{"ha":833,"x_min":0,"x_max":0,"o":"m 158 0 l 736 0 l 736 99 l 275 99 l 275 429 l 653 429 l 653 528 l 275 528 l 275 814 l 722 814 l 722 911 l 158 911 z m 328 971 l 457 1067 l 463 1067 l 592 971 l 639 1007 l 510 1132 l 410 1132 l 281 1007 z m 628 1060 l 769 1179 l 721 1233 l 586 1104 z "},"Ề":{"ha":833,"x_min":0,"x_max":0,"o":"m 158 0 l 736 0 l 736 99 l 275 99 l 275 429 l 653 429 l 653 528 l 275 528 l 275 814 l 722 814 l 722 911 l 158 911 z m 328 971 l 457 1067 l 463 1067 l 592 971 l 639 1007 l 510 1132 l 410 1132 l 281 1007 z m 292 1060 l 333 1101 l 215 1233 l 167 1182 z "},"Ể":{"ha":833,"x_min":0,"x_max":0,"o":"m 158 0 l 736 0 l 736 99 l 275 99 l 275 429 l 653 429 l 653 528 l 275 528 l 275 814 l 722 814 l 722 911 l 158 911 z m 328 971 l 457 1067 l 463 1067 l 592 971 l 639 1007 l 510 1132 l 410 1132 l 281 1007 z m 619 1047 b 747 1157 686 1058 747 1086 b 581 1258 747 1221 689 1254 l 568 1200 b 667 1146 638 1196 667 1182 b 604 1096 667 1117 639 1104 z "},"Ễ":{"ha":833,"x_min":0,"x_max":0,"o":"m 158 0 l 736 0 l 736 99 l 275 99 l 275 429 l 653 429 l 653 528 l 275 528 l 275 814 l 722 814 l 722 911 l 158 911 z m 328 971 l 457 1063 l 463 1063 l 592 971 l 639 1007 l 510 1128 l 410 1128 l 281 1007 z m 551 1165 b 661 1293 626 1165 657 1221 l 599 1300 b 546 1236 593 1260 579 1236 b 368 1304 489 1236 457 1304 b 258 1178 293 1304 263 1249 l 321 1171 b 374 1235 326 1211 340 1235 b 551 1165 431 1235 463 1165 z "},"Ệ":{"ha":833,"x_min":0,"x_max":0,"o":"m 158 0 l 736 0 l 736 99 l 275 99 l 275 429 l 653 429 l 653 528 l 275 528 l 275 814 l 722 814 l 722 911 l 158 911 z m 304 971 l 457 1100 l 463 1100 l 615 971 l 665 1007 l 519 1164 l 400 1164 l 254 1007 z m 463 -299 b 554 -210 514 -299 554 -264 b 463 -121 554 -157 514 -121 b 371 -210 411 -121 371 -157 b 463 -299 371 -264 411 -299 z "},"Ḗ":{"ha":833,"x_min":0,"x_max":0,"o":"m 158 0 l 736 0 l 736 99 l 275 99 l 275 429 l 653 429 l 653 528 l 275 528 l 275 814 l 722 814 l 722 911 l 158 911 z m 274 1021 l 646 1021 l 646 1100 l 274 1100 z m 435 1149 l 614 1278 l 560 1344 l 392 1201 z "},"Ǵ":{"ha":833,"x_min":0,"x_max":0,"o":"m 468 -17 b 740 89 586 -17 683 31 l 740 472 l 451 472 l 451 376 l 633 376 l 633 139 b 475 85 599 106 539 85 b 194 458 296 85 194 229 b 478 826 194 685 307 826 b 664 743 565 826 619 790 l 729 817 b 478 928 678 871 599 928 b 74 456 242 928 74 750 b 468 -17 74 158 239 -17 z m 418 968 l 629 1128 l 564 1204 l 368 1026 z "},"Ĝ":{"ha":833,"x_min":0,"x_max":0,"o":"m 468 -17 b 740 89 586 -17 683 31 l 740 472 l 451 472 l 451 376 l 633 376 l 633 139 b 475 85 599 106 539 85 b 194 458 296 85 194 229 b 478 826 194 685 307 826 b 664 743 565 826 619 790 l 729 817 b 478 928 678 871 599 928 b 74 456 242 928 74 750 b 468 -17 74 158 239 -17 z m 303 971 l 456 1100 l 461 1100 l 614 971 l 664 1007 l 518 1164 l 399 1164 l 253 1007 z "},"Ğ":{"ha":833,"x_min":0,"x_max":0,"o":"m 468 -17 b 740 89 586 -17 683 31 l 740 472 l 451 472 l 451 376 l 633 376 l 633 139 b 475 85 599 106 539 85 b 194 458 296 85 194 229 b 478 826 194 685 307 826 b 664 743 565 826 619 790 l 729 817 b 478 928 678 871 599 928 b 74 456 242 928 74 750 b 468 -17 74 158 239 -17 z m 458 979 b 661 1158 588 979 650 1061 l 592 1169 b 458 1053 581 1104 538 1053 b 325 1169 379 1053 336 1104 l 256 1158 b 458 979 267 1061 329 979 z "},"Ġ":{"ha":833,"x_min":0,"x_max":0,"o":"m 468 -17 b 740 89 586 -17 683 31 l 740 472 l 451 472 l 451 376 l 633 376 l 633 139 b 475 85 599 106 539 85 b 194 458 296 85 194 229 b 478 826 194 685 307 826 b 664 743 565 826 619 790 l 729 817 b 478 928 678 871 599 928 b 74 456 242 928 74 750 b 468 -17 74 158 239 -17 z m 458 992 b 540 1071 504 992 540 1024 b 458 1149 540 1117 504 1149 b 376 1071 413 1149 376 1117 b 458 992 376 1024 413 992 z "},"Ģ":{"ha":833,"x_min":0,"x_max":0,"o":"m 468 -17 b 740 89 586 -17 683 31 l 740 472 l 451 472 l 451 376 l 633 376 l 633 139 b 475 85 599 106 539 85 b 194 458 296 85 194 229 b 478 826 194 685 307 826 b 664 743 565 826 619 790 l 729 817 b 478 928 678 871 599 928 b 74 456 242 928 74 750 b 468 -17 74 158 239 -17 z m 338 -314 b 567 -187 485 -307 567 -268 b 404 -81 567 -125 525 -94 l 379 -133 b 478 -192 443 -139 478 -156 b 326 -258 478 -229 443 -250 z "},"Ǧ":{"ha":833,"x_min":0,"x_max":0,"o":"m 468 -17 b 740 89 586 -17 683 31 l 740 472 l 451 472 l 451 376 l 633 376 l 633 139 b 475 85 599 106 539 85 b 194 458 296 85 194 229 b 478 826 194 685 307 826 b 664 743 565 826 619 790 l 729 817 b 478 928 678 871 599 928 b 74 456 242 928 74 750 b 468 -17 74 158 239 -17 z m 399 981 l 518 981 l 664 1138 l 614 1174 l 461 1046 l 456 1046 l 303 1174 l 253 1138 z "},"Ḡ":{"ha":833,"x_min":0,"x_max":0,"o":"m 468 -17 b 740 89 586 -17 683 31 l 740 472 l 451 472 l 451 376 l 633 376 l 633 139 b 475 85 599 106 539 85 b 194 458 296 85 194 229 b 478 826 194 685 307 826 b 664 743 565 826 619 790 l 729 817 b 478 928 678 871 599 928 b 74 456 242 928 74 750 b 468 -17 74 158 239 -17 z m 272 1021 l 644 1021 l 644 1100 l 272 1100 z "},"Ɠ":{"ha":833,"x_min":0,"x_max":0,"o":"m 729 817 b 674 949 693 869 674 899 b 749 1024 674 990 701 1024 b 796 1011 768 1024 781 1017 l 818 1099 b 731 1117 796 1107 768 1117 b 576 971 639 1117 576 1057 b 586 911 576 950 579 931 b 478 928 554 921 518 928 b 74 456 242 928 74 750 b 468 -17 74 158 239 -17 b 740 89 586 -17 683 31 l 740 472 l 451 472 l 451 376 l 633 376 l 633 139 b 475 85 599 106 539 85 b 194 458 296 85 194 229 b 478 826 194 685 307 826 b 664 743 565 826 619 790 z "},"Ĥ":{"ha":833,"x_min":0,"x_max":0,"o":"m 110 0 l 226 0 l 226 429 l 607 429 l 607 0 l 724 0 l 724 911 l 607 911 l 607 529 l 226 529 l 226 911 l 110 911 z m 261 971 l 414 1100 l 419 1100 l 572 971 l 622 1007 l 476 1164 l 357 1164 l 211 1007 z "},"Ḧ":{"ha":833,"x_min":0,"x_max":0,"o":"m 110 0 l 226 0 l 226 429 l 607 429 l 607 0 l 724 0 l 724 911 l 607 911 l 607 529 l 226 529 l 226 911 l 110 911 z m 290 993 b 360 1064 331 993 360 1022 b 290 1133 360 1106 331 1133 b 219 1064 250 1133 219 1106 b 290 993 219 1022 250 993 z m 543 993 b 614 1064 583 993 614 1022 b 543 1133 614 1106 583 1133 b 474 1064 503 1133 474 1106 b 543 993 474 1022 503 993 z "},"Ḥ":{"ha":833,"x_min":0,"x_max":0,"o":"m 110 0 l 226 0 l 226 429 l 607 429 l 607 0 l 724 0 l 724 911 l 607 911 l 607 529 l 226 529 l 226 911 l 110 911 z m 417 -299 b 508 -210 468 -299 508 -264 b 417 -121 508 -157 468 -121 b 325 -210 365 -121 325 -157 b 417 -299 325 -264 365 -299 z "},"Ḩ":{"ha":833,"x_min":0,"x_max":0,"o":"m 110 0 l 133 0 l 82 -122 b 189 -189 161 -133 189 -153 b 38 -258 189 -229 154 -250 l 49 -314 b 278 -187 196 -307 278 -268 b 176 -89 278 -131 240 -104 l 208 0 l 226 0 l 226 429 l 607 429 l 607 0 l 724 0 l 724 911 l 607 911 l 607 529 l 226 529 l 226 911 l 110 911 z "},"Ḫ":{"ha":833,"x_min":0,"x_max":0,"o":"m 110 0 l 226 0 l 226 429 l 607 429 l 607 0 l 724 0 l 724 911 l 607 911 l 607 529 l 226 529 l 226 911 l 110 911 z m 417 -321 b 633 -111 565 -321 626 -214 l 563 -100 b 417 -244 551 -171 507 -244 b 271 -100 326 -244 282 -171 l 200 -111 b 417 -321 207 -214 268 -321 z "},"Ħ":{"ha":833,"x_min":0,"x_max":0,"o":"m 110 0 l 226 0 l 226 429 l 607 429 l 607 0 l 724 0 l 724 672 l 819 672 l 819 758 l 724 758 l 724 911 l 607 911 l 607 758 l 226 758 l 226 911 l 110 911 l 110 758 l 14 750 l 14 672 l 110 672 z m 226 529 l 226 672 l 607 672 l 607 529 z "},"Ì":{"ha":833,"x_min":0,"x_max":0,"o":"m 132 0 l 701 0 l 701 99 l 475 99 l 475 814 l 701 814 l 701 911 l 132 911 l 132 814 l 358 814 l 358 99 l 132 99 z m 457 968 l 507 1026 l 311 1204 l 246 1128 z "},"Í":{"ha":833,"x_min":0,"x_max":0,"o":"m 132 0 l 701 0 l 701 99 l 475 99 l 475 814 l 701 814 l 701 911 l 132 911 l 132 814 l 358 814 l 358 99 l 132 99 z m 376 968 l 588 1128 l 522 1204 l 326 1026 z "},"Î":{"ha":833,"x_min":0,"x_max":0,"o":"m 132 0 l 701 0 l 701 99 l 475 99 l 475 814 l 701 814 l 701 911 l 132 911 l 132 814 l 358 814 l 358 99 l 132 99 z m 261 971 l 414 1100 l 419 1100 l 572 971 l 622 1007 l 476 1164 l 357 1164 l 211 1007 z "},"Ĩ":{"ha":833,"x_min":0,"x_max":0,"o":"m 132 0 l 701 0 l 701 99 l 475 99 l 475 814 l 701 814 l 701 911 l 132 911 l 132 814 l 358 814 l 358 99 l 132 99 z m 521 985 b 663 1156 604 985 657 1049 l 585 1161 b 518 1069 578 1101 553 1069 b 313 1168 453 1069 417 1168 b 171 997 229 1168 176 1103 l 249 992 b 315 1083 254 1051 281 1083 b 521 985 381 1083 417 985 z "},"Ï":{"ha":833,"x_min":0,"x_max":0,"o":"m 132 0 l 701 0 l 701 99 l 475 99 l 475 814 l 701 814 l 701 911 l 132 911 l 132 814 l 358 814 l 358 99 l 132 99 z m 290 993 b 360 1064 331 993 360 1022 b 290 1133 360 1106 331 1133 b 219 1064 250 1133 219 1106 b 290 993 219 1022 250 993 z m 543 993 b 614 1064 583 993 614 1022 b 543 1133 614 1106 583 1133 b 474 1064 503 1133 474 1106 b 543 993 474 1022 503 993 z "},"Ī":{"ha":833,"x_min":0,"x_max":0,"o":"m 132 0 l 701 0 l 701 99 l 475 99 l 475 814 l 701 814 l 701 911 l 132 911 l 132 814 l 358 814 l 358 99 l 132 99 z m 231 1021 l 603 1021 l 603 1100 l 231 1100 z "},"İ":{"ha":833,"x_min":0,"x_max":0,"o":"m 132 0 l 701 0 l 701 99 l 475 99 l 475 814 l 701 814 l 701 911 l 132 911 l 132 814 l 358 814 l 358 99 l 132 99 z m 417 992 b 499 1071 463 992 499 1024 b 417 1149 499 1117 463 1149 b 335 1071 371 1149 335 1117 b 417 992 335 1024 371 992 z "},"Ǐ":{"ha":833,"x_min":0,"x_max":0,"o":"m 132 0 l 701 0 l 701 99 l 475 99 l 475 814 l 701 814 l 701 911 l 132 911 l 132 814 l 358 814 l 358 99 l 132 99 z m 357 981 l 476 981 l 622 1138 l 572 1174 l 419 1046 l 414 1046 l 261 1174 l 211 1138 z "},"Į":{"ha":833,"x_min":0,"x_max":0,"o":"m 432 -312 b 558 -262 485 -312 526 -290 l 524 -203 b 454 -232 507 -218 485 -232 b 379 -161 417 -232 379 -210 b 482 0 379 -110 411 -53 l 701 0 l 701 99 l 475 99 l 475 814 l 701 814 l 701 911 l 132 911 l 132 814 l 358 814 l 358 99 l 132 99 l 132 0 l 388 0 b 289 -186 342 -44 289 -108 b 432 -312 289 -271 351 -312 z "},"Ỉ":{"ha":833,"x_min":0,"x_max":0,"o":"m 132 0 l 701 0 l 701 99 l 475 99 l 475 814 l 701 814 l 701 911 l 132 911 l 132 814 l 358 814 l 358 99 l 132 99 z m 372 969 b 526 1099 453 983 526 1018 b 335 1211 526 1169 456 1207 l 322 1144 b 438 1086 400 1142 438 1122 b 360 1022 438 1051 404 1035 z "},"Ị":{"ha":833,"x_min":0,"x_max":0,"o":"m 132 0 l 701 0 l 701 99 l 475 99 l 475 814 l 701 814 l 701 911 l 132 911 l 132 814 l 358 814 l 358 99 l 132 99 z m 417 -299 b 508 -210 468 -299 508 -264 b 417 -121 508 -157 468 -121 b 325 -210 365 -121 325 -157 b 417 -299 325 -264 365 -299 z "},"Ĭ":{"ha":833,"x_min":0,"x_max":0,"o":"m 132 0 l 701 0 l 701 99 l 475 99 l 475 814 l 701 814 l 701 911 l 132 911 l 132 814 l 358 814 l 358 99 l 132 99 z m 417 979 b 619 1158 546 979 608 1061 l 550 1169 b 417 1053 539 1104 496 1053 b 283 1169 338 1053 294 1104 l 214 1158 b 417 979 225 1061 288 979 z "},"Ĵ":{"ha":833,"x_min":0,"x_max":0,"o":"m 383 -17 b 685 292 610 -17 685 122 l 685 913 l 188 913 l 188 815 l 569 815 l 569 301 b 381 85 569 151 511 85 b 185 206 310 85 236 124 l 113 135 b 383 -17 175 31 282 -17 z m 294 971 l 447 1100 l 453 1100 l 606 971 l 656 1007 l 510 1164 l 390 1164 l 244 1007 z "},"Ķ":{"ha":833,"x_min":0,"x_max":0,"o":"m 136 0 l 253 0 l 253 290 l 410 478 l 675 0 l 806 0 l 483 565 l 772 911 l 640 911 l 257 454 l 253 454 l 253 911 l 136 911 z m 349 -314 b 578 -187 496 -307 578 -268 b 415 -81 578 -125 536 -94 l 390 -133 b 489 -192 454 -139 489 -156 b 338 -258 489 -229 454 -250 z "},"Ḳ":{"ha":833,"x_min":0,"x_max":0,"o":"m 136 0 l 253 0 l 253 290 l 410 478 l 675 0 l 806 0 l 483 565 l 772 911 l 640 911 l 257 454 l 253 454 l 253 911 l 136 911 z m 469 -299 b 561 -210 521 -299 561 -264 b 469 -121 561 -157 521 -121 b 378 -210 418 -121 378 -157 b 469 -299 378 -264 418 -299 z "},"Ḵ":{"ha":833,"x_min":0,"x_max":0,"o":"m 136 0 l 253 0 l 253 290 l 410 478 l 675 0 l 806 0 l 483 565 l 772 911 l 640 911 l 257 454 l 253 454 l 253 911 l 136 911 z m 285 -236 l 654 -236 l 654 -157 l 285 -157 z "},"Ĺ":{"ha":833,"x_min":0,"x_max":0,"o":"m 186 0 l 751 0 l 751 99 l 300 99 l 300 911 l 186 911 z m 222 968 l 433 1128 l 368 1204 l 172 1026 z "},"Ľ":{"ha":833,"x_min":0,"x_max":0,"o":"m 186 0 l 751 0 l 751 99 l 300 99 l 300 911 l 186 911 z m 531 714 l 610 714 l 629 974 l 629 1086 l 526 1086 z "},"Ļ":{"ha":833,"x_min":0,"x_max":0,"o":"m 186 0 l 751 0 l 751 99 l 300 99 l 300 911 l 186 911 z m 364 -314 b 593 -187 511 -307 593 -268 b 431 -81 593 -125 551 -94 l 406 -133 b 504 -192 469 -139 504 -156 b 353 -258 504 -229 469 -250 z "},"Ḷ":{"ha":833,"x_min":0,"x_max":0,"o":"m 186 0 l 751 0 l 751 99 l 300 99 l 300 911 l 186 911 z m 485 -299 b 576 -210 536 -299 576 -264 b 485 -121 576 -157 536 -121 b 393 -210 433 -121 393 -157 b 485 -299 393 -264 433 -299 z "},"Ḹ":{"ha":833,"x_min":0,"x_max":0,"o":"m 186 0 l 751 0 l 751 99 l 300 99 l 300 911 l 186 911 z m 76 1021 l 449 1021 l 449 1100 l 76 1100 z m 485 -299 b 576 -210 536 -299 576 -264 b 485 -121 576 -157 536 -121 b 393 -210 433 -121 393 -157 b 485 -299 393 -264 433 -299 z "},"Ḻ":{"ha":833,"x_min":0,"x_max":0,"o":"m 186 0 l 751 0 l 751 99 l 300 99 l 300 911 l 186 911 z m 300 -236 l 669 -236 l 669 -157 l 300 -157 z "},"Ł":{"ha":833,"x_min":0,"x_max":0,"o":"m 186 0 l 751 0 l 751 99 l 300 99 l 300 374 l 633 551 l 593 625 l 300 468 l 300 911 l 186 911 l 186 417 l 14 325 l 54 251 l 186 324 z "},"Ŀ":{"ha":833,"x_min":0,"x_max":0,"o":"m 186 0 l 751 0 l 751 99 l 300 99 l 300 911 l 186 911 z m 649 397 b 740 486 700 397 740 432 b 649 575 740 539 700 575 b 557 486 597 575 557 539 b 649 397 557 432 597 397 z "},"Ḿ":{"ha":833,"x_min":0,"x_max":0,"o":"m 100 0 l 208 0 l 208 456 b 189 778 208 544 197 700 l 192 778 l 244 600 l 372 242 l 456 242 l 586 600 l 638 778 l 642 778 b 622 456 636 700 622 544 l 622 0 l 733 0 l 733 911 l 592 911 l 463 522 l 419 375 l 414 375 l 369 522 l 242 911 l 100 911 z m 376 968 l 588 1128 l 522 1204 l 326 1026 z "},"Ṁ":{"ha":833,"x_min":0,"x_max":0,"o":"m 100 0 l 208 0 l 208 456 b 189 778 208 544 197 700 l 192 778 l 244 600 l 372 242 l 456 242 l 586 600 l 638 778 l 642 778 b 622 456 636 700 622 544 l 622 0 l 733 0 l 733 911 l 592 911 l 463 522 l 419 375 l 414 375 l 369 522 l 242 911 l 100 911 z m 417 992 b 499 1071 463 992 499 1024 b 417 1149 499 1117 463 1149 b 335 1071 371 1149 335 1117 b 417 992 335 1024 371 992 z "},"Ṃ":{"ha":833,"x_min":0,"x_max":0,"o":"m 100 0 l 208 0 l 208 456 b 189 778 208 544 197 700 l 192 778 l 244 600 l 372 242 l 456 242 l 586 600 l 638 778 l 642 778 b 622 456 636 700 622 544 l 622 0 l 733 0 l 733 911 l 592 911 l 463 522 l 419 375 l 414 375 l 369 522 l 242 911 l 100 911 z m 417 -299 b 508 -210 468 -299 508 -264 b 417 -121 508 -157 468 -121 b 325 -210 365 -121 325 -157 b 417 -299 325 -264 365 -299 z "},"Ń":{"ha":833,"x_min":0,"x_max":0,"o":"m 114 0 l 225 0 l 225 476 b 210 761 225 571 214 668 l 213 761 l 300 572 l 592 0 l 719 0 l 719 911 l 608 911 l 608 439 b 624 150 608 343 619 240 l 621 150 l 533 339 l 242 911 l 114 911 z m 390 968 l 601 1128 l 536 1204 l 340 1026 z "},"Ǹ":{"ha":833,"x_min":0,"x_max":0,"o":"m 114 0 l 225 0 l 225 476 b 210 761 225 571 214 668 l 213 761 l 300 572 l 592 0 l 719 0 l 719 911 l 608 911 l 608 439 b 624 150 608 343 619 240 l 621 150 l 533 339 l 242 911 l 114 911 z m 471 968 l 521 1026 l 325 1204 l 260 1128 z "},"Ň":{"ha":833,"x_min":0,"x_max":0,"o":"m 114 0 l 225 0 l 225 476 b 210 761 225 571 214 668 l 213 761 l 300 572 l 592 0 l 719 0 l 719 911 l 608 911 l 608 439 b 624 150 608 343 619 240 l 621 150 l 533 339 l 242 911 l 114 911 z m 371 981 l 490 981 l 636 1138 l 586 1174 l 433 1046 l 428 1046 l 275 1174 l 225 1138 z "},"Ñ":{"ha":833,"x_min":0,"x_max":0,"o":"m 114 0 l 225 0 l 225 476 b 210 761 225 571 214 668 l 213 761 l 300 572 l 592 0 l 719 0 l 719 911 l 608 911 l 608 439 b 624 150 608 343 619 240 l 621 150 l 533 339 l 242 911 l 114 911 z m 535 985 b 676 1156 618 985 671 1049 l 599 1161 b 532 1069 592 1101 567 1069 b 326 1168 467 1069 431 1168 b 185 997 243 1168 190 1103 l 263 992 b 329 1083 268 1051 294 1083 b 535 985 394 1083 431 985 z "},"Ņ":{"ha":833,"x_min":0,"x_max":0,"o":"m 114 0 l 225 0 l 225 476 b 210 761 225 571 214 668 l 213 761 l 300 572 l 592 0 l 719 0 l 719 911 l 608 911 l 608 439 b 624 150 608 343 619 240 l 621 150 l 533 339 l 242 911 l 114 911 z m 296 -314 b 525 -187 443 -307 525 -268 b 363 -81 525 -125 483 -94 l 338 -133 b 436 -192 401 -139 436 -156 b 285 -258 436 -229 401 -250 z "},"Ṅ":{"ha":833,"x_min":0,"x_max":0,"o":"m 114 0 l 225 0 l 225 476 b 210 761 225 571 214 668 l 213 761 l 300 572 l 592 0 l 719 0 l 719 911 l 608 911 l 608 439 b 624 150 608 343 619 240 l 621 150 l 533 339 l 242 911 l 114 911 z m 431 992 b 513 1071 476 992 513 1024 b 431 1149 513 1117 476 1149 b 349 1071 385 1149 349 1117 b 431 992 349 1024 385 992 z "},"Ṇ":{"ha":833,"x_min":0,"x_max":0,"o":"m 114 0 l 225 0 l 225 476 b 210 761 225 571 214 668 l 213 761 l 300 572 l 592 0 l 719 0 l 719 911 l 608 911 l 608 439 b 624 150 608 343 619 240 l 621 150 l 533 339 l 242 911 l 114 911 z m 417 -299 b 508 -210 468 -299 508 -264 b 417 -121 508 -157 468 -121 b 325 -210 365 -121 325 -157 b 417 -299 325 -264 365 -299 z "},"Ṉ":{"ha":833,"x_min":0,"x_max":0,"o":"m 114 0 l 225 0 l 225 476 b 210 761 225 571 214 668 l 213 761 l 300 572 l 592 0 l 719 0 l 719 911 l 608 911 l 608 439 b 624 150 608 343 619 240 l 621 150 l 533 339 l 242 911 l 114 911 z m 232 -236 l 601 -236 l 601 -157 l 232 -157 z "},"Ò":{"ha":833,"x_min":0,"x_max":0,"o":"m 417 -17 b 767 460 622 -17 767 161 b 417 928 767 754 622 928 b 67 460 211 928 67 754 b 417 -17 67 161 211 -17 z m 417 85 b 186 460 278 85 186 226 b 417 826 186 689 278 826 b 647 460 556 826 647 689 b 417 85 647 226 556 85 z m 457 968 l 507 1026 l 311 1204 l 246 1128 z "},"Ó":{"ha":833,"x_min":0,"x_max":0,"o":"m 417 -17 b 767 460 622 -17 767 161 b 417 928 767 754 622 928 b 67 460 211 928 67 754 b 417 -17 67 161 211 -17 z m 417 85 b 186 460 278 85 186 226 b 417 826 186 689 278 826 b 647 460 556 826 647 689 b 417 85 647 226 556 85 z m 376 968 l 588 1128 l 522 1204 l 326 1026 z "},"Ô":{"ha":833,"x_min":0,"x_max":0,"o":"m 417 -17 b 767 460 622 -17 767 161 b 417 928 767 754 622 928 b 67 460 211 928 67 754 b 417 -17 67 161 211 -17 z m 417 85 b 186 460 278 85 186 226 b 417 826 186 689 278 826 b 647 460 556 826 647 689 b 417 85 647 226 556 85 z m 261 971 l 414 1100 l 419 1100 l 572 971 l 622 1007 l 476 1164 l 357 1164 l 211 1007 z "},"Õ":{"ha":833,"x_min":0,"x_max":0,"o":"m 417 -17 b 767 460 622 -17 767 161 b 417 928 767 754 622 928 b 67 460 211 928 67 754 b 417 -17 67 161 211 -17 z m 417 85 b 186 460 278 85 186 226 b 417 826 186 689 278 826 b 647 460 556 826 647 689 b 417 85 647 226 556 85 z m 521 985 b 663 1156 604 985 657 1049 l 585 1161 b 518 1069 578 1101 553 1069 b 313 1168 453 1069 417 1168 b 171 997 229 1168 176 1103 l 249 992 b 315 1083 254 1051 281 1083 b 521 985 381 1083 417 985 z "},"Ö":{"ha":833,"x_min":0,"x_max":0,"o":"m 417 -17 b 767 460 622 -17 767 161 b 417 928 767 754 622 928 b 67 460 211 928 67 754 b 417 -17 67 161 211 -17 z m 417 85 b 186 460 278 85 186 226 b 417 826 186 689 278 826 b 647 460 556 826 647 689 b 417 85 647 226 556 85 z m 290 993 b 360 1064 331 993 360 1022 b 290 1133 360 1106 331 1133 b 219 1064 250 1133 219 1106 b 290 993 219 1022 250 993 z m 543 993 b 614 1064 583 993 614 1022 b 543 1133 614 1106 583 1133 b 474 1064 503 1133 474 1106 b 543 993 474 1022 503 993 z "},"Ō":{"ha":833,"x_min":0,"x_max":0,"o":"m 417 -17 b 767 460 622 -17 767 161 b 417 928 767 754 622 928 b 67 460 211 928 67 754 b 417 -17 67 161 211 -17 z m 417 85 b 186 460 278 85 186 226 b 417 826 186 689 278 826 b 647 460 556 826 647 689 b 417 85 647 226 556 85 z m 231 1021 l 603 1021 l 603 1100 l 231 1100 z "},"Ő":{"ha":833,"x_min":0,"x_max":0,"o":"m 417 -17 b 767 460 622 -17 767 161 b 417 928 767 754 622 928 b 67 460 211 928 67 754 b 417 -17 67 161 211 -17 z m 417 85 b 186 460 278 85 186 226 b 417 826 186 689 278 826 b 647 460 556 826 647 689 b 417 85 647 226 556 85 z m 317 976 l 464 1172 l 385 1217 l 257 1006 z m 539 976 l 686 1172 l 608 1217 l 479 1006 z "},"Ŏ":{"ha":833,"x_min":0,"x_max":0,"o":"m 417 -17 b 767 460 622 -17 767 161 b 417 928 767 754 622 928 b 67 460 211 928 67 754 b 417 -17 67 161 211 -17 z m 417 85 b 186 460 278 85 186 226 b 417 826 186 689 278 826 b 647 460 556 826 647 689 b 417 85 647 226 556 85 z m 417 979 b 619 1158 546 979 608 1061 l 550 1169 b 417 1053 539 1104 496 1053 b 283 1169 338 1053 294 1104 l 214 1158 b 417 979 225 1061 288 979 z "},"Ǒ":{"ha":833,"x_min":0,"x_max":0,"o":"m 417 -17 b 767 460 622 -17 767 161 b 417 928 767 754 622 928 b 67 460 211 928 67 754 b 417 -17 67 161 211 -17 z m 417 85 b 186 460 278 85 186 226 b 417 826 186 689 278 826 b 647 460 556 826 647 689 b 417 85 647 226 556 85 z m 357 981 l 476 981 l 622 1138 l 572 1174 l 419 1046 l 414 1046 l 261 1174 l 211 1138 z "},"Ǫ":{"ha":833,"x_min":0,"x_max":0,"o":"m 442 -312 b 568 -262 494 -312 536 -290 l 533 -203 b 464 -232 515 -218 493 -232 b 388 -161 425 -232 388 -210 b 515 -3 388 -104 431 -39 b 767 460 676 65 767 217 b 417 928 767 750 622 928 b 67 460 211 928 67 751 b 397 -15 67 199 182 1 b 299 -186 346 -58 299 -112 b 442 -312 299 -271 360 -312 z m 417 83 b 186 460 278 83 186 221 b 417 826 186 689 278 826 b 647 460 556 826 647 689 b 417 83 647 221 556 83 z "},"Ọ":{"ha":833,"x_min":0,"x_max":0,"o":"m 417 -17 b 767 460 622 -17 767 161 b 417 928 767 754 622 928 b 67 460 211 928 67 754 b 417 -17 67 161 211 -17 z m 417 85 b 186 460 278 85 186 226 b 417 826 186 689 278 826 b 647 460 556 826 647 689 b 417 85 647 226 556 85 z m 417 -299 b 508 -210 468 -299 508 -264 b 417 -121 508 -157 468 -121 b 325 -210 365 -121 325 -157 b 417 -299 325 -264 365 -299 z "},"Ỏ":{"ha":833,"x_min":0,"x_max":0,"o":"m 417 -17 b 767 460 622 -17 767 161 b 417 928 767 754 622 928 b 67 460 211 928 67 754 b 417 -17 67 161 211 -17 z m 417 85 b 186 460 278 85 186 226 b 417 826 186 689 278 826 b 647 460 556 826 647 689 b 417 85 647 226 556 85 z m 372 969 b 526 1099 453 983 526 1018 b 335 1211 526 1169 456 1207 l 322 1144 b 438 1086 400 1142 438 1122 b 360 1022 438 1051 404 1035 z "},"Ố":{"ha":833,"x_min":0,"x_max":0,"o":"m 417 -17 b 767 460 622 -17 767 161 b 417 928 767 754 622 928 b 67 460 211 928 67 754 b 417 -17 67 161 211 -17 z m 417 85 b 186 460 278 85 186 226 b 417 826 186 689 278 826 b 647 460 556 826 647 689 b 417 85 647 226 556 85 z m 285 971 l 414 1067 l 419 1067 l 549 971 l 596 1007 l 467 1132 l 367 1132 l 238 1007 z m 585 1060 l 726 1179 l 678 1233 l 543 1104 z "},"Ồ":{"ha":833,"x_min":0,"x_max":0,"o":"m 417 -17 b 767 460 622 -17 767 161 b 417 928 767 754 622 928 b 67 460 211 928 67 754 b 417 -17 67 161 211 -17 z m 417 85 b 186 460 278 85 186 226 b 417 826 186 689 278 826 b 647 460 556 826 647 689 b 417 85 647 226 556 85 z m 285 971 l 414 1067 l 419 1067 l 549 971 l 596 1007 l 467 1132 l 367 1132 l 238 1007 z m 249 1060 l 290 1101 l 172 1233 l 124 1182 z "},"Ổ":{"ha":833,"x_min":0,"x_max":0,"o":"m 417 -17 b 767 460 622 -17 767 161 b 417 928 767 754 622 928 b 67 460 211 928 67 754 b 417 -17 67 161 211 -17 z m 417 85 b 186 460 278 85 186 226 b 417 826 186 689 278 826 b 647 460 556 826 647 689 b 417 85 647 226 556 85 z m 285 971 l 414 1067 l 419 1067 l 549 971 l 596 1007 l 467 1132 l 367 1132 l 238 1007 z m 576 1047 b 704 1157 643 1058 704 1086 b 538 1258 704 1221 646 1254 l 525 1200 b 624 1146 594 1196 624 1182 b 561 1096 624 1117 596 1104 z "},"Ỗ":{"ha":833,"x_min":0,"x_max":0,"o":"m 417 -17 b 767 460 622 -17 767 161 b 417 928 767 754 622 928 b 67 460 211 928 67 754 b 417 -17 67 161 211 -17 z m 417 85 b 186 460 278 85 186 226 b 417 826 186 689 278 826 b 647 460 556 826 647 689 b 417 85 647 226 556 85 z m 285 971 l 414 1063 l 419 1063 l 549 971 l 596 1007 l 467 1128 l 367 1128 l 238 1007 z m 508 1165 b 618 1293 583 1165 614 1221 l 556 1300 b 503 1236 550 1260 536 1236 b 325 1304 446 1236 414 1304 b 215 1178 250 1304 219 1249 l 278 1171 b 331 1235 283 1211 297 1235 b 508 1165 388 1235 419 1165 z "},"Ộ":{"ha":833,"x_min":0,"x_max":0,"o":"m 417 -17 b 767 460 622 -17 767 161 b 417 928 767 754 622 928 b 67 460 211 928 67 754 b 417 -17 67 161 211 -17 z m 417 85 b 186 460 278 85 186 226 b 417 826 186 689 278 826 b 647 460 556 826 647 689 b 417 85 647 226 556 85 z m 261 971 l 414 1100 l 419 1100 l 572 971 l 622 1007 l 476 1164 l 357 1164 l 211 1007 z m 417 -299 b 508 -210 468 -299 508 -264 b 417 -121 508 -157 468 -121 b 325 -210 365 -121 325 -157 b 417 -299 325 -264 365 -299 z "},"Ơ":{"ha":833,"x_min":0,"x_max":0,"o":"m 417 -17 b 767 460 622 -17 767 161 b 636 842 767 632 718 763 b 781 1017 725 864 781 922 b 749 1129 781 1058 768 1099 l 658 1089 b 679 1008 671 1067 679 1036 b 571 889 679 944 644 904 b 417 928 525 915 474 928 b 67 460 211 928 67 754 b 417 -17 67 161 211 -17 z m 417 85 b 186 460 278 85 186 226 b 417 826 186 689 278 826 b 647 460 556 826 647 689 b 417 85 647 226 556 85 z "},"Ớ":{"ha":833,"x_min":0,"x_max":0,"o":"m 417 -17 b 767 460 622 -17 767 161 b 636 842 767 632 718 763 b 781 1017 725 864 781 922 b 749 1129 781 1058 768 1099 l 658 1089 b 679 1008 671 1067 679 1036 b 571 889 679 944 644 904 b 417 928 525 915 474 928 b 67 460 211 928 67 754 b 417 -17 67 161 211 -17 z m 417 85 b 186 460 278 85 186 226 b 417 826 186 689 278 826 b 647 460 556 826 647 689 b 417 85 647 226 556 85 z m 376 968 l 588 1128 l 522 1204 l 326 1026 z "},"Ờ":{"ha":833,"x_min":0,"x_max":0,"o":"m 417 -17 b 767 460 622 -17 767 161 b 636 842 767 632 718 763 b 781 1017 725 864 781 922 b 749 1129 781 1058 768 1099 l 658 1089 b 679 1008 671 1067 679 1036 b 571 889 679 944 644 904 b 417 928 525 915 474 928 b 67 460 211 928 67 754 b 417 -17 67 161 211 -17 z m 417 85 b 186 460 278 85 186 226 b 417 826 186 689 278 826 b 647 460 556 826 647 689 b 417 85 647 226 556 85 z m 457 968 l 507 1026 l 311 1204 l 246 1128 z "},"Ở":{"ha":833,"x_min":0,"x_max":0,"o":"m 417 -17 b 767 460 622 -17 767 161 b 636 842 767 632 718 763 b 781 1017 725 864 781 922 b 749 1129 781 1058 768 1099 l 658 1089 b 679 1008 671 1067 679 1036 b 571 889 679 944 644 904 b 417 928 525 915 474 928 b 67 460 211 928 67 754 b 417 -17 67 161 211 -17 z m 372 969 b 526 1099 453 983 526 1018 b 335 1211 526 1169 456 1207 l 322 1144 b 438 1086 400 1142 438 1122 b 360 1022 438 1051 404 1035 z m 417 85 b 186 460 278 85 186 226 b 417 826 186 689 278 826 b 647 460 556 826 647 689 b 417 85 647 226 556 85 z "},"Ỡ":{"ha":833,"x_min":0,"x_max":0,"o":"m 417 -17 b 767 460 622 -17 767 161 b 636 842 767 632 718 763 b 781 1017 725 864 781 922 b 749 1129 781 1058 768 1099 l 658 1089 b 679 1008 671 1067 679 1036 b 571 889 679 944 644 904 b 417 928 525 915 474 928 b 67 460 211 928 67 754 b 417 -17 67 161 211 -17 z m 417 85 b 186 460 278 85 186 226 b 417 826 186 689 278 826 b 647 460 556 826 647 689 b 417 85 647 226 556 85 z m 493 985 b 635 1156 576 985 629 1049 l 557 1161 b 490 1069 550 1101 525 1069 b 285 1168 425 1069 389 1168 b 143 997 201 1168 149 1103 l 221 992 b 288 1083 226 1051 253 1083 b 493 985 353 1083 389 985 z "},"Ợ":{"ha":833,"x_min":0,"x_max":0,"o":"m 417 -17 b 767 460 622 -17 767 161 b 636 842 767 632 718 763 b 781 1017 725 864 781 922 b 749 1129 781 1058 768 1099 l 658 1089 b 679 1008 671 1067 679 1036 b 571 889 679 944 644 904 b 417 928 525 915 474 928 b 67 460 211 928 67 754 b 417 -17 67 161 211 -17 z m 417 -299 b 508 -210 468 -299 508 -264 b 417 -121 508 -157 468 -121 b 325 -210 365 -121 325 -157 b 417 -299 325 -264 365 -299 z m 417 85 b 186 460 278 85 186 226 b 417 826 186 689 278 826 b 647 460 556 826 647 689 b 417 85 647 226 556 85 z "},"Ṓ":{"ha":833,"x_min":0,"x_max":0,"o":"m 417 -17 b 767 460 622 -17 767 161 b 417 928 767 754 622 928 b 67 460 211 928 67 754 b 417 -17 67 161 211 -17 z m 417 85 b 186 460 278 85 186 226 b 417 826 186 689 278 826 b 647 460 556 826 647 689 b 417 85 647 226 556 85 z m 231 1021 l 603 1021 l 603 1100 l 231 1100 z m 392 1149 l 571 1278 l 517 1344 l 349 1201 z "},"Ø":{"ha":833,"x_min":0,"x_max":0,"o":"m 50 6 l 128 -44 l 203 67 b 417 -17 261 13 333 -17 b 767 460 622 -17 767 161 b 689 775 767 590 739 697 l 778 906 l 700 956 l 628 849 b 417 928 569 900 499 928 b 67 460 211 928 67 754 b 143 142 67 329 94 221 z m 186 460 b 417 826 186 689 278 826 b 564 757 475 826 525 801 l 218 251 b 186 460 197 308 186 378 z m 417 85 b 267 160 357 85 306 111 l 614 667 b 647 460 636 611 647 542 b 417 85 647 226 556 85 z "},"Ǿ":{"ha":833,"x_min":0,"x_max":0,"o":"m 50 6 l 128 -44 l 203 67 b 417 -17 261 13 333 -17 b 767 460 622 -17 767 161 b 689 775 767 590 739 697 l 778 906 l 700 956 l 628 849 b 417 928 569 900 499 928 b 67 460 211 928 67 754 b 143 142 67 329 94 221 z m 376 968 l 588 1128 l 522 1204 l 326 1026 z m 186 460 b 417 826 186 689 278 826 b 564 757 475 826 525 801 l 218 251 b 186 460 197 308 186 378 z m 417 85 b 267 160 357 85 306 111 l 614 667 b 647 460 636 611 647 542 b 417 85 647 226 556 85 z "},"Œ":{"ha":833,"x_min":0,"x_max":0,"o":"m 411 0 l 821 0 l 821 99 l 538 99 l 538 429 l 743 429 l 743 528 l 538 528 l 538 815 l 807 815 l 807 913 l 415 913 b 46 460 185 913 46 749 b 411 0 46 169 182 0 z m 401 94 b 165 460 243 94 165 228 b 401 817 165 690 243 817 l 432 817 l 432 94 z "},"Ŕ":{"ha":833,"x_min":0,"x_max":0,"o":"m 139 0 l 254 0 l 254 385 l 417 385 l 636 0 l 768 0 l 536 397 b 740 656 660 429 740 514 b 422 911 740 844 607 911 l 139 911 z m 254 479 l 254 818 l 406 818 b 625 656 547 818 625 775 b 406 479 625 538 547 479 z m 382 968 l 593 1128 l 528 1204 l 332 1026 z "},"Ř":{"ha":833,"x_min":0,"x_max":0,"o":"m 139 0 l 254 0 l 254 385 l 417 385 l 636 0 l 768 0 l 536 397 b 740 656 660 429 740 514 b 422 911 740 844 607 911 l 139 911 z m 254 479 l 254 818 l 406 818 b 625 656 547 818 625 775 b 406 479 625 538 547 479 z m 363 981 l 482 981 l 628 1138 l 578 1174 l 425 1046 l 419 1046 l 267 1174 l 217 1138 z "},"Ṙ":{"ha":833,"x_min":0,"x_max":0,"o":"m 139 0 l 254 0 l 254 385 l 417 385 l 636 0 l 768 0 l 536 397 b 740 656 660 429 740 514 b 422 911 740 844 607 911 l 139 911 z m 254 479 l 254 818 l 406 818 b 625 656 547 818 625 775 b 406 479 625 538 547 479 z m 422 992 b 504 1071 468 992 504 1024 b 422 1149 504 1117 468 1149 b 340 1071 376 1149 340 1117 b 422 992 340 1024 376 992 z "},"Ŗ":{"ha":833,"x_min":0,"x_max":0,"o":"m 254 479 l 254 818 l 406 818 b 625 656 547 818 625 775 b 406 479 625 538 547 479 z m 324 -314 b 553 -187 471 -307 553 -268 b 390 -81 553 -125 511 -94 l 365 -133 b 464 -192 429 -139 464 -156 b 313 -258 464 -229 429 -250 z m 139 0 l 254 0 l 254 385 l 417 385 l 636 0 l 768 0 l 536 397 b 740 656 660 429 740 514 b 422 911 740 844 607 911 l 139 911 z "},"Ṛ":{"ha":833,"x_min":0,"x_max":0,"o":"m 139 0 l 254 0 l 254 385 l 417 385 l 636 0 l 768 0 l 536 397 b 740 656 660 429 740 514 b 422 911 740 844 607 911 l 139 911 z m 254 479 l 254 818 l 406 818 b 625 656 547 818 625 775 b 406 479 625 538 547 479 z m 444 -299 b 536 -210 496 -299 536 -264 b 444 -121 536 -157 496 -121 b 353 -210 393 -121 353 -157 b 444 -299 353 -264 393 -299 z "},"Ṝ":{"ha":833,"x_min":0,"x_max":0,"o":"m 139 0 l 254 0 l 254 385 l 417 385 l 636 0 l 768 0 l 536 397 b 740 656 660 429 740 514 b 422 911 740 844 607 911 l 139 911 z m 254 479 l 254 818 l 406 818 b 625 656 547 818 625 775 b 406 479 625 538 547 479 z m 236 1021 l 608 1021 l 608 1100 l 236 1100 z m 444 -299 b 536 -210 496 -299 536 -264 b 444 -121 536 -157 496 -121 b 353 -210 393 -121 353 -157 b 444 -299 353 -264 393 -299 z "},"Ṟ":{"ha":833,"x_min":0,"x_max":0,"o":"m 139 0 l 254 0 l 254 385 l 417 385 l 636 0 l 768 0 l 536 397 b 740 656 660 429 740 514 b 422 911 740 844 607 911 l 139 911 z m 254 479 l 254 818 l 406 818 b 625 656 547 818 625 775 b 406 479 625 538 547 479 z m 260 -236 l 629 -236 l 629 -157 l 260 -157 z "},"Ś":{"ha":833,"x_min":0,"x_max":0,"o":"m 424 -17 b 746 243 624 -17 746 99 b 544 486 746 378 657 440 l 417 542 b 254 693 339 574 254 606 b 431 826 254 775 325 826 b 654 740 525 826 594 793 l 715 815 b 435 928 649 882 549 928 b 136 686 261 928 136 825 b 333 451 136 553 242 488 l 464 394 b 628 229 557 354 628 326 b 429 85 628 144 554 85 b 163 199 325 85 231 131 l 93 118 b 424 -17 175 36 290 -17 z m 399 968 l 610 1128 l 544 1204 l 349 1026 z "},"Ŝ":{"ha":833,"x_min":0,"x_max":0,"o":"m 424 -17 b 746 243 624 -17 746 99 b 544 486 746 378 657 440 l 417 542 b 254 693 339 574 254 606 b 431 826 254 775 325 826 b 654 740 525 826 594 793 l 715 815 b 435 928 649 882 549 928 b 136 686 261 928 136 825 b 333 451 136 553 242 488 l 464 394 b 628 229 557 354 628 326 b 429 85 628 144 554 85 b 163 199 325 85 231 131 l 93 118 b 424 -17 175 36 290 -17 z m 283 971 l 436 1100 l 442 1100 l 594 971 l 644 1007 l 499 1164 l 379 1164 l 233 1007 z "},"Š":{"ha":833,"x_min":0,"x_max":0,"o":"m 424 -17 b 746 243 624 -17 746 99 b 544 486 746 378 657 440 l 417 542 b 254 693 339 574 254 606 b 431 826 254 775 325 826 b 654 740 525 826 594 793 l 715 815 b 435 928 649 882 549 928 b 136 686 261 928 136 825 b 333 451 136 553 242 488 l 464 394 b 628 229 557 354 628 326 b 429 85 628 144 554 85 b 163 199 325 85 231 131 l 93 118 b 424 -17 175 36 290 -17 z m 379 981 l 499 981 l 644 1138 l 594 1174 l 442 1046 l 436 1046 l 283 1174 l 233 1138 z "},"Ṧ":{"ha":833,"x_min":0,"x_max":0,"o":"m 424 -17 b 746 243 624 -17 746 99 b 544 486 746 378 657 440 l 417 542 b 254 693 339 574 254 606 b 431 826 254 775 325 826 b 654 740 525 826 594 793 l 715 815 b 435 928 649 882 549 928 b 136 686 261 928 136 825 b 333 451 136 553 242 488 l 464 394 b 628 229 557 354 628 326 b 429 85 628 144 554 85 b 163 199 325 85 231 131 l 93 118 b 424 -17 175 36 290 -17 z m 439 1140 b 511 1213 479 1140 511 1169 b 439 1285 511 1256 479 1285 b 367 1213 399 1285 367 1256 b 439 1140 367 1169 399 1140 z m 379 981 l 499 981 l 649 1132 l 610 1174 l 442 1046 l 436 1046 l 268 1174 l 229 1132 z "},"Ş":{"ha":833,"x_min":0,"x_max":0,"o":"m 322 -314 b 551 -187 469 -307 551 -268 b 450 -89 551 -131 514 -104 l 478 -14 b 746 243 646 6 746 113 b 544 486 746 378 657 440 l 417 542 b 254 693 339 574 254 606 b 431 826 254 775 325 826 b 654 740 525 826 594 793 l 715 815 b 435 928 649 882 549 928 b 136 686 261 928 136 825 b 333 451 136 553 242 488 l 464 394 b 628 229 557 354 628 326 b 429 85 628 144 554 85 b 163 199 325 85 231 131 l 93 118 b 400 -17 169 42 276 -10 l 356 -122 b 463 -189 435 -133 463 -153 b 311 -258 463 -229 428 -250 z "},"Ș":{"ha":833,"x_min":0,"x_max":0,"o":"m 424 -17 b 746 243 624 -17 746 99 b 544 486 746 378 657 440 l 417 542 b 254 693 339 574 254 606 b 431 826 254 775 325 826 b 654 740 525 826 594 793 l 715 815 b 435 928 649 882 549 928 b 136 686 261 928 136 825 b 333 451 136 553 242 488 l 464 394 b 628 229 557 354 628 326 b 429 85 628 144 554 85 b 163 199 325 85 231 131 l 93 118 b 424 -17 175 36 290 -17 z m 314 -314 b 543 -187 461 -307 543 -268 b 381 -81 543 -125 501 -94 l 356 -133 b 454 -192 419 -139 454 -156 b 303 -258 454 -229 419 -250 z "},"Ṡ":{"ha":833,"x_min":0,"x_max":0,"o":"m 424 -17 b 746 243 624 -17 746 99 b 544 486 746 378 657 440 l 417 542 b 254 693 339 574 254 606 b 431 826 254 775 325 826 b 654 740 525 826 594 793 l 715 815 b 435 928 649 882 549 928 b 136 686 261 928 136 825 b 333 451 136 553 242 488 l 464 394 b 628 229 557 354 628 326 b 429 85 628 144 554 85 b 163 199 325 85 231 131 l 93 118 b 424 -17 175 36 290 -17 z m 439 992 b 521 1071 485 992 521 1024 b 439 1149 521 1117 485 1149 b 357 1071 393 1149 357 1117 b 439 992 357 1024 393 992 z "},"Ṣ":{"ha":833,"x_min":0,"x_max":0,"o":"m 424 -17 b 746 243 624 -17 746 99 b 544 486 746 378 657 440 l 417 542 b 254 693 339 574 254 606 b 431 826 254 775 325 826 b 654 740 525 826 594 793 l 715 815 b 435 928 649 882 549 928 b 136 686 261 928 136 825 b 333 451 136 553 242 488 l 464 394 b 628 229 557 354 628 326 b 429 85 628 144 554 85 b 163 199 325 85 231 131 l 93 118 b 424 -17 175 36 290 -17 z m 435 -299 b 526 -210 486 -299 526 -264 b 435 -121 526 -157 486 -121 b 343 -210 383 -121 343 -157 b 435 -299 343 -264 383 -299 z "},"ẞ":{"ha":833,"x_min":0,"x_max":0,"o":"m 542 -17 b 790 232 697 -17 790 90 b 547 504 790 358 731 449 l 715 714 b 424 928 671 843 578 928 b 108 594 229 928 108 799 l 108 0 l 225 0 l 225 574 b 424 832 225 750 304 832 b 594 719 503 832 563 796 l 422 506 l 431 431 b 669 232 621 394 669 321 b 532 81 669 144 617 81 b 374 158 467 81 419 106 l 318 85 b 542 -17 369 21 451 -17 z "},"Ť":{"ha":833,"x_min":0,"x_max":0,"o":"m 358 0 l 475 0 l 475 814 l 775 814 l 775 911 l 58 911 l 58 814 l 358 814 z m 357 981 l 476 981 l 622 1138 l 572 1174 l 419 1046 l 414 1046 l 261 1174 l 211 1138 z "},"Ţ":{"ha":833,"x_min":0,"x_max":0,"o":"m 358 0 l 381 0 l 329 -122 b 436 -189 408 -133 436 -153 b 285 -258 436 -229 401 -250 l 296 -314 b 525 -187 443 -307 525 -268 b 424 -89 525 -131 488 -104 l 456 0 l 475 0 l 475 814 l 775 814 l 775 911 l 58 911 l 58 814 l 358 814 z "},"Ț":{"ha":833,"x_min":0,"x_max":0,"o":"m 358 0 l 475 0 l 475 814 l 775 814 l 775 911 l 58 911 l 58 814 l 358 814 z m 296 -314 b 525 -187 443 -307 525 -268 b 363 -81 525 -125 483 -94 l 338 -133 b 436 -192 401 -139 436 -156 b 285 -258 436 -229 401 -250 z "},"Ṭ":{"ha":833,"x_min":0,"x_max":0,"o":"m 358 0 l 475 0 l 475 814 l 775 814 l 775 911 l 58 911 l 58 814 l 358 814 z m 417 -299 b 508 -210 468 -299 508 -264 b 417 -121 508 -157 468 -121 b 325 -210 365 -121 325 -157 b 417 -299 325 -264 365 -299 z "},"Ṯ":{"ha":833,"x_min":0,"x_max":0,"o":"m 358 0 l 475 0 l 475 814 l 775 814 l 775 911 l 58 911 l 58 814 l 358 814 z m 232 -236 l 601 -236 l 601 -157 l 232 -157 z "},"Ŧ":{"ha":833,"x_min":0,"x_max":0,"o":"m 358 0 l 475 0 l 475 425 l 672 425 l 672 511 l 475 511 l 475 814 l 775 814 l 775 911 l 58 911 l 58 814 l 358 814 l 358 511 l 286 511 l 161 506 l 161 425 l 358 425 z "},"Ù":{"ha":833,"x_min":0,"x_max":0,"o":"m 418 -17 b 724 344 596 -17 724 83 l 724 911 l 611 911 l 611 342 b 418 85 611 153 528 85 b 226 342 308 85 226 153 l 226 911 l 110 911 l 110 344 b 418 -17 110 83 239 -17 z m 457 968 l 507 1026 l 311 1204 l 246 1128 z "},"Ú":{"ha":833,"x_min":0,"x_max":0,"o":"m 418 -17 b 724 344 596 -17 724 83 l 724 911 l 611 911 l 611 342 b 418 85 611 153 528 85 b 226 342 308 85 226 153 l 226 911 l 110 911 l 110 344 b 418 -17 110 83 239 -17 z m 376 968 l 588 1128 l 522 1204 l 326 1026 z "},"Û":{"ha":833,"x_min":0,"x_max":0,"o":"m 418 -17 b 724 344 596 -17 724 83 l 724 911 l 611 911 l 611 342 b 418 85 611 153 528 85 b 226 342 308 85 226 153 l 226 911 l 110 911 l 110 344 b 418 -17 110 83 239 -17 z m 261 971 l 414 1100 l 419 1100 l 572 971 l 622 1007 l 476 1164 l 357 1164 l 211 1007 z "},"Ũ":{"ha":833,"x_min":0,"x_max":0,"o":"m 418 -17 b 724 344 596 -17 724 83 l 724 911 l 611 911 l 611 342 b 418 85 611 153 528 85 b 226 342 308 85 226 153 l 226 911 l 110 911 l 110 344 b 418 -17 110 83 239 -17 z m 521 985 b 663 1156 604 985 657 1049 l 585 1161 b 518 1069 578 1101 553 1069 b 313 1168 453 1069 417 1168 b 171 997 229 1168 176 1103 l 249 992 b 315 1083 254 1051 281 1083 b 521 985 381 1083 417 985 z "},"Ü":{"ha":833,"x_min":0,"x_max":0,"o":"m 418 -17 b 724 344 596 -17 724 83 l 724 911 l 611 911 l 611 342 b 418 85 611 153 528 85 b 226 342 308 85 226 153 l 226 911 l 110 911 l 110 344 b 418 -17 110 83 239 -17 z m 290 993 b 360 1064 331 993 360 1022 b 290 1133 360 1106 331 1133 b 219 1064 250 1133 219 1106 b 290 993 219 1022 250 993 z m 543 993 b 614 1064 583 993 614 1022 b 543 1133 614 1106 583 1133 b 474 1064 503 1133 474 1106 b 543 993 474 1022 503 993 z "},"Ū":{"ha":833,"x_min":0,"x_max":0,"o":"m 418 -17 b 724 344 596 -17 724 83 l 724 911 l 611 911 l 611 342 b 418 85 611 153 528 85 b 226 342 308 85 226 153 l 226 911 l 110 911 l 110 344 b 418 -17 110 83 239 -17 z m 231 1021 l 603 1021 l 603 1100 l 231 1100 z "},"Ŭ":{"ha":833,"x_min":0,"x_max":0,"o":"m 418 -17 b 724 344 596 -17 724 83 l 724 911 l 611 911 l 611 342 b 418 85 611 153 528 85 b 226 342 308 85 226 153 l 226 911 l 110 911 l 110 344 b 418 -17 110 83 239 -17 z m 417 979 b 619 1158 546 979 608 1061 l 550 1169 b 417 1053 539 1104 496 1053 b 283 1169 338 1053 294 1104 l 214 1158 b 417 979 225 1061 288 979 z "},"Ů":{"ha":833,"x_min":0,"x_max":0,"o":"m 418 -17 b 724 344 596 -17 724 83 l 724 911 l 611 911 l 611 342 b 418 85 611 153 528 85 b 226 342 308 85 226 153 l 226 911 l 110 911 l 110 344 b 418 -17 110 83 239 -17 z m 417 971 b 551 1096 493 971 551 1021 b 417 1222 551 1172 493 1222 b 282 1096 339 1222 282 1172 b 417 971 282 1021 339 971 z m 417 1021 b 344 1096 376 1021 344 1047 b 417 1171 344 1143 376 1171 b 488 1096 454 1171 488 1143 b 417 1021 488 1047 454 1021 z "},"Ű":{"ha":833,"x_min":0,"x_max":0,"o":"m 418 -17 b 724 344 596 -17 724 83 l 724 911 l 611 911 l 611 342 b 418 85 611 153 528 85 b 226 342 308 85 226 153 l 226 911 l 110 911 l 110 344 b 418 -17 110 83 239 -17 z m 317 976 l 464 1172 l 385 1217 l 257 1006 z m 539 976 l 686 1172 l 608 1217 l 479 1006 z "},"Ǔ":{"ha":833,"x_min":0,"x_max":0,"o":"m 418 -17 b 724 344 596 -17 724 83 l 724 911 l 611 911 l 611 342 b 418 85 611 153 528 85 b 226 342 308 85 226 153 l 226 911 l 110 911 l 110 344 b 418 -17 110 83 239 -17 z m 357 981 l 476 981 l 622 1138 l 572 1174 l 419 1046 l 414 1046 l 261 1174 l 211 1138 z "},"Ų":{"ha":833,"x_min":0,"x_max":0,"o":"m 442 -312 b 568 -262 494 -312 536 -290 l 533 -203 b 464 -232 515 -218 493 -232 b 388 -161 425 -232 388 -210 b 532 0 388 -106 422 -44 b 724 344 657 50 724 149 l 724 911 l 611 911 l 611 342 b 417 85 611 153 526 85 b 226 342 307 85 226 153 l 226 911 l 110 911 l 110 344 b 392 -15 110 107 219 -6 b 299 -186 354 -49 299 -107 b 442 -312 299 -271 360 -312 z "},"Ǖ":{"ha":833,"x_min":0,"x_max":0,"o":"m 418 -17 b 724 344 596 -17 724 83 l 724 911 l 611 911 l 611 342 b 418 85 611 153 528 85 b 226 342 308 85 226 153 l 226 911 l 110 911 l 110 344 b 418 -17 110 83 239 -17 z m 274 993 b 338 1057 310 993 338 1019 b 274 1119 338 1093 310 1119 b 211 1057 238 1119 211 1093 b 274 993 211 1019 238 993 z m 560 993 b 622 1057 596 993 622 1019 b 560 1119 622 1093 596 1119 b 496 1057 524 1119 496 1093 b 560 993 496 1019 524 993 z m 231 1196 l 603 1196 l 603 1260 l 231 1260 z "},"Ǘ":{"ha":833,"x_min":0,"x_max":0,"o":"m 418 -17 b 724 344 596 -17 724 83 l 724 911 l 611 911 l 611 342 b 418 85 611 153 528 85 b 226 342 308 85 226 153 l 226 911 l 110 911 l 110 344 b 418 -17 110 83 239 -17 z m 274 993 b 338 1057 310 993 338 1019 b 274 1119 338 1093 310 1119 b 211 1057 238 1119 211 1093 b 274 993 211 1019 238 993 z m 560 993 b 622 1057 596 993 622 1019 b 560 1119 622 1093 596 1119 b 496 1057 524 1119 496 1093 b 560 993 496 1019 524 993 z m 415 1143 l 569 1294 l 496 1344 l 364 1179 z "},"Ǚ":{"ha":833,"x_min":0,"x_max":0,"o":"m 418 -17 b 724 344 596 -17 724 83 l 724 911 l 611 911 l 611 342 b 418 85 611 153 528 85 b 226 342 308 85 226 153 l 226 911 l 110 911 l 110 344 b 418 -17 110 83 239 -17 z m 274 993 b 338 1057 310 993 338 1019 b 274 1119 338 1093 310 1119 b 211 1057 238 1119 211 1093 b 274 993 211 1019 238 993 z m 560 993 b 622 1057 596 993 622 1019 b 560 1119 622 1093 596 1119 b 496 1057 524 1119 496 1093 b 560 993 496 1019 524 993 z m 367 1165 l 467 1165 l 604 1299 l 558 1336 l 419 1232 l 414 1232 l 275 1336 l 229 1299 z "},"Ǜ":{"ha":833,"x_min":0,"x_max":0,"o":"m 418 -17 b 724 344 596 -17 724 83 l 724 911 l 611 911 l 611 342 b 418 85 611 153 528 85 b 226 342 308 85 226 153 l 226 911 l 110 911 l 110 344 b 418 -17 110 83 239 -17 z m 274 993 b 338 1057 310 993 338 1019 b 274 1119 338 1093 310 1119 b 211 1057 238 1119 211 1093 b 274 993 211 1019 238 993 z m 560 993 b 622 1057 596 993 622 1019 b 560 1119 622 1093 596 1119 b 496 1057 524 1119 496 1093 b 560 993 496 1019 524 993 z m 418 1143 l 469 1179 l 338 1344 l 264 1294 z "},"Ụ":{"ha":833,"x_min":0,"x_max":0,"o":"m 418 -17 b 724 344 596 -17 724 83 l 724 911 l 611 911 l 611 342 b 418 85 611 153 528 85 b 226 342 308 85 226 153 l 226 911 l 110 911 l 110 344 b 418 -17 110 83 239 -17 z m 417 -299 b 508 -210 468 -299 508 -264 b 417 -121 508 -157 468 -121 b 325 -210 365 -121 325 -157 b 417 -299 325 -264 365 -299 z "},"Ủ":{"ha":833,"x_min":0,"x_max":0,"o":"m 418 -17 b 724 344 596 -17 724 83 l 724 911 l 611 911 l 611 342 b 418 85 611 153 528 85 b 226 342 308 85 226 153 l 226 911 l 110 911 l 110 344 b 418 -17 110 83 239 -17 z m 372 969 b 526 1099 453 983 526 1018 b 335 1211 526 1169 456 1207 l 322 1144 b 438 1086 400 1142 438 1122 b 360 1022 438 1051 404 1035 z "},"Ư":{"ha":833,"x_min":0,"x_max":0,"o":"m 418 -17 b 724 344 596 -17 724 83 l 724 861 b 875 1035 808 881 875 928 b 843 1146 875 1076 863 1115 l 753 1107 b 774 1026 765 1085 774 1054 b 657 911 774 949 732 921 l 611 911 l 611 342 b 418 85 611 153 528 85 b 226 342 308 85 226 153 l 226 911 l 110 911 l 110 344 b 418 -17 110 83 239 -17 z "},"Ứ":{"ha":833,"x_min":0,"x_max":0,"o":"m 418 -17 b 724 344 596 -17 724 83 l 724 861 b 875 1035 808 881 875 928 b 843 1146 875 1076 863 1115 l 753 1107 b 774 1026 765 1085 774 1054 b 657 911 774 949 732 921 l 611 911 l 611 342 b 418 85 611 153 528 85 b 226 342 308 85 226 153 l 226 911 l 110 911 l 110 344 b 418 -17 110 83 239 -17 z m 376 968 l 588 1128 l 522 1204 l 326 1026 z "},"Ừ":{"ha":833,"x_min":0,"x_max":0,"o":"m 418 -17 b 724 344 596 -17 724 83 l 724 861 b 875 1035 808 881 875 928 b 843 1146 875 1076 863 1115 l 753 1107 b 774 1026 765 1085 774 1054 b 657 911 774 949 732 921 l 611 911 l 611 342 b 418 85 611 153 528 85 b 226 342 308 85 226 153 l 226 911 l 110 911 l 110 344 b 418 -17 110 83 239 -17 z m 457 968 l 507 1026 l 311 1204 l 246 1128 z "},"Ử":{"ha":833,"x_min":0,"x_max":0,"o":"m 418 -17 b 724 344 596 -17 724 83 l 724 861 b 875 1035 808 881 875 928 b 843 1146 875 1076 863 1115 l 753 1107 b 774 1026 765 1085 774 1054 b 657 911 774 949 732 921 l 611 911 l 611 342 b 418 85 611 153 528 85 b 226 342 308 85 226 153 l 226 911 l 110 911 l 110 344 b 418 -17 110 83 239 -17 z m 372 969 b 526 1099 453 983 526 1018 b 335 1211 526 1169 456 1207 l 322 1144 b 438 1086 400 1142 438 1122 b 360 1022 438 1051 404 1035 z "},"Ữ":{"ha":833,"x_min":0,"x_max":0,"o":"m 418 -17 b 724 344 596 -17 724 83 l 724 861 b 875 1035 808 881 875 928 b 843 1146 875 1076 863 1115 l 753 1107 b 774 1026 765 1085 774 1054 b 657 911 774 949 732 921 l 611 911 l 611 342 b 418 85 611 153 528 85 b 226 342 308 85 226 153 l 226 911 l 110 911 l 110 344 b 418 -17 110 83 239 -17 z m 521 985 b 663 1156 604 985 657 1049 l 585 1161 b 518 1069 578 1101 553 1069 b 313 1168 453 1069 417 1168 b 171 997 229 1168 176 1103 l 249 992 b 315 1083 254 1051 281 1083 b 521 985 381 1083 417 985 z "},"Ự":{"ha":833,"x_min":0,"x_max":0,"o":"m 418 -17 b 724 344 596 -17 724 83 l 724 861 b 875 1035 808 881 875 928 b 843 1146 875 1076 863 1115 l 753 1107 b 774 1026 765 1085 774 1054 b 657 911 774 949 732 921 l 611 911 l 611 342 b 418 85 611 153 528 85 b 226 342 308 85 226 153 l 226 911 l 110 911 l 110 344 b 418 -17 110 83 239 -17 z m 417 -299 b 508 -210 468 -299 508 -264 b 417 -121 508 -157 468 -121 b 325 -210 365 -121 325 -157 b 417 -299 325 -264 365 -299 z "},"Ṿ":{"ha":833,"x_min":0,"x_max":0,"o":"m 350 0 l 485 0 l 774 911 l 656 911 l 510 419 b 422 118 479 311 456 225 l 417 118 b 329 419 383 225 361 311 l 182 911 l 60 911 z m 419 -299 b 511 -210 471 -299 511 -264 b 419 -121 511 -157 471 -121 b 328 -210 368 -121 328 -157 b 419 -299 328 -264 368 -299 z "},"Ẁ":{"ha":833,"x_min":0,"x_max":0,"o":"m 153 0 l 294 0 l 383 367 b 415 531 397 422 406 475 l 419 531 b 453 367 428 475 439 422 l 542 0 l 686 0 l 819 913 l 694 913 l 631 339 b 614 129 622 264 619 219 l 608 129 b 564 339 592 219 583 264 l 478 678 l 367 678 l 278 339 b 233 129 260 264 250 219 l 229 129 b 211 340 225 219 219 264 l 144 913 l 14 913 z m 457 968 l 507 1026 l 311 1204 l 246 1128 z "},"Ẃ":{"ha":833,"x_min":0,"x_max":0,"o":"m 153 0 l 294 0 l 383 367 b 415 531 397 422 406 475 l 419 531 b 453 367 428 475 439 422 l 542 0 l 686 0 l 819 913 l 694 913 l 631 339 b 614 129 622 264 619 219 l 608 129 b 564 339 592 219 583 264 l 478 678 l 367 678 l 278 339 b 233 129 260 264 250 219 l 229 129 b 211 340 225 219 219 264 l 144 913 l 14 913 z m 376 968 l 588 1128 l 522 1204 l 326 1026 z "},"Ŵ":{"ha":833,"x_min":0,"x_max":0,"o":"m 153 0 l 294 0 l 383 367 b 415 531 397 422 406 475 l 419 531 b 453 367 428 475 439 422 l 542 0 l 686 0 l 819 913 l 694 913 l 631 339 b 614 129 622 264 619 219 l 608 129 b 564 339 592 219 583 264 l 478 678 l 367 678 l 278 339 b 233 129 260 264 250 219 l 229 129 b 211 340 225 219 219 264 l 144 913 l 14 913 z m 261 971 l 414 1100 l 419 1100 l 572 971 l 622 1007 l 476 1164 l 357 1164 l 211 1007 z "},"Ẅ":{"ha":833,"x_min":0,"x_max":0,"o":"m 153 0 l 294 0 l 383 367 b 415 531 397 422 406 475 l 419 531 b 453 367 428 475 439 422 l 542 0 l 686 0 l 819 913 l 694 913 l 631 339 b 614 129 622 264 619 219 l 608 129 b 564 339 592 219 583 264 l 478 678 l 367 678 l 278 339 b 233 129 260 264 250 219 l 229 129 b 211 340 225 219 219 264 l 144 913 l 14 913 z m 290 993 b 360 1064 331 993 360 1022 b 290 1133 360 1106 331 1133 b 219 1064 250 1133 219 1106 b 290 993 219 1022 250 993 z m 543 993 b 614 1064 583 993 614 1022 b 543 1133 614 1106 583 1133 b 474 1064 503 1133 474 1106 b 543 993 474 1022 503 993 z "},"Ỳ":{"ha":833,"x_min":0,"x_max":0,"o":"m 358 0 l 475 0 l 475 325 l 781 911 l 661 911 l 529 642 b 422 428 494 571 458 501 l 417 428 b 313 640 379 501 347 571 l 175 911 l 53 911 l 358 325 z m 457 968 l 507 1026 l 311 1204 l 246 1128 z "},"Ý":{"ha":833,"x_min":0,"x_max":0,"o":"m 358 0 l 475 0 l 475 325 l 781 911 l 661 911 l 529 642 b 422 428 494 571 458 501 l 417 428 b 313 640 379 501 347 571 l 175 911 l 53 911 l 358 325 z m 376 968 l 588 1128 l 522 1204 l 326 1026 z "},"Ŷ":{"ha":833,"x_min":0,"x_max":0,"o":"m 358 0 l 475 0 l 475 325 l 781 911 l 661 911 l 529 642 b 422 428 494 571 458 501 l 417 428 b 313 640 379 501 347 571 l 175 911 l 53 911 l 358 325 z m 261 971 l 414 1100 l 419 1100 l 572 971 l 622 1007 l 476 1164 l 357 1164 l 211 1007 z "},"Ÿ":{"ha":833,"x_min":0,"x_max":0,"o":"m 358 0 l 475 0 l 475 325 l 781 911 l 661 911 l 529 642 b 422 428 494 571 458 501 l 417 428 b 313 640 379 501 347 571 l 175 911 l 53 911 l 358 325 z m 290 993 b 360 1064 331 993 360 1022 b 290 1133 360 1106 331 1133 b 219 1064 250 1133 219 1106 b 290 993 219 1022 250 993 z m 543 993 b 614 1064 583 993 614 1022 b 543 1133 614 1106 583 1133 b 474 1064 503 1133 474 1106 b 543 993 474 1022 503 993 z "},"Ẏ":{"ha":833,"x_min":0,"x_max":0,"o":"m 358 0 l 475 0 l 475 325 l 781 911 l 661 911 l 529 642 b 422 428 494 571 458 501 l 417 428 b 313 640 379 501 347 571 l 175 911 l 53 911 l 358 325 z m 417 992 b 499 1071 463 992 499 1024 b 417 1149 499 1117 463 1149 b 335 1071 371 1149 335 1117 b 417 992 335 1024 371 992 z "},"Ỵ":{"ha":833,"x_min":0,"x_max":0,"o":"m 358 0 l 475 0 l 475 325 l 781 911 l 661 911 l 529 642 b 422 428 494 571 458 501 l 417 428 b 313 640 379 501 347 571 l 175 911 l 53 911 l 358 325 z m 417 -299 b 508 -210 468 -299 508 -264 b 417 -121 508 -157 468 -121 b 325 -210 365 -121 325 -157 b 417 -299 325 -264 365 -299 z "},"Ỷ":{"ha":833,"x_min":0,"x_max":0,"o":"m 358 0 l 475 0 l 475 325 l 781 911 l 661 911 l 529 642 b 422 428 494 571 458 501 l 417 428 b 313 640 379 501 347 571 l 175 911 l 53 911 l 358 325 z m 372 969 b 526 1099 453 983 526 1018 b 335 1211 526 1169 456 1207 l 322 1144 b 438 1086 400 1142 438 1122 b 360 1022 438 1051 404 1035 z "},"Ỹ":{"ha":833,"x_min":0,"x_max":0,"o":"m 358 0 l 475 0 l 475 325 l 781 911 l 661 911 l 529 642 b 422 428 494 571 458 501 l 417 428 b 313 640 379 501 347 571 l 175 911 l 53 911 l 358 325 z m 521 985 b 663 1156 604 985 657 1049 l 585 1161 b 518 1069 578 1101 553 1069 b 313 1168 453 1069 417 1168 b 171 997 229 1168 176 1103 l 249 992 b 315 1083 254 1051 281 1083 b 521 985 381 1083 417 985 z "},"Ź":{"ha":833,"x_min":0,"x_max":0,"o":"m 90 0 l 749 0 l 749 99 l 232 99 l 742 843 l 742 913 l 135 913 l 135 815 l 599 815 l 90 69 z m 400 968 l 611 1128 l 546 1204 l 350 1026 z "},"Ž":{"ha":833,"x_min":0,"x_max":0,"o":"m 90 0 l 749 0 l 749 99 l 232 99 l 742 843 l 742 913 l 135 913 l 135 815 l 599 815 l 90 69 z m 381 981 l 500 981 l 646 1138 l 596 1174 l 443 1046 l 438 1046 l 285 1174 l 235 1138 z "},"Ż":{"ha":833,"x_min":0,"x_max":0,"o":"m 90 0 l 749 0 l 749 99 l 232 99 l 742 843 l 742 913 l 135 913 l 135 815 l 599 815 l 90 69 z m 440 992 b 522 1071 486 992 522 1024 b 440 1149 522 1117 486 1149 b 358 1071 394 1149 358 1117 b 440 992 358 1024 394 992 z "},"Ẑ":{"ha":833,"x_min":0,"x_max":0,"o":"m 90 0 l 749 0 l 749 99 l 232 99 l 742 843 l 742 913 l 135 913 l 135 815 l 599 815 l 90 69 z m 285 971 l 438 1100 l 443 1100 l 596 971 l 646 1007 l 500 1164 l 381 1164 l 235 1007 z "},"Ẓ":{"ha":833,"x_min":0,"x_max":0,"o":"m 90 0 l 749 0 l 749 99 l 232 99 l 742 843 l 742 913 l 135 913 l 135 815 l 599 815 l 90 69 z m 431 -299 b 522 -210 482 -299 522 -264 b 431 -121 522 -157 482 -121 b 339 -210 379 -121 339 -157 b 431 -299 339 -264 379 -299 z "},"Ẕ":{"ha":833,"x_min":0,"x_max":0,"o":"m 90 0 l 749 0 l 749 99 l 232 99 l 742 843 l 742 913 l 135 913 l 135 815 l 599 815 l 90 69 z m 246 -236 l 615 -236 l 615 -157 l 246 -157 z "},"Ð":{"ha":833,"x_min":0,"x_max":0,"o":"m 121 0 l 351 0 b 768 460 619 0 768 169 b 346 911 768 749 619 911 l 121 911 l 121 522 l 17 514 l 17 436 l 121 436 z m 236 94 l 236 436 l 436 436 l 436 522 l 236 522 l 236 817 l 338 817 b 647 460 544 817 647 689 b 338 94 647 229 544 94 z "},"Þ":{"ha":833,"x_min":0,"x_max":0,"o":"m 140 0 l 257 0 l 257 208 l 421 208 b 757 490 619 208 757 297 b 421 758 757 689 622 758 l 257 758 l 257 911 l 140 911 z m 257 303 l 257 664 l 406 664 b 642 490 563 664 642 621 b 406 303 642 360 565 303 z "},"Ə":{"ha":833,"x_min":0,"x_max":0,"o":"m 417 -17 b 764 458 622 -17 764 167 b 418 928 764 750 633 928 b 174 826 311 928 231 885 l 229 747 b 413 828 275 794 338 828 b 649 486 560 828 642 704 l 83 486 b 82 454 82 475 82 465 b 417 -17 82 171 213 -17 z m 417 83 b 196 397 290 83 210 188 l 647 397 b 417 83 632 192 544 83 z "},"Ŋ":{"ha":833,"x_min":0,"x_max":0,"o":"m 525 -17 b 763 465 675 -17 763 115 b 463 928 763 806 635 928 b 231 804 374 928 290 872 l 231 911 l 118 911 l 118 0 l 233 0 l 233 696 b 438 826 285 769 369 826 b 643 465 561 826 643 739 b 513 93 643 176 588 93 b 450 107 486 93 467 99 l 421 3 b 525 -17 446 -10 490 -17 z "},"Ĳ":{"ha":833,"x_min":0,"x_max":0,"o":"m 156 0 l 271 0 l 271 911 l 156 911 z m 488 -229 b 678 -4 625 -229 678 -142 l 678 911 l 563 911 l 563 0 b 475 -133 563 -82 544 -133 b 407 -119 451 -133 426 -126 l 385 -211 b 488 -229 410 -221 444 -229 z "},"à":{"ha":833,"x_min":0,"x_max":0,"o":"m 342 -17 b 608 92 438 -17 533 33 l 613 92 l 622 0 l 715 0 l 715 414 b 442 692 715 582 626 692 b 142 594 324 692 210 639 l 186 517 b 422 597 249 556 335 597 b 601 428 553 597 599 519 b 113 175 253 400 113 326 b 342 -17 113 54 215 -17 z m 372 75 b 224 183 294 75 224 107 b 601 353 224 272 313 329 l 601 175 b 372 75 525 111 449 75 z m 474 789 l 533 846 l 336 1079 l 256 1001 z "},"á":{"ha":833,"x_min":0,"x_max":0,"o":"m 342 -17 b 608 92 438 -17 533 33 l 613 92 l 622 0 l 715 0 l 715 414 b 442 692 715 582 626 692 b 142 594 324 692 210 639 l 186 517 b 422 597 249 556 335 597 b 601 428 553 597 599 519 b 113 175 253 400 113 326 b 342 -17 113 54 215 -17 z m 372 75 b 224 183 294 75 224 107 b 601 353 224 272 313 329 l 601 175 b 372 75 525 111 449 75 z m 415 789 l 633 1001 l 553 1079 l 356 846 z "},"â":{"ha":833,"x_min":0,"x_max":0,"o":"m 342 -17 b 608 92 438 -17 533 33 l 613 92 l 622 0 l 715 0 l 715 414 b 442 692 715 582 626 692 b 142 594 324 692 210 639 l 186 517 b 422 597 249 556 335 597 b 601 428 553 597 599 519 b 113 175 253 400 113 326 b 342 -17 113 54 215 -17 z m 372 75 b 224 183 294 75 224 107 b 601 353 224 272 313 329 l 601 175 b 372 75 525 111 449 75 z m 278 789 l 442 946 l 447 946 l 611 789 l 660 833 l 501 1028 l 388 1028 l 229 833 z "},"ã":{"ha":833,"x_min":0,"x_max":0,"o":"m 342 -17 b 608 92 438 -17 533 33 l 613 92 l 622 0 l 715 0 l 715 414 b 442 692 715 582 626 692 b 142 594 324 692 210 639 l 186 517 b 422 597 249 556 335 597 b 601 428 553 597 599 519 b 113 175 253 400 113 326 b 342 -17 113 54 215 -17 z m 372 75 b 224 183 294 75 224 107 b 601 353 224 272 313 329 l 601 175 b 372 75 525 111 449 75 z m 544 801 b 685 989 640 801 681 882 l 608 994 b 544 885 604 931 585 885 b 344 1001 479 885 443 1001 b 204 813 249 1001 208 921 l 281 808 b 346 918 285 874 304 918 b 544 801 410 918 446 801 z "},"ä":{"ha":833,"x_min":0,"x_max":0,"o":"m 342 -17 b 608 92 438 -17 533 33 l 613 92 l 622 0 l 715 0 l 715 414 b 442 692 715 582 626 692 b 142 594 324 692 210 639 l 186 517 b 422 597 249 556 335 597 b 601 428 553 597 599 519 b 113 175 253 400 113 326 b 342 -17 113 54 215 -17 z m 372 75 b 224 183 294 75 224 107 b 601 353 224 272 313 329 l 601 175 b 372 75 525 111 449 75 z m 310 817 b 386 894 354 817 386 850 b 310 972 386 938 354 972 b 233 894 265 972 233 938 b 310 817 233 850 265 817 z m 579 817 b 656 894 624 817 656 850 b 579 972 656 938 624 972 b 503 894 535 972 503 938 b 579 817 503 850 535 817 z "},"ā":{"ha":833,"x_min":0,"x_max":0,"o":"m 342 -17 b 608 92 438 -17 533 33 l 613 92 l 622 0 l 715 0 l 715 414 b 442 692 715 582 626 692 b 142 594 324 692 210 639 l 186 517 b 422 597 249 556 335 597 b 601 428 553 597 599 519 b 113 175 253 400 113 326 b 342 -17 113 54 215 -17 z m 372 75 b 224 183 294 75 224 107 b 601 353 224 272 313 329 l 601 175 b 372 75 525 111 449 75 z m 260 835 l 629 835 l 629 914 l 260 914 z "},"ă":{"ha":833,"x_min":0,"x_max":0,"o":"m 342 -17 b 608 92 438 -17 533 33 l 613 92 l 622 0 l 715 0 l 715 414 b 442 692 715 582 626 692 b 142 594 324 692 210 639 l 186 517 b 422 597 249 556 335 597 b 601 428 553 597 599 519 b 113 175 253 400 113 326 b 342 -17 113 54 215 -17 z m 372 75 b 224 183 294 75 224 107 b 601 353 224 272 313 329 l 601 175 b 372 75 525 111 449 75 z m 444 793 b 661 1003 593 793 654 900 l 590 1014 b 444 869 579 943 535 869 b 299 1014 354 869 310 943 l 228 1003 b 444 793 235 900 296 793 z "},"å":{"ha":833,"x_min":0,"x_max":0,"o":"m 342 -17 b 608 92 438 -17 533 33 l 613 92 l 622 0 l 715 0 l 715 414 b 442 692 715 582 626 692 b 142 594 324 692 210 639 l 186 517 b 422 597 249 556 335 597 b 601 428 553 597 599 519 b 113 175 253 400 113 326 b 342 -17 113 54 215 -17 z m 372 75 b 224 183 294 75 224 107 b 601 353 224 272 313 329 l 601 175 b 372 75 525 111 449 75 z m 444 790 b 597 924 540 790 597 849 b 444 1057 597 999 540 1057 b 292 924 349 1057 292 999 b 444 790 292 849 349 790 z m 444 842 b 365 924 400 842 365 878 b 444 1006 365 971 400 1006 b 524 924 489 1006 524 971 b 444 842 524 878 489 842 z "},"ǻ":{"ha":833,"x_min":0,"x_max":0,"o":"m 444 790 b 597 924 540 790 597 849 b 489 1053 597 986 557 1038 l 590 1101 l 542 1171 l 357 1036 b 292 924 315 1013 292 971 b 444 790 292 849 349 790 z m 342 -17 b 608 92 438 -17 533 33 l 613 92 l 622 0 l 715 0 l 715 414 b 442 692 715 582 626 692 b 142 594 324 692 210 639 l 186 517 b 422 597 249 556 335 597 b 601 428 553 597 599 519 b 113 175 253 400 113 326 b 342 -17 113 54 215 -17 z m 372 75 b 224 183 294 75 224 107 b 601 353 224 272 313 329 l 601 175 b 372 75 525 111 449 75 z m 444 842 b 365 924 400 842 365 878 b 444 1006 365 971 400 1006 b 524 924 489 1006 524 971 b 444 842 524 878 489 842 z "},"ǎ":{"ha":833,"x_min":0,"x_max":0,"o":"m 342 -17 b 608 92 438 -17 533 33 l 613 92 l 622 0 l 715 0 l 715 414 b 442 692 715 582 626 692 b 142 594 324 692 210 639 l 186 517 b 422 597 249 556 335 597 b 601 428 553 597 599 519 b 113 175 253 400 113 326 b 342 -17 113 54 215 -17 z m 372 75 b 224 183 294 75 224 107 b 601 353 224 272 313 329 l 601 175 b 372 75 525 111 449 75 z m 388 797 l 501 797 l 660 992 l 611 1036 l 447 879 l 442 879 l 278 1036 l 229 992 z "},"ą":{"ha":833,"x_min":0,"x_max":0,"o":"m 633 -312 b 763 -262 686 -312 731 -293 l 729 -208 b 657 -237 713 -225 688 -237 b 575 -161 615 -237 575 -214 b 715 0 575 -104 615 -44 l 715 414 b 442 692 715 582 626 692 b 142 594 324 692 210 639 l 186 517 b 422 597 249 556 335 597 b 601 428 553 597 599 519 b 113 175 253 400 113 326 b 342 -17 113 54 215 -17 b 608 92 438 -17 533 33 l 613 92 l 622 7 b 490 -183 550 -37 490 -100 b 633 -312 490 -271 553 -312 z m 372 75 b 224 183 294 75 224 107 b 601 353 224 272 313 329 l 601 175 b 372 75 525 111 449 75 z "},"ạ":{"ha":833,"x_min":0,"x_max":0,"o":"m 342 -17 b 608 92 438 -17 533 33 l 613 92 l 622 0 l 715 0 l 715 414 b 442 692 715 582 626 692 b 142 594 324 692 210 639 l 186 517 b 422 597 249 556 335 597 b 601 428 553 597 599 519 b 113 175 253 400 113 326 b 342 -17 113 54 215 -17 z m 372 75 b 224 183 294 75 224 107 b 601 353 224 272 313 329 l 601 175 b 372 75 525 111 449 75 z m 417 -299 b 508 -210 468 -299 508 -264 b 417 -121 508 -157 468 -121 b 325 -210 365 -121 325 -157 b 417 -299 325 -264 365 -299 z "},"ả":{"ha":833,"x_min":0,"x_max":0,"o":"m 342 -17 b 608 92 438 -17 533 33 l 613 92 l 622 0 l 715 0 l 715 414 b 442 692 715 582 626 692 b 142 594 324 692 210 639 l 186 517 b 422 597 249 556 335 597 b 601 428 553 597 599 519 b 113 175 253 400 113 326 b 342 -17 113 54 215 -17 z m 372 75 b 224 183 294 75 224 107 b 601 353 224 272 313 329 l 601 175 b 372 75 525 111 449 75 z m 400 794 b 556 925 481 810 556 844 b 357 1056 556 1007 483 1053 l 350 981 b 465 915 428 976 465 956 b 388 850 465 879 432 861 z "},"ấ":{"ha":833,"x_min":0,"x_max":0,"o":"m 342 -17 b 608 92 438 -17 533 33 l 613 92 l 622 0 l 715 0 l 715 414 b 442 692 715 582 626 692 b 142 594 324 692 210 639 l 186 517 b 422 597 249 556 335 597 b 601 428 553 597 599 519 b 113 175 253 400 113 326 b 342 -17 113 54 215 -17 z m 372 75 b 224 183 294 75 224 107 b 601 353 224 272 313 329 l 601 175 b 372 75 525 111 449 75 z m 299 792 l 442 892 l 447 892 l 590 792 l 631 839 l 492 967 l 397 967 l 258 839 z m 631 885 l 771 1043 l 703 1090 l 582 924 z "},"ầ":{"ha":833,"x_min":0,"x_max":0,"o":"m 342 -17 b 608 92 438 -17 533 33 l 613 92 l 622 0 l 715 0 l 715 414 b 442 692 715 582 626 692 b 142 594 324 692 210 639 l 186 517 b 422 597 249 556 335 597 b 601 428 553 597 599 519 b 113 175 253 400 113 326 b 342 -17 113 54 215 -17 z m 372 75 b 224 183 294 75 224 107 b 601 353 224 272 313 329 l 601 175 b 372 75 525 111 449 75 z m 299 792 l 442 892 l 447 892 l 590 792 l 631 839 l 492 967 l 397 967 l 258 839 z m 258 885 l 307 928 l 168 1090 l 101 1040 z "},"ẩ":{"ha":833,"x_min":0,"x_max":0,"o":"m 342 -17 b 608 92 438 -17 533 33 l 613 92 l 622 0 l 715 0 l 715 414 b 442 692 715 582 626 692 b 142 594 324 692 210 639 l 186 517 b 422 597 249 556 335 597 b 601 428 553 597 599 519 b 113 175 253 400 113 326 b 342 -17 113 54 215 -17 z m 372 75 b 224 183 294 75 224 107 b 601 353 224 272 313 329 l 601 175 b 372 75 525 111 449 75 z m 299 792 l 442 892 l 447 892 l 590 792 l 631 839 l 492 967 l 397 967 l 258 839 z m 606 882 b 735 997 671 897 735 924 b 565 1099 735 1063 674 1096 l 556 1042 b 651 985 624 1039 651 1021 b 593 931 651 956 628 940 z "},"ẫ":{"ha":833,"x_min":0,"x_max":0,"o":"m 342 -17 b 608 92 438 -17 533 33 l 613 92 l 622 0 l 715 0 l 715 414 b 442 692 715 582 626 692 b 142 594 324 692 210 639 l 186 517 b 422 597 249 556 335 597 b 601 428 553 597 599 519 b 113 175 253 400 113 326 b 342 -17 113 54 215 -17 z m 372 75 b 224 183 294 75 224 107 b 601 353 224 272 313 329 l 601 175 b 372 75 525 111 449 75 z m 299 792 l 442 888 l 447 888 l 590 792 l 631 839 l 492 961 l 397 961 l 258 839 z m 535 986 b 635 1110 600 986 628 1039 l 575 1115 b 529 1057 568 1075 557 1057 b 354 1115 476 1057 436 1115 b 254 992 289 1115 261 1064 l 314 986 b 360 1044 321 1026 332 1044 b 535 986 413 1044 454 986 z "},"ậ":{"ha":833,"x_min":0,"x_max":0,"o":"m 342 -17 b 608 92 438 -17 533 33 l 613 92 l 622 0 l 715 0 l 715 414 b 442 692 715 582 626 692 b 142 594 324 692 210 639 l 186 517 b 422 597 249 556 335 597 b 601 428 553 597 599 519 b 113 175 253 400 113 326 b 342 -17 113 54 215 -17 z m 372 75 b 224 183 294 75 224 107 b 601 353 224 272 313 329 l 601 175 b 372 75 525 111 449 75 z m 278 789 l 442 946 l 447 946 l 611 789 l 660 833 l 501 1028 l 388 1028 l 229 833 z m 417 -299 b 508 -210 468 -299 508 -264 b 417 -121 508 -157 468 -121 b 325 -210 365 -121 325 -157 b 417 -299 325 -264 365 -299 z "},"ắ":{"ha":833,"x_min":0,"x_max":0,"o":"m 342 -17 b 608 92 438 -17 533 33 l 613 92 l 622 0 l 715 0 l 715 414 b 442 692 715 582 626 692 b 142 594 324 692 210 639 l 186 517 b 422 597 249 556 335 597 b 601 428 553 597 599 519 b 113 175 253 400 113 326 b 342 -17 113 54 215 -17 z m 372 75 b 224 183 294 75 224 107 b 601 353 224 272 313 329 l 601 175 b 372 75 525 111 449 75 z m 444 793 b 661 1003 593 793 654 900 l 594 1014 b 444 864 585 940 538 864 b 294 1014 351 864 304 940 l 228 1003 b 444 793 235 900 296 793 z m 438 943 l 578 1100 l 506 1156 l 383 983 z "},"ằ":{"ha":833,"x_min":0,"x_max":0,"o":"m 342 -17 b 608 92 438 -17 533 33 l 613 92 l 622 0 l 715 0 l 715 414 b 442 692 715 582 626 692 b 142 594 324 692 210 639 l 186 517 b 422 597 249 556 335 597 b 601 428 553 597 599 519 b 113 175 253 400 113 326 b 342 -17 113 54 215 -17 z m 372 75 b 224 183 294 75 224 107 b 601 353 224 272 313 329 l 601 175 b 372 75 525 111 449 75 z m 444 793 b 661 1003 593 793 654 900 l 594 1014 b 444 864 585 940 538 864 b 294 1014 351 864 304 940 l 228 1003 b 444 793 235 900 296 793 z m 451 943 l 506 983 l 383 1156 l 311 1100 z "},"ẳ":{"ha":833,"x_min":0,"x_max":0,"o":"m 342 -17 b 608 92 438 -17 533 33 l 613 92 l 622 0 l 715 0 l 715 414 b 442 692 715 582 626 692 b 142 594 324 692 210 639 l 186 517 b 422 597 249 556 335 597 b 601 428 553 597 599 519 b 113 175 253 400 113 326 b 342 -17 113 54 215 -17 z m 372 75 b 224 183 294 75 224 107 b 601 353 224 272 313 329 l 601 175 b 372 75 525 111 449 75 z m 444 793 b 661 1003 593 793 654 900 l 594 1014 b 444 864 585 940 538 864 b 294 1014 351 864 304 940 l 228 1003 b 444 793 235 900 296 793 z m 407 947 b 546 1064 476 958 546 989 b 367 1178 546 1138 479 1175 l 357 1108 b 463 1051 432 1106 463 1088 b 396 997 463 1022 435 1006 z "},"ẵ":{"ha":833,"x_min":0,"x_max":0,"o":"m 342 -17 b 608 92 438 -17 533 33 l 613 92 l 622 0 l 715 0 l 715 414 b 442 692 715 582 626 692 b 142 594 324 692 210 639 l 186 517 b 422 597 249 556 335 597 b 601 428 553 597 599 519 b 113 175 253 400 113 326 b 342 -17 113 54 215 -17 z m 372 75 b 224 183 294 75 224 107 b 601 353 224 272 313 329 l 601 175 b 372 75 525 111 449 75 z m 444 793 b 644 942 581 793 636 871 l 579 953 b 444 858 572 907 531 858 b 310 953 358 858 317 907 l 244 942 b 444 793 253 871 308 793 z m 535 986 b 640 1108 603 986 633 1038 l 575 1114 b 529 1056 568 1075 557 1056 b 354 1114 476 1056 436 1114 b 249 992 286 1114 256 1063 l 314 985 b 360 1044 321 1025 332 1044 b 535 986 413 1044 454 986 z "},"ặ":{"ha":833,"x_min":0,"x_max":0,"o":"m 342 -17 b 608 92 438 -17 533 33 l 613 92 l 622 0 l 715 0 l 715 414 b 442 692 715 582 626 692 b 142 594 324 692 210 639 l 186 517 b 422 597 249 556 335 597 b 601 428 553 597 599 519 b 113 175 253 400 113 326 b 342 -17 113 54 215 -17 z m 372 75 b 224 183 294 75 224 107 b 601 353 224 272 313 329 l 601 175 b 372 75 525 111 449 75 z m 444 793 b 661 1003 593 793 654 900 l 590 1014 b 444 869 579 943 535 869 b 299 1014 354 869 310 943 l 228 1003 b 444 793 235 900 296 793 z m 417 -299 b 508 -210 468 -299 508 -264 b 417 -121 508 -157 468 -121 b 325 -210 365 -121 325 -157 b 417 -299 325 -264 365 -299 z "},"æ":{"ha":833,"x_min":0,"x_max":0,"o":"m 615 601 b 736 394 693 601 732 533 l 463 394 b 615 601 476 544 546 601 z m 631 -17 b 808 43 700 -17 763 10 l 767 121 b 635 76 731 96 686 76 b 461 306 529 76 468 164 l 824 306 b 829 383 826 329 829 357 b 622 692 829 549 763 692 b 428 553 547 692 474 651 b 257 692 396 651 338 692 b 46 619 178 692 101 656 l 89 542 b 247 597 132 571 192 597 b 369 419 318 597 365 551 b 24 167 125 389 24 304 b 201 -17 24 53 99 -17 b 422 104 283 -17 357 28 b 631 -17 467 28 536 -17 z m 129 178 b 369 346 129 260 182 318 l 369 336 b 393 171 369 275 378 219 b 232 75 344 108 283 75 b 129 178 171 75 129 113 z "},"ǽ":{"ha":833,"x_min":0,"x_max":0,"o":"m 615 601 b 736 394 693 601 732 533 l 463 394 b 615 601 476 544 546 601 z m 631 -17 b 808 43 700 -17 763 10 l 767 121 b 635 76 731 96 686 76 b 461 306 529 76 468 164 l 824 306 b 829 383 826 329 829 357 b 622 692 829 549 763 692 b 428 553 547 692 474 651 b 257 692 396 651 338 692 b 46 619 178 692 101 656 l 89 542 b 247 597 132 571 192 597 b 369 419 318 597 365 551 b 24 167 125 389 24 304 b 201 -17 24 53 99 -17 b 422 104 283 -17 357 28 b 631 -17 467 28 536 -17 z m 410 789 l 628 1001 l 547 1079 l 350 846 z m 129 178 b 369 346 129 260 182 318 l 369 336 b 393 171 369 275 378 219 b 232 75 344 108 283 75 b 129 178 171 75 129 113 z "},"ǣ":{"ha":833,"x_min":0,"x_max":0,"o":"m 615 601 b 736 394 693 601 732 533 l 463 394 b 615 601 476 544 546 601 z m 631 -17 b 808 43 700 -17 763 10 l 767 121 b 635 76 731 96 686 76 b 461 306 529 76 468 164 l 824 306 b 829 383 826 329 829 357 b 622 692 829 549 763 692 b 428 553 547 692 474 651 b 257 692 396 651 338 692 b 46 619 178 692 101 656 l 89 542 b 247 597 132 571 192 597 b 369 419 318 597 365 551 b 24 167 125 389 24 304 b 201 -17 24 53 99 -17 b 422 104 283 -17 357 28 b 631 -17 467 28 536 -17 z m 254 835 l 624 835 l 624 914 l 254 914 z m 129 178 b 369 346 129 260 182 318 l 369 336 b 393 171 369 275 378 219 b 232 75 344 108 283 75 b 129 178 171 75 129 113 z "},"ƀ":{"ha":833,"x_min":0,"x_max":0,"o":"m 444 -17 b 750 335 606 -17 750 113 b 469 664 750 535 651 664 b 243 561 390 664 304 624 l 239 561 l 243 688 l 243 781 l 539 781 l 539 869 l 243 869 l 243 989 l 129 989 l 129 869 l 28 863 l 28 781 l 129 781 l 129 0 l 221 0 l 231 75 l 235 75 b 444 -17 299 18 379 -17 z m 426 79 b 243 158 378 79 307 101 l 243 467 b 442 568 313 536 382 568 b 632 333 576 568 632 474 b 426 79 632 175 544 79 z "},"ḇ":{"ha":833,"x_min":0,"x_max":0,"o":"m 444 -17 b 750 349 606 -17 750 118 b 469 692 750 557 651 692 b 243 589 390 692 304 651 l 239 589 l 243 719 l 243 989 l 129 989 l 129 0 l 221 0 l 231 75 l 235 75 b 444 -17 299 18 379 -17 z m 426 79 b 243 158 378 79 307 101 l 243 494 b 442 596 313 564 382 596 b 632 347 576 596 632 496 b 426 79 632 181 544 79 z m 246 -236 l 615 -236 l 615 -157 l 246 -157 z "},"ç":{"ha":833,"x_min":0,"x_max":0,"o":"m 360 -314 b 589 -187 507 -307 589 -268 b 488 -89 589 -131 551 -104 l 514 -15 b 749 89 601 -7 682 29 l 697 163 b 489 78 642 115 572 78 b 229 336 333 78 229 182 b 492 597 229 492 336 597 b 676 519 563 597 621 568 l 733 593 b 488 692 678 647 597 692 b 111 336 283 692 111 563 b 438 -15 111 128 249 1 l 393 -122 b 500 -189 472 -133 500 -153 b 349 -258 500 -229 465 -250 z "},"ć":{"ha":833,"x_min":0,"x_max":0,"o":"m 481 -17 b 749 89 581 -17 674 22 l 697 163 b 489 78 642 115 572 78 b 229 336 333 78 229 182 b 492 597 229 492 336 597 b 676 519 563 597 621 568 l 733 593 b 488 692 678 647 597 692 b 111 336 283 692 111 563 b 481 -17 111 113 269 -17 z m 451 789 l 669 1001 l 589 1079 l 392 846 z "},"ĉ":{"ha":833,"x_min":0,"x_max":0,"o":"m 481 -17 b 749 89 581 -17 674 22 l 697 163 b 489 78 642 115 572 78 b 229 336 333 78 229 182 b 492 597 229 492 336 597 b 676 519 563 597 621 568 l 733 593 b 488 692 678 647 597 692 b 111 336 283 692 111 563 b 481 -17 111 113 269 -17 z m 314 789 l 478 946 l 483 946 l 647 789 l 696 833 l 538 1028 l 424 1028 l 265 833 z "},"č":{"ha":833,"x_min":0,"x_max":0,"o":"m 481 -17 b 749 89 581 -17 674 22 l 697 163 b 489 78 642 115 572 78 b 229 336 333 78 229 182 b 492 597 229 492 336 597 b 676 519 563 597 621 568 l 733 593 b 488 692 678 647 597 692 b 111 336 283 692 111 563 b 481 -17 111 113 269 -17 z m 424 797 l 538 797 l 696 992 l 647 1036 l 483 879 l 478 879 l 314 1036 l 265 992 z "},"ċ":{"ha":833,"x_min":0,"x_max":0,"o":"m 481 -17 b 749 89 581 -17 674 22 l 697 163 b 489 78 642 115 572 78 b 229 336 333 78 229 182 b 492 597 229 492 336 597 b 676 519 563 597 621 568 l 733 593 b 488 692 678 647 597 692 b 111 336 283 692 111 563 b 481 -17 111 113 269 -17 z m 481 817 b 572 906 532 817 572 851 b 481 994 572 958 532 994 b 389 906 429 994 389 958 b 481 817 389 851 429 817 z "},"ď":{"ha":833,"x_min":0,"x_max":0,"o":"m 353 -17 b 563 89 433 -17 508 33 l 567 89 l 576 0 l 665 0 l 665 989 l 556 989 l 556 729 l 563 604 l 558 604 b 367 692 500 658 443 692 b 75 336 214 692 75 556 b 353 -17 75 111 186 -17 z m 376 79 b 188 338 258 79 188 176 b 389 596 188 492 278 596 b 556 517 444 596 496 572 l 556 181 b 376 79 497 114 439 79 z m 761 761 l 840 761 l 860 1021 l 860 1133 l 757 1133 z "},"ḍ":{"ha":833,"x_min":0,"x_max":0,"o":"m 376 -17 b 596 89 460 -17 540 32 l 600 89 l 610 0 l 704 0 l 704 989 l 590 989 l 590 729 l 596 604 l 592 604 b 390 692 533 660 471 692 b 83 336 231 692 83 556 b 376 -17 83 111 200 -17 z m 400 79 b 201 338 275 79 201 176 b 413 596 201 492 296 596 b 590 517 471 596 529 574 l 590 181 b 400 79 531 114 467 79 z m 422 -299 b 514 -210 474 -299 514 -264 b 422 -121 514 -157 474 -121 b 331 -210 371 -121 331 -157 b 422 -299 331 -264 371 -299 z "},"ḏ":{"ha":833,"x_min":0,"x_max":0,"o":"m 376 -17 b 596 89 460 -17 540 32 l 600 89 l 610 0 l 704 0 l 704 989 l 590 989 l 590 729 l 596 604 l 592 604 b 390 692 533 660 471 692 b 83 336 231 692 83 556 b 376 -17 83 111 200 -17 z m 400 79 b 201 338 275 79 201 176 b 413 596 201 492 296 596 b 590 517 471 596 529 574 l 590 181 b 400 79 531 114 467 79 z m 238 -236 l 607 -236 l 607 -157 l 238 -157 z "},"ḑ":{"ha":833,"x_min":0,"x_max":0,"o":"m 289 -314 b 518 -187 436 -307 518 -268 b 417 -89 518 -131 481 -104 l 447 -6 b 596 89 504 13 556 49 l 600 89 l 610 0 l 704 0 l 704 989 l 590 989 l 590 729 l 596 604 l 592 604 b 390 692 533 660 471 692 b 83 336 231 692 83 556 b 367 -17 83 115 196 -11 l 322 -122 b 429 -189 401 -133 429 -153 b 278 -258 429 -229 394 -250 z m 400 79 b 201 338 275 79 201 176 b 413 596 201 492 296 596 b 590 517 471 596 529 574 l 590 181 b 400 79 531 114 467 79 z "},"đ":{"ha":833,"x_min":0,"x_max":0,"o":"m 376 -17 b 596 89 460 -17 540 32 l 600 89 l 610 0 l 704 0 l 704 781 l 806 789 l 806 869 l 704 869 l 704 989 l 590 989 l 590 869 l 347 869 l 347 781 l 590 781 l 590 701 l 596 576 l 592 576 b 390 664 533 631 472 664 b 83 322 231 664 83 533 b 376 -17 83 106 200 -17 z m 400 79 b 201 324 275 79 201 171 b 414 568 201 468 296 568 b 590 489 471 568 529 546 l 590 181 b 400 79 531 114 467 79 z "},"è":{"ha":833,"x_min":0,"x_max":0,"o":"m 442 601 b 643 394 557 601 633 533 l 213 394 b 442 601 233 528 331 601 z m 458 -17 b 719 64 567 -17 653 19 l 678 139 b 472 75 617 100 553 75 b 210 306 332 75 224 153 l 742 306 b 747 375 744 324 747 349 b 439 692 747 565 633 692 b 94 339 258 692 94 558 b 458 -17 94 114 256 -17 z m 468 789 l 528 846 l 331 1079 l 250 1001 z "},"é":{"ha":833,"x_min":0,"x_max":0,"o":"m 442 601 b 643 394 557 601 633 533 l 213 394 b 442 601 233 528 331 601 z m 458 -17 b 719 64 567 -17 653 19 l 678 139 b 472 75 617 100 553 75 b 210 306 332 75 224 153 l 742 306 b 747 375 744 324 747 349 b 439 692 747 565 633 692 b 94 339 258 692 94 558 b 458 -17 94 114 256 -17 z m 410 789 l 628 1001 l 547 1079 l 350 846 z "},"ê":{"ha":833,"x_min":0,"x_max":0,"o":"m 442 601 b 643 394 557 601 633 533 l 213 394 b 442 601 233 528 331 601 z m 458 -17 b 719 64 567 -17 653 19 l 678 139 b 472 75 617 100 553 75 b 210 306 332 75 224 153 l 742 306 b 747 375 744 324 747 349 b 439 692 747 565 633 692 b 94 339 258 692 94 558 b 458 -17 94 114 256 -17 z m 272 789 l 436 946 l 442 946 l 606 789 l 654 833 l 496 1028 l 382 1028 l 224 833 z "},"ě":{"ha":833,"x_min":0,"x_max":0,"o":"m 442 601 b 643 394 557 601 633 533 l 213 394 b 442 601 233 528 331 601 z m 458 -17 b 719 64 567 -17 653 19 l 678 139 b 472 75 617 100 553 75 b 210 306 332 75 224 153 l 742 306 b 747 375 744 324 747 349 b 439 692 747 565 633 692 b 94 339 258 692 94 558 b 458 -17 94 114 256 -17 z m 382 797 l 496 797 l 654 992 l 606 1036 l 442 879 l 436 879 l 272 1036 l 224 992 z "},"ë":{"ha":833,"x_min":0,"x_max":0,"o":"m 442 601 b 643 394 557 601 633 533 l 213 394 b 442 601 233 528 331 601 z m 458 -17 b 719 64 567 -17 653 19 l 678 139 b 472 75 617 100 553 75 b 210 306 332 75 224 153 l 742 306 b 747 375 744 324 747 349 b 439 692 747 565 633 692 b 94 339 258 692 94 558 b 458 -17 94 114 256 -17 z m 304 817 b 381 894 349 817 381 850 b 304 972 381 938 349 972 b 228 894 260 972 228 938 b 304 817 228 850 260 817 z m 574 817 b 650 894 618 817 650 850 b 574 972 650 938 618 972 b 497 894 529 972 497 938 b 574 817 497 850 529 817 z "},"ē":{"ha":833,"x_min":0,"x_max":0,"o":"m 442 601 b 643 394 557 601 633 533 l 213 394 b 442 601 233 528 331 601 z m 458 -17 b 719 64 567 -17 653 19 l 678 139 b 472 75 617 100 553 75 b 210 306 332 75 224 153 l 742 306 b 747 375 744 324 747 349 b 439 692 747 565 633 692 b 94 339 258 692 94 558 b 458 -17 94 114 256 -17 z m 254 835 l 624 835 l 624 914 l 254 914 z "},"ĕ":{"ha":833,"x_min":0,"x_max":0,"o":"m 442 601 b 643 394 557 601 633 533 l 213 394 b 442 601 233 528 331 601 z m 458 -17 b 719 64 567 -17 653 19 l 678 139 b 472 75 617 100 553 75 b 210 306 332 75 224 153 l 742 306 b 747 375 744 324 747 349 b 439 692 747 565 633 692 b 94 339 258 692 94 558 b 458 -17 94 114 256 -17 z m 439 793 b 656 1003 588 793 649 900 l 585 1014 b 439 869 574 943 529 869 b 293 1014 349 869 304 943 l 222 1003 b 439 793 229 900 290 793 z "},"ę":{"ha":833,"x_min":0,"x_max":0,"o":"m 442 601 b 643 394 557 601 633 533 l 213 394 b 442 601 233 528 331 601 z m 586 -312 b 717 -262 639 -312 683 -293 l 683 -208 b 610 -237 665 -225 642 -237 b 528 -161 567 -237 528 -212 b 719 64 528 -89 578 -36 l 678 139 b 472 75 617 100 553 75 b 210 306 332 75 224 153 l 742 306 b 747 375 744 324 747 349 b 439 692 747 565 633 692 b 94 336 258 692 94 558 b 458 -17 94 114 256 -17 b 549 -1 472 -17 501 -18 b 443 -183 488 -54 443 -110 b 586 -312 443 -271 503 -312 z "},"ė":{"ha":833,"x_min":0,"x_max":0,"o":"m 442 601 b 643 394 557 601 633 533 l 213 394 b 442 601 233 528 331 601 z m 458 -17 b 719 64 567 -17 653 19 l 678 139 b 472 75 617 100 553 75 b 210 306 332 75 224 153 l 742 306 b 747 375 744 324 747 349 b 439 692 747 565 633 692 b 94 339 258 692 94 558 b 458 -17 94 114 256 -17 z m 439 817 b 531 906 490 817 531 851 b 439 994 531 958 490 994 b 347 906 388 994 347 958 b 439 817 347 851 388 817 z "},"ẹ":{"ha":833,"x_min":0,"x_max":0,"o":"m 442 601 b 643 394 557 601 633 533 l 213 394 b 442 601 233 528 331 601 z m 458 -17 b 719 64 567 -17 653 19 l 678 139 b 472 75 617 100 553 75 b 210 306 332 75 224 153 l 742 306 b 747 375 744 324 747 349 b 439 692 747 565 633 692 b 94 339 258 692 94 558 b 458 -17 94 114 256 -17 z m 439 -299 b 531 -210 490 -299 531 -264 b 439 -121 531 -157 490 -121 b 347 -210 388 -121 347 -157 b 439 -299 347 -264 388 -299 z "},"ẻ":{"ha":833,"x_min":0,"x_max":0,"o":"m 442 601 b 643 394 557 601 633 533 l 213 394 b 442 601 233 528 331 601 z m 458 -17 b 719 64 567 -17 653 19 l 678 139 b 472 75 617 100 553 75 b 210 306 332 75 224 153 l 742 306 b 747 375 744 324 747 349 b 439 692 747 565 633 692 b 94 339 258 692 94 558 b 458 -17 94 114 256 -17 z m 394 794 b 550 925 475 810 550 844 b 351 1056 550 1007 478 1053 l 344 981 b 460 915 422 976 460 956 b 382 850 460 879 426 861 z "},"ẽ":{"ha":833,"x_min":0,"x_max":0,"o":"m 442 601 b 643 394 557 601 633 533 l 213 394 b 442 601 233 528 331 601 z m 458 -17 b 719 64 567 -17 653 19 l 678 139 b 472 75 617 100 553 75 b 210 306 332 75 224 153 l 742 306 b 747 375 744 324 747 349 b 439 692 747 565 633 692 b 94 339 258 692 94 558 b 458 -17 94 114 256 -17 z m 539 801 b 679 989 635 801 675 882 l 603 994 b 539 885 599 931 579 885 b 339 1001 474 885 438 1001 b 199 813 243 1001 203 921 l 275 808 b 340 918 279 874 299 918 b 539 801 404 918 440 801 z "},"ế":{"ha":833,"x_min":0,"x_max":0,"o":"m 442 601 b 643 394 557 601 633 533 l 213 394 b 442 601 233 528 331 601 z m 458 -17 b 719 64 567 -17 653 19 l 678 139 b 472 75 617 100 553 75 b 210 306 332 75 224 153 l 742 306 b 747 375 744 324 747 349 b 439 692 747 565 633 692 b 94 339 258 692 94 558 b 458 -17 94 114 256 -17 z m 293 792 l 436 892 l 442 892 l 585 792 l 625 839 l 486 967 l 392 967 l 253 839 z m 625 885 l 765 1043 l 697 1090 l 576 924 z "},"ề":{"ha":833,"x_min":0,"x_max":0,"o":"m 442 601 b 643 394 557 601 633 533 l 213 394 b 442 601 233 528 331 601 z m 458 -17 b 719 64 567 -17 653 19 l 678 139 b 472 75 617 100 553 75 b 210 306 332 75 224 153 l 742 306 b 747 375 744 324 747 349 b 439 692 747 565 633 692 b 94 339 258 692 94 558 b 458 -17 94 114 256 -17 z m 293 792 l 436 892 l 442 892 l 585 792 l 625 839 l 486 967 l 392 967 l 253 839 z m 253 885 l 301 928 l 163 1090 l 96 1040 z "},"ể":{"ha":833,"x_min":0,"x_max":0,"o":"m 442 601 b 643 394 557 601 633 533 l 213 394 b 442 601 233 528 331 601 z m 458 -17 b 719 64 567 -17 653 19 l 678 139 b 472 75 617 100 553 75 b 210 306 332 75 224 153 l 742 306 b 747 375 744 324 747 349 b 439 692 747 565 633 692 b 94 339 258 692 94 558 b 458 -17 94 114 256 -17 z m 293 792 l 436 892 l 442 892 l 585 792 l 625 839 l 486 967 l 392 967 l 253 839 z m 600 882 b 729 997 665 897 729 924 b 560 1099 729 1063 668 1096 l 550 1042 b 646 985 618 1039 646 1021 b 588 931 646 956 622 940 z "},"ễ":{"ha":833,"x_min":0,"x_max":0,"o":"m 442 601 b 643 394 557 601 633 533 l 213 394 b 442 601 233 528 331 601 z m 458 -17 b 719 64 567 -17 653 19 l 678 139 b 472 75 617 100 553 75 b 210 306 332 75 224 153 l 742 306 b 747 375 744 324 747 349 b 439 692 747 565 633 692 b 94 339 258 692 94 558 b 458 -17 94 114 256 -17 z m 293 792 l 436 888 l 442 888 l 585 792 l 625 839 l 486 961 l 392 961 l 253 839 z m 529 986 b 629 1110 594 986 622 1039 l 569 1115 b 524 1057 563 1075 551 1057 b 349 1115 471 1057 431 1115 b 249 992 283 1115 256 1064 l 308 986 b 354 1044 315 1026 326 1044 b 529 986 407 1044 449 986 z "},"ệ":{"ha":833,"x_min":0,"x_max":0,"o":"m 442 601 b 643 394 557 601 633 533 l 213 394 b 442 601 233 528 331 601 z m 458 -17 b 719 64 567 -17 653 19 l 678 139 b 472 75 617 100 553 75 b 210 306 332 75 224 153 l 742 306 b 747 375 744 324 747 349 b 439 692 747 565 633 692 b 94 339 258 692 94 558 b 458 -17 94 114 256 -17 z m 272 789 l 436 946 l 442 946 l 606 789 l 654 833 l 496 1028 l 382 1028 l 224 833 z m 439 -299 b 531 -210 490 -299 531 -264 b 439 -121 531 -157 490 -121 b 347 -210 388 -121 347 -157 b 439 -299 347 -264 388 -299 z "},"ḗ":{"ha":833,"x_min":0,"x_max":0,"o":"m 442 601 b 643 394 557 601 633 533 l 213 394 b 442 601 233 528 331 601 z m 458 -17 b 719 64 567 -17 653 19 l 678 139 b 472 75 617 100 553 75 b 210 306 332 75 224 153 l 742 306 b 747 375 744 324 747 349 b 439 692 747 565 633 692 b 94 339 258 692 94 558 b 458 -17 94 114 256 -17 z m 254 835 l 624 835 l 624 914 l 254 914 z m 392 979 l 588 1103 l 535 1171 l 347 1033 z "},"ǵ":{"ha":833,"x_min":0,"x_max":0,"o":"m 411 -311 b 786 -75 640 -311 786 -201 b 529 83 786 39 703 83 l 378 83 b 238 161 289 83 238 108 b 290 239 238 193 257 218 b 404 214 328 222 369 214 b 665 446 550 214 665 301 b 608 582 665 500 639 550 l 783 582 l 783 675 l 504 675 b 404 692 475 686 443 692 b 139 450 261 692 139 597 b 222 275 139 369 176 310 l 222 269 b 142 143 171 235 142 186 b 211 32 142 86 175 51 l 211 26 b 100 -124 139 -15 100 -69 b 411 -311 100 -243 214 -311 z m 404 290 b 249 450 319 290 249 353 b 404 608 249 544 319 608 b 560 450 490 608 560 544 b 404 290 560 353 490 290 z m 419 -228 b 199 -112 275 -228 199 -183 b 285 0 199 -74 221 -35 b 388 -11 314 -8 349 -11 l 519 -11 b 674 -93 622 -11 674 -29 b 419 -228 674 -162 576 -228 z m 397 789 l 615 1001 l 535 1079 l 338 846 z "},"ĝ":{"ha":833,"x_min":0,"x_max":0,"o":"m 411 -311 b 786 -75 640 -311 786 -201 b 529 83 786 39 703 83 l 378 83 b 238 161 289 83 238 108 b 290 239 238 193 257 218 b 404 214 328 222 369 214 b 665 446 550 214 665 301 b 608 582 665 500 639 550 l 783 582 l 783 675 l 504 675 b 404 692 475 686 443 692 b 139 450 261 692 139 597 b 222 275 139 369 176 310 l 222 269 b 142 143 171 235 142 186 b 211 32 142 86 175 51 l 211 26 b 100 -124 139 -15 100 -69 b 411 -311 100 -243 214 -311 z m 404 290 b 249 450 319 290 249 353 b 404 608 249 544 319 608 b 560 450 490 608 560 544 b 404 290 560 353 490 290 z m 419 -228 b 199 -112 275 -228 199 -183 b 285 0 199 -74 221 -35 b 388 -11 314 -8 349 -11 l 519 -11 b 674 -93 622 -11 674 -29 b 419 -228 674 -162 576 -228 z m 260 789 l 424 946 l 429 946 l 593 789 l 642 833 l 483 1028 l 369 1028 l 211 833 z "},"ğ":{"ha":833,"x_min":0,"x_max":0,"o":"m 411 -311 b 786 -75 640 -311 786 -201 b 529 83 786 39 703 83 l 378 83 b 238 161 289 83 238 108 b 290 239 238 193 257 218 b 404 214 328 222 369 214 b 665 446 550 214 665 301 b 608 582 665 500 639 550 l 783 582 l 783 675 l 504 675 b 404 692 475 686 443 692 b 139 450 261 692 139 597 b 222 275 139 369 176 310 l 222 269 b 142 143 171 235 142 186 b 211 32 142 86 175 51 l 211 26 b 100 -124 139 -15 100 -69 b 411 -311 100 -243 214 -311 z m 404 290 b 249 450 319 290 249 353 b 404 608 249 544 319 608 b 560 450 490 608 560 544 b 404 290 560 353 490 290 z m 419 -228 b 199 -112 275 -228 199 -183 b 285 0 199 -74 221 -35 b 388 -11 314 -8 349 -11 l 519 -11 b 674 -93 622 -11 674 -29 b 419 -228 674 -162 576 -228 z m 426 793 b 643 1003 575 793 636 900 l 572 1014 b 426 869 561 943 517 869 b 281 1014 336 869 292 943 l 210 1003 b 426 793 217 900 278 793 z "},"ġ":{"ha":833,"x_min":0,"x_max":0,"o":"m 411 -311 b 786 -75 640 -311 786 -201 b 529 83 786 39 703 83 l 378 83 b 238 161 289 83 238 108 b 290 239 238 193 257 218 b 404 214 328 222 369 214 b 665 446 550 214 665 301 b 608 582 665 500 639 550 l 783 582 l 783 675 l 504 675 b 404 692 475 686 443 692 b 139 450 261 692 139 597 b 222 275 139 369 176 310 l 222 269 b 142 143 171 235 142 186 b 211 32 142 86 175 51 l 211 26 b 100 -124 139 -15 100 -69 b 411 -311 100 -243 214 -311 z m 404 290 b 249 450 319 290 249 353 b 404 608 249 544 319 608 b 560 450 490 608 560 544 b 404 290 560 353 490 290 z m 419 -228 b 199 -112 275 -228 199 -183 b 285 0 199 -74 221 -35 b 388 -11 314 -8 349 -11 l 519 -11 b 674 -93 622 -11 674 -29 b 419 -228 674 -162 576 -228 z m 426 817 b 518 906 478 817 518 851 b 426 994 518 958 478 994 b 335 906 375 994 335 958 b 426 817 335 851 375 817 z "},"ģ":{"ha":833,"x_min":0,"x_max":0,"o":"m 411 -311 b 786 -75 640 -311 786 -201 b 529 83 786 39 703 83 l 378 83 b 238 161 289 83 238 108 b 290 239 238 193 257 218 b 404 214 328 222 369 214 b 665 446 550 214 665 301 b 608 582 665 500 639 550 l 783 582 l 783 675 l 504 675 b 404 692 475 686 443 692 b 139 450 261 692 139 597 b 222 275 139 369 176 310 l 222 269 b 142 143 171 235 142 186 b 211 32 142 86 175 51 l 211 26 b 100 -124 139 -15 100 -69 b 411 -311 100 -243 214 -311 z m 404 290 b 249 450 319 290 249 353 b 404 608 249 544 319 608 b 560 450 490 608 560 544 b 404 290 560 353 490 290 z m 419 -228 b 199 -112 275 -228 199 -183 b 285 0 199 -74 221 -35 b 388 -11 314 -8 349 -11 l 519 -11 b 674 -93 622 -11 674 -29 b 419 -228 674 -162 576 -228 z m 481 799 l 506 851 b 407 910 442 857 407 874 b 558 976 407 949 442 969 l 547 1033 b 318 906 400 1025 318 986 b 481 799 318 843 360 813 z "},"ǧ":{"ha":833,"x_min":0,"x_max":0,"o":"m 411 -311 b 786 -75 640 -311 786 -201 b 529 83 786 39 703 83 l 378 83 b 238 161 289 83 238 108 b 290 239 238 193 257 218 b 404 214 328 222 369 214 b 665 446 550 214 665 301 b 608 582 665 500 639 550 l 783 582 l 783 675 l 504 675 b 404 692 475 686 443 692 b 139 450 261 692 139 597 b 222 275 139 369 176 310 l 222 269 b 142 143 171 235 142 186 b 211 32 142 86 175 51 l 211 26 b 100 -124 139 -15 100 -69 b 411 -311 100 -243 214 -311 z m 404 290 b 249 450 319 290 249 353 b 404 608 249 544 319 608 b 560 450 490 608 560 544 b 404 290 560 353 490 290 z m 419 -228 b 199 -112 275 -228 199 -183 b 285 0 199 -74 221 -35 b 388 -11 314 -8 349 -11 l 519 -11 b 674 -93 622 -11 674 -29 b 419 -228 674 -162 576 -228 z m 369 797 l 483 797 l 642 992 l 593 1036 l 429 879 l 424 879 l 260 1036 l 211 992 z "},"ḡ":{"ha":833,"x_min":0,"x_max":0,"o":"m 411 -311 b 786 -75 640 -311 786 -201 b 529 83 786 39 703 83 l 378 83 b 238 161 289 83 238 108 b 290 239 238 193 257 218 b 404 214 328 222 369 214 b 665 446 550 214 665 301 b 608 582 665 500 639 550 l 783 582 l 783 675 l 504 675 b 404 692 475 686 443 692 b 139 450 261 692 139 597 b 222 275 139 369 176 310 l 222 269 b 142 143 171 235 142 186 b 211 32 142 86 175 51 l 211 26 b 100 -124 139 -15 100 -69 b 411 -311 100 -243 214 -311 z m 404 290 b 249 450 319 290 249 353 b 404 608 249 544 319 608 b 560 450 490 608 560 544 b 404 290 560 353 490 290 z m 419 -228 b 199 -112 275 -228 199 -183 b 285 0 199 -74 221 -35 b 388 -11 314 -8 349 -11 l 519 -11 b 674 -93 622 -11 674 -29 b 419 -228 674 -162 576 -228 z m 242 835 l 611 835 l 611 914 l 242 914 z "},"ĥ":{"ha":833,"x_min":0,"x_max":0,"o":"m 129 0 l 243 0 l 243 471 b 457 593 322 553 376 593 b 613 404 568 593 613 532 l 613 0 l 726 0 l 726 419 b 493 692 726 597 653 692 b 240 560 388 692 310 635 l 236 560 l 243 719 l 243 989 l 129 989 z m 26 1054 l 179 1183 l 185 1183 l 338 1054 l 388 1090 l 242 1247 l 122 1247 l -24 1090 z "},"ḧ":{"ha":833,"x_min":0,"x_max":0,"o":"m 129 0 l 243 0 l 243 471 b 457 593 322 553 376 593 b 613 404 568 593 613 532 l 613 0 l 726 0 l 726 419 b 493 692 726 597 653 692 b 240 560 388 692 310 635 l 236 560 l 243 719 l 243 989 l 129 989 z m 56 1076 b 125 1147 96 1076 125 1106 b 56 1217 125 1189 96 1217 b -15 1147 15 1217 -15 1189 b 56 1076 -15 1106 15 1076 z m 308 1076 b 379 1147 349 1076 379 1106 b 308 1217 379 1189 349 1217 b 239 1147 268 1217 239 1189 b 308 1076 239 1106 268 1076 z "},"ḥ":{"ha":833,"x_min":0,"x_max":0,"o":"m 129 0 l 243 0 l 243 471 b 457 593 322 553 376 593 b 613 404 568 593 613 532 l 613 0 l 726 0 l 726 419 b 493 692 726 597 653 692 b 240 560 388 692 310 635 l 236 560 l 243 719 l 243 989 l 129 989 z m 436 -299 b 528 -210 488 -299 528 -264 b 436 -121 528 -157 488 -121 b 344 -210 385 -121 344 -157 b 436 -299 344 -264 385 -299 z "},"ẖ":{"ha":833,"x_min":0,"x_max":0,"o":"m 129 0 l 243 0 l 243 471 b 457 593 322 553 376 593 b 613 404 568 593 613 532 l 613 0 l 726 0 l 726 419 b 493 692 726 597 653 692 b 240 560 388 692 310 635 l 236 560 l 243 719 l 243 989 l 129 989 z m 251 -236 l 621 -236 l 621 -157 l 251 -157 z "},"ḩ":{"ha":833,"x_min":0,"x_max":0,"o":"m 129 0 l 150 0 l 99 -122 b 206 -189 178 -133 206 -153 b 54 -258 206 -229 171 -250 l 65 -314 b 294 -187 213 -307 294 -268 b 193 -89 294 -131 257 -104 l 225 0 l 243 0 l 243 471 b 457 593 322 553 376 593 b 613 404 568 593 613 532 l 613 0 l 726 0 l 726 419 b 493 692 726 597 653 692 b 240 560 388 692 310 635 l 236 560 l 243 719 l 243 989 l 129 989 z "},"ḫ":{"ha":833,"x_min":0,"x_max":0,"o":"m 129 0 l 243 0 l 243 471 b 457 593 322 553 376 593 b 613 404 568 593 613 532 l 613 0 l 726 0 l 726 419 b 493 692 726 597 653 692 b 240 560 388 692 310 635 l 236 560 l 243 719 l 243 989 l 129 989 z m 436 -321 b 653 -111 585 -321 646 -214 l 582 -100 b 436 -244 571 -171 526 -244 b 290 -100 346 -244 301 -171 l 219 -111 b 436 -321 226 -214 288 -321 z "},"ħ":{"ha":833,"x_min":0,"x_max":0,"o":"m 129 0 l 243 0 l 243 443 b 457 565 322 525 376 565 b 613 376 568 565 613 504 l 613 0 l 726 0 l 726 392 b 493 664 726 569 653 664 b 240 532 388 664 310 607 l 236 532 l 243 692 l 243 781 l 539 781 l 539 869 l 243 869 l 243 989 l 129 989 l 129 869 l 28 861 l 28 781 l 129 781 z "},"ì":{"ha":833,"x_min":0,"x_max":0,"o":"m 439 0 l 553 0 l 553 675 l 125 675 l 125 582 l 439 582 z m 513 789 l 572 846 l 375 1079 l 294 1001 z "},"í":{"ha":833,"x_min":0,"x_max":0,"o":"m 439 0 l 553 0 l 553 675 l 125 675 l 125 582 l 439 582 z m 454 789 l 672 1001 l 592 1079 l 394 846 z "},"î":{"ha":833,"x_min":0,"x_max":0,"o":"m 439 0 l 553 0 l 553 675 l 125 675 l 125 582 l 439 582 z m 317 789 l 481 946 l 486 946 l 650 789 l 699 833 l 540 1028 l 426 1028 l 268 833 z "},"ĩ":{"ha":833,"x_min":0,"x_max":0,"o":"m 439 0 l 553 0 l 553 675 l 125 675 l 125 582 l 439 582 z m 583 801 b 724 989 679 801 719 882 l 647 994 b 583 885 643 931 624 885 b 383 1001 518 885 482 1001 b 243 813 288 1001 247 921 l 319 808 b 385 918 324 874 343 918 b 583 801 449 918 485 801 z "},"ï":{"ha":833,"x_min":0,"x_max":0,"o":"m 439 0 l 553 0 l 553 675 l 125 675 l 125 582 l 439 582 z m 349 817 b 425 894 393 817 425 850 b 349 972 425 938 393 972 b 272 894 304 972 272 938 b 349 817 272 850 304 817 z m 618 817 b 694 894 663 817 694 850 b 618 972 694 938 663 972 b 542 894 574 972 542 938 b 618 817 542 850 574 817 z "},"ī":{"ha":833,"x_min":0,"x_max":0,"o":"m 439 0 l 553 0 l 553 675 l 125 675 l 125 582 l 439 582 z m 299 835 l 668 835 l 668 914 l 299 914 z "},"ǐ":{"ha":833,"x_min":0,"x_max":0,"o":"m 439 0 l 553 0 l 553 675 l 125 675 l 125 582 l 439 582 z m 426 797 l 540 797 l 699 992 l 650 1036 l 486 879 l 481 879 l 317 1036 l 268 992 z "},"į":{"ha":833,"x_min":0,"x_max":0,"o":"m 490 -312 b 619 -262 542 -312 586 -293 l 586 -208 b 514 -237 567 -225 543 -237 b 431 -161 469 -237 431 -212 b 553 -7 431 -106 471 -47 l 553 675 l 125 675 l 125 582 l 439 582 l 439 0 l 465 0 b 346 -183 400 -44 346 -106 b 490 -312 346 -271 408 -312 z m 483 817 b 575 906 535 817 575 851 b 483 994 575 958 535 994 b 392 906 432 994 392 958 b 483 817 392 851 432 817 z "},"ỉ":{"ha":833,"x_min":0,"x_max":0,"o":"m 439 0 l 553 0 l 553 675 l 125 675 l 125 582 l 439 582 z m 439 794 b 594 925 519 810 594 844 b 396 1056 594 1007 522 1053 l 389 981 b 504 915 467 976 504 956 b 426 850 504 879 471 861 z "},"ị":{"ha":833,"x_min":0,"x_max":0,"o":"m 439 0 l 553 0 l 553 675 l 125 675 l 125 582 l 439 582 z m 483 817 b 575 906 535 817 575 851 b 483 994 575 958 535 994 b 392 906 432 994 392 958 b 483 817 392 851 432 817 z m 483 -299 b 575 -210 535 -299 575 -264 b 483 -121 575 -157 535 -121 b 392 -210 432 -121 392 -157 b 483 -299 392 -264 432 -299 z "},"ĭ":{"ha":833,"x_min":0,"x_max":0,"o":"m 439 0 l 553 0 l 553 675 l 125 675 l 125 582 l 439 582 z m 483 793 b 700 1003 632 793 693 900 l 629 1014 b 483 869 618 943 574 869 b 338 1014 393 869 349 943 l 267 1003 b 483 793 274 900 335 793 z "},"ı":{"ha":833,"x_min":0,"x_max":0,"o":"m 439 0 l 553 0 l 553 675 l 125 675 l 125 582 l 439 582 z "},"ĵ":{"ha":833,"x_min":0,"x_max":0,"o":"m 269 -301 b 553 -17 488 -301 553 -183 l 553 675 l 125 675 l 125 582 l 439 582 l 439 -25 b 268 -208 439 -140 403 -208 b 114 -171 217 -208 163 -194 l 76 -256 b 269 -301 131 -282 199 -301 z m 317 789 l 481 946 l 486 946 l 650 789 l 699 833 l 540 1028 l 426 1028 l 268 833 z "},"ķ":{"ha":833,"x_min":0,"x_max":0,"o":"m 147 0 l 261 0 l 261 183 l 421 340 l 669 0 l 797 0 l 492 410 l 761 675 l 631 675 l 267 319 l 261 319 l 261 989 l 147 989 z m 344 -314 b 574 -187 492 -307 574 -268 b 411 -81 574 -125 532 -94 l 386 -133 b 485 -192 450 -139 485 -156 b 333 -258 485 -229 450 -250 z "},"ḳ":{"ha":833,"x_min":0,"x_max":0,"o":"m 147 0 l 261 0 l 261 183 l 421 340 l 669 0 l 797 0 l 492 410 l 761 675 l 631 675 l 267 319 l 261 319 l 261 989 l 147 989 z m 465 -299 b 557 -210 517 -299 557 -264 b 465 -121 557 -157 517 -121 b 374 -210 414 -121 374 -157 b 465 -299 374 -264 414 -299 z "},"ḵ":{"ha":833,"x_min":0,"x_max":0,"o":"m 147 0 l 261 0 l 261 183 l 421 340 l 669 0 l 797 0 l 492 410 l 761 675 l 631 675 l 267 319 l 261 319 l 261 989 l 147 989 z m 281 -236 l 650 -236 l 650 -157 l 281 -157 z "},"ĸ":{"ha":833,"x_min":0,"x_max":0,"o":"m 147 0 l 261 0 l 261 181 l 421 333 l 669 0 l 797 0 l 492 407 l 761 675 l 631 675 l 265 321 l 261 319 l 261 675 l 147 675 z "},"ĺ":{"ha":833,"x_min":0,"x_max":0,"o":"m 565 -17 b 746 24 639 -17 683 -3 l 717 108 b 590 78 671 88 629 78 b 457 218 510 78 457 119 l 457 989 l 103 989 l 103 896 l 343 896 l 343 226 b 565 -17 343 67 422 -17 z m 356 1051 l 567 1211 l 501 1288 l 306 1110 z "},"ľ":{"ha":833,"x_min":0,"x_max":0,"o":"m 565 -17 b 746 24 639 -17 683 -3 l 717 108 b 590 78 671 88 629 78 b 457 218 510 78 457 119 l 457 989 l 103 989 l 103 896 l 343 896 l 343 226 b 565 -17 343 67 422 -17 z m 561 761 l 640 761 l 660 1021 l 660 1133 l 557 1133 z "},"ļ":{"ha":833,"x_min":0,"x_max":0,"o":"m 565 -17 b 746 24 639 -17 683 -3 l 717 108 b 590 78 671 88 629 78 b 457 218 510 78 457 119 l 457 989 l 103 989 l 103 896 l 343 896 l 343 226 b 565 -17 343 67 422 -17 z m 414 -314 b 643 -187 561 -307 643 -268 b 481 -81 643 -125 601 -94 l 456 -133 b 554 -192 519 -139 554 -156 b 403 -258 554 -229 519 -250 z "},"ḷ":{"ha":833,"x_min":0,"x_max":0,"o":"m 565 -17 b 746 24 639 -17 683 -3 l 717 108 b 590 78 671 88 629 78 b 457 218 510 78 457 119 l 457 989 l 103 989 l 103 896 l 343 896 l 343 226 b 565 -17 343 67 422 -17 z m 535 -299 b 626 -210 586 -299 626 -264 b 535 -121 626 -157 586 -121 b 443 -210 483 -121 443 -157 b 535 -299 443 -264 483 -299 z "},"ḹ":{"ha":833,"x_min":0,"x_max":0,"o":"m 565 -17 b 746 24 639 -17 683 -3 l 717 108 b 590 78 671 88 629 78 b 457 218 510 78 457 119 l 457 989 l 103 989 l 103 896 l 343 896 l 343 226 b 565 -17 343 67 422 -17 z m 210 1104 l 582 1104 l 582 1183 l 210 1183 z m 535 -299 b 626 -210 586 -299 626 -264 b 535 -121 626 -157 586 -121 b 443 -210 483 -121 443 -157 b 535 -299 443 -264 483 -299 z "},"ḻ":{"ha":833,"x_min":0,"x_max":0,"o":"m 565 -17 b 746 24 639 -17 683 -3 l 717 108 b 590 78 671 88 629 78 b 457 218 510 78 457 119 l 457 989 l 103 989 l 103 896 l 343 896 l 343 226 b 565 -17 343 67 422 -17 z m 350 -236 l 719 -236 l 719 -157 l 350 -157 z "},"ł":{"ha":833,"x_min":0,"x_max":0,"o":"m 565 -17 b 746 24 639 -17 683 -3 l 717 108 b 590 78 671 88 629 78 b 457 218 510 78 457 119 l 457 518 l 701 657 l 663 732 l 457 615 l 457 989 l 103 989 l 103 896 l 343 896 l 343 563 l 153 451 l 193 376 l 343 465 l 343 226 b 565 -17 343 67 422 -17 z "},"ŀ":{"ha":833,"x_min":0,"x_max":0,"o":"m 511 -17 b 692 24 585 -17 629 -3 l 663 108 b 536 78 617 88 575 78 b 403 218 456 78 403 119 l 403 989 l 49 989 l 49 896 l 289 896 l 289 226 b 511 -17 289 67 368 -17 z m 790 396 b 882 485 842 396 882 431 b 790 574 882 538 842 574 b 699 485 739 574 699 538 b 790 396 699 431 739 396 z "},"ḿ":{"ha":833,"x_min":0,"x_max":0,"o":"m 81 0 l 194 0 l 194 489 b 306 593 228 558 258 593 b 375 475 356 593 375 553 l 375 0 l 481 0 l 481 489 b 589 593 517 558 542 593 b 661 475 639 593 661 553 l 661 0 l 775 0 l 775 483 b 625 692 775 618 719 692 b 467 575 547 692 506 647 b 339 692 447 653 406 692 b 185 586 261 692 219 649 l 182 586 l 172 675 l 81 675 z m 408 789 l 626 1001 l 546 1079 l 349 846 z "},"ṁ":{"ha":833,"x_min":0,"x_max":0,"o":"m 81 0 l 194 0 l 194 489 b 306 593 228 558 258 593 b 375 475 356 593 375 553 l 375 0 l 481 0 l 481 489 b 589 593 517 558 542 593 b 661 475 639 593 661 553 l 661 0 l 775 0 l 775 483 b 625 692 775 618 719 692 b 467 575 547 692 506 647 b 339 692 447 653 406 692 b 185 586 261 692 219 649 l 182 586 l 172 675 l 81 675 z m 438 817 b 529 906 489 817 529 851 b 438 994 529 958 489 994 b 346 906 386 994 346 958 b 438 817 346 851 386 817 z "},"ṃ":{"ha":833,"x_min":0,"x_max":0,"o":"m 81 0 l 194 0 l 194 489 b 306 593 228 558 258 593 b 375 475 356 593 375 553 l 375 0 l 481 0 l 481 489 b 589 593 517 558 542 593 b 661 475 639 593 661 553 l 661 0 l 775 0 l 775 483 b 625 692 775 618 719 692 b 467 575 547 692 506 647 b 339 692 447 653 406 692 b 185 586 261 692 219 649 l 182 586 l 172 675 l 81 675 z m 428 -299 b 519 -210 479 -299 519 -264 b 428 -121 519 -157 479 -121 b 336 -210 376 -121 336 -157 b 428 -299 336 -264 376 -299 z "},"ń":{"ha":833,"x_min":0,"x_max":0,"o":"m 129 0 l 243 0 l 243 471 b 457 593 322 553 376 593 b 613 404 568 593 613 532 l 613 0 l 726 0 l 726 419 b 493 692 726 597 653 692 b 239 560 388 692 310 635 l 233 560 l 224 675 l 129 675 z m 413 789 l 631 1001 l 550 1079 l 353 846 z "},"ǹ":{"ha":833,"x_min":0,"x_max":0,"o":"m 129 0 l 243 0 l 243 471 b 457 593 322 553 376 593 b 613 404 568 593 613 532 l 613 0 l 726 0 l 726 419 b 493 692 726 597 653 692 b 239 560 388 692 310 635 l 233 560 l 224 675 l 129 675 z m 471 789 l 531 846 l 333 1079 l 253 1001 z "},"ň":{"ha":833,"x_min":0,"x_max":0,"o":"m 129 0 l 243 0 l 243 471 b 457 593 322 553 376 593 b 613 404 568 593 613 532 l 613 0 l 726 0 l 726 419 b 493 692 726 597 653 692 b 239 560 388 692 310 635 l 233 560 l 224 675 l 129 675 z m 385 797 l 499 797 l 657 992 l 608 1036 l 444 879 l 439 879 l 275 1036 l 226 992 z "},"ñ":{"ha":833,"x_min":0,"x_max":0,"o":"m 129 0 l 243 0 l 243 471 b 457 593 322 553 376 593 b 613 404 568 593 613 532 l 613 0 l 726 0 l 726 419 b 493 692 726 597 653 692 b 239 560 388 692 310 635 l 233 560 l 224 675 l 129 675 z m 542 801 b 682 989 638 801 678 882 l 606 994 b 542 885 601 931 582 885 b 342 1001 476 885 440 1001 b 201 813 246 1001 206 921 l 278 808 b 343 918 282 874 301 918 b 542 801 407 918 443 801 z "},"ņ":{"ha":833,"x_min":0,"x_max":0,"o":"m 129 0 l 243 0 l 243 471 b 457 593 322 553 376 593 b 613 404 568 593 613 532 l 613 0 l 726 0 l 726 419 b 493 692 726 597 653 692 b 239 560 388 692 310 635 l 233 560 l 224 675 l 129 675 z m 314 -314 b 543 -187 461 -307 543 -268 b 381 -81 543 -125 501 -94 l 356 -133 b 454 -192 419 -139 454 -156 b 303 -258 454 -229 419 -250 z "},"ṅ":{"ha":833,"x_min":0,"x_max":0,"o":"m 129 0 l 243 0 l 243 471 b 457 593 322 553 376 593 b 613 404 568 593 613 532 l 613 0 l 726 0 l 726 419 b 493 692 726 597 653 692 b 239 560 388 692 310 635 l 233 560 l 224 675 l 129 675 z m 442 817 b 533 906 493 817 533 851 b 442 994 533 958 493 994 b 350 906 390 994 350 958 b 442 817 350 851 390 817 z "},"ṇ":{"ha":833,"x_min":0,"x_max":0,"o":"m 129 0 l 243 0 l 243 471 b 457 593 322 553 376 593 b 613 404 568 593 613 532 l 613 0 l 726 0 l 726 419 b 493 692 726 597 653 692 b 239 560 388 692 310 635 l 233 560 l 224 675 l 129 675 z m 435 -299 b 526 -210 486 -299 526 -264 b 435 -121 526 -157 486 -121 b 343 -210 383 -121 343 -157 b 435 -299 343 -264 383 -299 z "},"ṉ":{"ha":833,"x_min":0,"x_max":0,"o":"m 129 0 l 243 0 l 243 471 b 457 593 322 553 376 593 b 613 404 568 593 613 532 l 613 0 l 726 0 l 726 419 b 493 692 726 597 653 692 b 239 560 388 692 310 635 l 233 560 l 224 675 l 129 675 z m 250 -236 l 619 -236 l 619 -157 l 250 -157 z "},"ŉ":{"ha":833,"x_min":0,"x_max":0,"o":"m 272 0 l 386 0 l 386 481 b 579 593 458 554 507 593 b 715 413 675 593 715 535 l 715 0 l 831 0 l 831 428 b 615 692 831 600 761 692 b 382 569 517 692 447 638 l 376 569 l 367 675 l 272 675 z m 8 486 b 207 803 132 550 207 664 b 82 971 207 908 156 971 b -21 863 22 971 -21 926 b 78 764 -21 804 19 764 b 114 772 90 764 103 767 b -31 553 108 675 56 601 z "},"ò":{"ha":833,"x_min":0,"x_max":0,"o":"m 417 -17 b 750 336 594 -17 750 113 b 417 692 750 563 594 692 b 83 336 239 692 83 563 b 417 -17 83 113 239 -17 z m 417 78 b 201 336 288 78 201 182 b 417 597 201 492 288 597 b 632 336 546 597 632 492 b 417 78 632 182 546 78 z m 446 789 l 506 846 l 308 1079 l 228 1001 z "},"ó":{"ha":833,"x_min":0,"x_max":0,"o":"m 417 -17 b 750 336 594 -17 750 113 b 417 692 750 563 594 692 b 83 336 239 692 83 563 b 417 -17 83 113 239 -17 z m 417 78 b 201 336 288 78 201 182 b 417 597 201 492 288 597 b 632 336 546 597 632 492 b 417 78 632 182 546 78 z m 388 789 l 606 1001 l 525 1079 l 328 846 z "},"ô":{"ha":833,"x_min":0,"x_max":0,"o":"m 417 -17 b 750 336 594 -17 750 113 b 417 692 750 563 594 692 b 83 336 239 692 83 563 b 417 -17 83 113 239 -17 z m 417 78 b 201 336 288 78 201 182 b 417 597 201 492 288 597 b 632 336 546 597 632 492 b 417 78 632 182 546 78 z m 250 789 l 414 946 l 419 946 l 583 789 l 632 833 l 474 1028 l 360 1028 l 201 833 z "},"õ":{"ha":833,"x_min":0,"x_max":0,"o":"m 417 -17 b 750 336 594 -17 750 113 b 417 692 750 563 594 692 b 83 336 239 692 83 563 b 417 -17 83 113 239 -17 z m 417 78 b 201 336 288 78 201 182 b 417 597 201 492 288 597 b 632 336 546 597 632 492 b 417 78 632 182 546 78 z m 517 801 b 657 989 613 801 653 882 l 581 994 b 517 885 576 931 557 885 b 317 1001 451 885 415 1001 b 176 813 221 1001 181 921 l 253 808 b 318 918 257 874 276 918 b 517 801 382 918 418 801 z "},"ö":{"ha":833,"x_min":0,"x_max":0,"o":"m 417 -17 b 750 336 594 -17 750 113 b 417 692 750 563 594 692 b 83 336 239 692 83 563 b 417 -17 83 113 239 -17 z m 417 78 b 201 336 288 78 201 182 b 417 597 201 492 288 597 b 632 336 546 597 632 492 b 417 78 632 182 546 78 z m 282 817 b 358 894 326 817 358 850 b 282 972 358 938 326 972 b 206 894 238 972 206 938 b 282 817 206 850 238 817 z m 551 817 b 628 894 596 817 628 850 b 551 972 628 938 596 972 b 475 894 507 972 475 938 b 551 817 475 850 507 817 z "},"ō":{"ha":833,"x_min":0,"x_max":0,"o":"m 417 -17 b 750 336 594 -17 750 113 b 417 692 750 563 594 692 b 83 336 239 692 83 563 b 417 -17 83 113 239 -17 z m 417 78 b 201 336 288 78 201 182 b 417 597 201 492 288 597 b 632 336 546 597 632 492 b 417 78 632 182 546 78 z m 232 835 l 601 835 l 601 914 l 232 914 z "},"ő":{"ha":833,"x_min":0,"x_max":0,"o":"m 417 -17 b 750 336 594 -17 750 113 b 417 692 750 563 594 692 b 83 336 239 692 83 563 b 417 -17 83 113 239 -17 z m 417 78 b 201 336 288 78 201 182 b 417 597 201 492 288 597 b 632 336 546 597 632 492 b 417 78 632 182 546 78 z m 338 789 l 475 1018 l 394 1057 l 274 818 z m 547 789 l 685 1018 l 604 1057 l 483 818 z "},"ǒ":{"ha":833,"x_min":0,"x_max":0,"o":"m 417 -17 b 750 336 594 -17 750 113 b 417 692 750 563 594 692 b 83 336 239 692 83 563 b 417 -17 83 113 239 -17 z m 417 78 b 201 336 288 78 201 182 b 417 597 201 492 288 597 b 632 336 546 597 632 492 b 417 78 632 182 546 78 z m 360 797 l 474 797 l 632 992 l 583 1036 l 419 879 l 414 879 l 250 1036 l 201 992 z "},"ǫ":{"ha":833,"x_min":0,"x_max":0,"o":"m 450 -312 b 582 -262 507 -312 550 -292 l 549 -208 b 474 -237 532 -224 508 -237 b 394 -161 435 -237 394 -214 b 513 -4 394 -104 438 -37 b 750 336 656 58 750 149 b 417 692 750 563 594 692 b 83 336 239 692 83 563 b 404 -15 83 128 219 -7 b 310 -183 356 -54 310 -111 b 450 -312 310 -271 371 -312 z m 417 76 b 201 336 288 76 201 181 b 417 597 201 492 288 597 b 632 336 546 597 632 492 b 417 76 632 181 546 76 z "},"ọ":{"ha":833,"x_min":0,"x_max":0,"o":"m 417 -17 b 750 336 594 -17 750 113 b 417 692 750 563 594 692 b 83 336 239 692 83 563 b 417 -17 83 113 239 -17 z m 417 78 b 201 336 288 78 201 182 b 417 597 201 492 288 597 b 632 336 546 597 632 492 b 417 78 632 182 546 78 z m 417 -299 b 508 -210 468 -299 508 -264 b 417 -121 508 -157 468 -121 b 325 -210 365 -121 325 -157 b 417 -299 325 -264 365 -299 z "},"ỏ":{"ha":833,"x_min":0,"x_max":0,"o":"m 417 -17 b 750 336 594 -17 750 113 b 417 692 750 563 594 692 b 83 336 239 692 83 563 b 417 -17 83 113 239 -17 z m 417 78 b 201 336 288 78 201 182 b 417 597 201 492 288 597 b 632 336 546 597 632 492 b 417 78 632 182 546 78 z m 372 794 b 528 925 453 810 528 844 b 329 1056 528 1007 456 1053 l 322 981 b 438 915 400 976 438 956 b 360 850 438 879 404 861 z "},"ố":{"ha":833,"x_min":0,"x_max":0,"o":"m 417 -17 b 750 336 594 -17 750 113 b 417 692 750 563 594 692 b 83 336 239 692 83 563 b 417 -17 83 113 239 -17 z m 417 78 b 201 336 288 78 201 182 b 417 597 201 492 288 597 b 632 336 546 597 632 492 b 417 78 632 182 546 78 z m 271 792 l 414 892 l 419 892 l 563 792 l 603 839 l 464 967 l 369 967 l 231 839 z m 603 885 l 743 1043 l 675 1090 l 554 924 z "},"ồ":{"ha":833,"x_min":0,"x_max":0,"o":"m 417 -17 b 750 336 594 -17 750 113 b 417 692 750 563 594 692 b 83 336 239 692 83 563 b 417 -17 83 113 239 -17 z m 417 78 b 201 336 288 78 201 182 b 417 597 201 492 288 597 b 632 336 546 597 632 492 b 417 78 632 182 546 78 z m 271 792 l 414 892 l 419 892 l 563 792 l 603 839 l 464 967 l 369 967 l 231 839 z m 231 885 l 279 928 l 140 1090 l 74 1040 z "},"ổ":{"ha":833,"x_min":0,"x_max":0,"o":"m 417 -17 b 750 336 594 -17 750 113 b 417 692 750 563 594 692 b 83 336 239 692 83 563 b 417 -17 83 113 239 -17 z m 417 78 b 201 336 288 78 201 182 b 417 597 201 492 288 597 b 632 336 546 597 632 492 b 417 78 632 182 546 78 z m 271 792 l 414 892 l 419 892 l 563 792 l 603 839 l 464 967 l 369 967 l 231 839 z m 578 882 b 707 997 643 897 707 924 b 538 1099 707 1063 646 1096 l 528 1042 b 624 985 596 1039 624 1021 b 565 931 624 956 600 940 z "},"ỗ":{"ha":833,"x_min":0,"x_max":0,"o":"m 417 -17 b 750 336 594 -17 750 113 b 417 692 750 563 594 692 b 83 336 239 692 83 563 b 417 -17 83 113 239 -17 z m 417 78 b 201 336 288 78 201 182 b 417 597 201 492 288 597 b 632 336 546 597 632 492 b 417 78 632 182 546 78 z m 271 792 l 414 888 l 419 888 l 563 792 l 603 839 l 464 961 l 369 961 l 231 839 z m 507 986 b 607 1110 572 986 600 1039 l 547 1115 b 501 1057 540 1075 529 1057 b 326 1115 449 1057 408 1115 b 226 992 261 1115 233 1064 l 286 986 b 332 1044 293 1026 304 1044 b 507 986 385 1044 426 986 z "},"ộ":{"ha":833,"x_min":0,"x_max":0,"o":"m 417 -17 b 750 336 594 -17 750 113 b 417 692 750 563 594 692 b 83 336 239 692 83 563 b 417 -17 83 113 239 -17 z m 417 78 b 201 336 288 78 201 182 b 417 597 201 492 288 597 b 632 336 546 597 632 492 b 417 78 632 182 546 78 z m 250 789 l 414 946 l 419 946 l 583 789 l 632 833 l 474 1028 l 360 1028 l 201 833 z m 417 -299 b 508 -210 468 -299 508 -264 b 417 -121 508 -157 468 -121 b 325 -210 365 -121 325 -157 b 417 -299 325 -264 365 -299 z "},"ŏ":{"ha":833,"x_min":0,"x_max":0,"o":"m 417 -17 b 750 336 594 -17 750 113 b 417 692 750 563 594 692 b 83 336 239 692 83 563 b 417 -17 83 113 239 -17 z m 417 78 b 201 336 288 78 201 182 b 417 597 201 492 288 597 b 632 336 546 597 632 492 b 417 78 632 182 546 78 z m 417 793 b 633 1003 565 793 626 900 l 563 1014 b 417 869 551 943 507 869 b 271 1014 326 869 282 943 l 200 1003 b 417 793 207 900 268 793 z "},"ṓ":{"ha":833,"x_min":0,"x_max":0,"o":"m 417 -17 b 750 336 594 -17 750 113 b 417 692 750 563 594 692 b 83 336 239 692 83 563 b 417 -17 83 113 239 -17 z m 417 78 b 201 336 288 78 201 182 b 417 597 201 492 288 597 b 632 336 546 597 632 492 b 417 78 632 182 546 78 z m 232 835 l 601 835 l 601 914 l 232 914 z m 369 979 l 565 1103 l 513 1171 l 325 1033 z "},"ơ":{"ha":833,"x_min":0,"x_max":0,"o":"m 417 -17 b 750 336 594 -17 750 113 b 628 618 750 463 701 558 b 776 808 708 644 776 701 b 744 922 776 850 764 890 l 656 881 b 676 800 669 858 676 828 b 557 663 676 721 633 679 b 417 692 514 682 467 692 b 83 336 239 692 83 563 b 417 -17 83 113 239 -17 z m 417 78 b 201 336 288 78 201 182 b 417 597 201 492 288 597 b 632 336 546 597 632 492 b 417 78 632 182 546 78 z "},"ớ":{"ha":833,"x_min":0,"x_max":0,"o":"m 417 -17 b 750 336 594 -17 750 113 b 628 618 750 463 701 558 b 776 808 708 644 776 701 b 744 922 776 850 764 890 l 656 881 b 676 800 669 858 676 828 b 557 663 676 721 633 679 b 417 692 514 682 467 692 b 83 336 239 692 83 563 b 417 -17 83 113 239 -17 z m 417 78 b 201 336 288 78 201 182 b 417 597 201 492 288 597 b 632 336 546 597 632 492 b 417 78 632 182 546 78 z m 388 789 l 606 1001 l 525 1079 l 328 846 z "},"ờ":{"ha":833,"x_min":0,"x_max":0,"o":"m 417 -17 b 750 336 594 -17 750 113 b 628 618 750 463 701 558 b 776 808 708 644 776 701 b 744 922 776 850 764 890 l 656 881 b 676 800 669 858 676 828 b 557 663 676 721 633 679 b 417 692 514 682 467 692 b 83 336 239 692 83 563 b 417 -17 83 113 239 -17 z m 417 78 b 201 336 288 78 201 182 b 417 597 201 492 288 597 b 632 336 546 597 632 492 b 417 78 632 182 546 78 z m 446 789 l 506 846 l 308 1079 l 228 1001 z "},"ở":{"ha":833,"x_min":0,"x_max":0,"o":"m 417 -17 b 750 336 594 -17 750 113 b 628 618 750 463 701 558 b 776 808 708 644 776 701 b 744 922 776 850 764 890 l 656 881 b 676 800 669 858 676 828 b 557 663 676 721 633 679 b 417 692 514 682 467 692 b 83 336 239 692 83 563 b 417 -17 83 113 239 -17 z m 372 794 b 528 925 453 810 528 844 b 329 1056 528 1007 456 1053 l 322 981 b 438 915 400 976 438 956 b 360 850 438 879 404 861 z m 417 78 b 201 336 288 78 201 182 b 417 597 201 492 288 597 b 632 336 546 597 632 492 b 417 78 632 182 546 78 z "},"ỡ":{"ha":833,"x_min":0,"x_max":0,"o":"m 417 -17 b 750 336 594 -17 750 113 b 628 618 750 463 701 558 b 776 808 708 644 776 701 b 744 922 776 850 764 890 l 656 881 b 676 800 669 858 676 828 b 557 663 676 721 633 679 b 417 692 514 682 467 692 b 83 336 239 692 83 563 b 417 -17 83 113 239 -17 z m 417 78 b 201 336 288 78 201 182 b 417 597 201 492 288 597 b 632 336 546 597 632 492 b 417 78 632 182 546 78 z m 489 801 b 629 989 585 801 625 882 l 553 994 b 489 885 549 931 529 885 b 289 1001 424 885 388 1001 b 149 813 193 1001 153 921 l 225 808 b 290 918 229 874 249 918 b 489 801 354 918 390 801 z "},"ợ":{"ha":833,"x_min":0,"x_max":0,"o":"m 417 -17 b 750 336 594 -17 750 113 b 628 618 750 463 701 558 b 776 808 708 644 776 701 b 744 922 776 850 764 890 l 656 881 b 676 800 669 858 676 828 b 557 663 676 721 633 679 b 417 692 514 682 467 692 b 83 336 239 692 83 563 b 417 -17 83 113 239 -17 z m 417 -299 b 508 -210 468 -299 508 -264 b 417 -121 508 -157 468 -121 b 325 -210 365 -121 325 -157 b 417 -299 325 -264 365 -299 z m 417 78 b 201 336 288 78 201 182 b 417 597 201 492 288 597 b 632 336 546 597 632 492 b 417 78 632 182 546 78 z "},"ø":{"ha":833,"x_min":0,"x_max":0,"o":"m 201 336 b 417 600 201 492 288 600 b 544 554 467 600 511 583 l 233 189 b 201 336 213 231 201 281 z m 150 -42 l 222 43 b 417 -17 278 4 346 -17 b 750 336 594 -17 750 113 b 674 572 750 433 721 514 l 747 658 l 683 717 l 611 632 b 417 692 556 671 488 692 b 83 336 239 692 83 563 b 160 103 83 240 113 161 l 86 17 z m 417 75 b 288 119 367 75 322 92 l 600 485 b 632 336 621 444 632 393 b 417 75 632 182 546 75 z "},"ǿ":{"ha":833,"x_min":0,"x_max":0,"o":"m 201 336 b 417 600 201 492 288 600 b 544 554 467 600 511 583 l 233 189 b 201 336 213 231 201 281 z m 150 -42 l 222 43 b 417 -17 278 4 346 -17 b 750 336 594 -17 750 113 b 674 572 750 433 721 514 l 747 658 l 683 717 l 611 632 b 417 692 556 671 488 692 b 83 336 239 692 83 563 b 160 103 83 240 113 161 l 86 17 z m 388 789 l 606 1001 l 525 1079 l 328 846 z m 417 75 b 288 119 367 75 322 92 l 600 485 b 632 336 621 444 632 393 b 417 75 632 182 546 75 z "},"œ":{"ha":833,"x_min":0,"x_max":0,"o":"m 261 78 b 122 336 171 78 122 182 b 261 597 122 493 171 597 b 394 338 342 597 394 492 b 261 78 394 183 342 78 z m 619 601 b 736 394 693 601 732 533 l 483 394 b 619 601 493 532 547 601 z m 254 -17 b 439 146 339 -17 400 33 b 643 -17 476 33 553 -17 b 808 43 707 -17 765 10 l 767 121 b 647 76 731 96 694 76 b 482 306 557 76 490 151 l 824 306 b 829 383 826 329 829 357 b 629 692 829 550 763 692 b 438 525 543 692 474 639 b 256 692 401 639 340 692 b 15 336 119 692 15 563 b 254 -17 15 113 118 -17 z "},"ŕ":{"ha":833,"x_min":0,"x_max":0,"o":"m 203 0 l 317 0 l 317 396 b 594 589 397 536 493 589 b 719 565 647 589 672 582 l 746 664 b 613 692 704 685 663 692 b 311 515 488 692 382 624 l 307 515 l 297 675 l 203 675 z m 451 789 l 669 1001 l 589 1079 l 392 846 z "},"ŗ":{"ha":833,"x_min":0,"x_max":0,"o":"m 203 0 l 317 0 l 317 396 b 594 589 397 536 493 589 b 719 565 647 589 672 582 l 746 664 b 613 692 704 685 663 692 b 311 515 488 692 382 624 l 307 515 l 297 675 l 203 675 z m 153 -314 b 382 -187 300 -307 382 -268 b 219 -81 382 -125 340 -94 l 194 -133 b 293 -192 258 -139 293 -156 b 142 -258 293 -229 258 -250 z "},"ř":{"ha":833,"x_min":0,"x_max":0,"o":"m 203 0 l 317 0 l 317 396 b 594 589 397 536 493 589 b 719 565 647 589 672 582 l 746 664 b 613 692 704 685 663 692 b 311 515 488 692 382 624 l 307 515 l 297 675 l 203 675 z m 424 797 l 538 797 l 696 992 l 647 1036 l 483 879 l 478 879 l 314 1036 l 265 992 z "},"ṙ":{"ha":833,"x_min":0,"x_max":0,"o":"m 203 0 l 317 0 l 317 396 b 594 589 397 536 493 589 b 719 565 647 589 672 582 l 746 664 b 613 692 704 685 663 692 b 311 515 488 692 382 624 l 307 515 l 297 675 l 203 675 z m 481 817 b 572 906 532 817 572 851 b 481 994 572 958 532 994 b 389 906 429 994 389 958 b 481 817 389 851 429 817 z "},"ṛ":{"ha":833,"x_min":0,"x_max":0,"o":"m 203 0 l 317 0 l 317 396 b 594 589 397 536 493 589 b 719 565 647 589 672 582 l 746 664 b 613 692 704 685 663 692 b 311 515 488 692 382 624 l 307 515 l 297 675 l 203 675 z m 274 -299 b 365 -210 325 -299 365 -264 b 274 -121 365 -157 325 -121 b 182 -210 222 -121 182 -157 b 274 -299 182 -264 222 -299 z "},"ṝ":{"ha":833,"x_min":0,"x_max":0,"o":"m 203 0 l 317 0 l 317 396 b 594 589 397 536 493 589 b 719 565 647 589 672 582 l 746 664 b 613 692 704 685 663 692 b 311 515 488 692 382 624 l 307 515 l 297 675 l 203 675 z m 296 835 l 665 835 l 665 914 l 296 914 z m 274 -299 b 365 -210 325 -299 365 -264 b 274 -121 365 -157 325 -121 b 182 -210 222 -121 182 -157 b 274 -299 182 -264 222 -299 z "},"ṟ":{"ha":833,"x_min":0,"x_max":0,"o":"m 203 0 l 317 0 l 317 396 b 594 589 397 536 493 589 b 719 565 647 589 672 582 l 746 664 b 613 692 704 685 663 692 b 311 515 488 692 382 624 l 307 515 l 297 675 l 203 675 z m 89 -236 l 458 -236 l 458 -157 l 89 -157 z "},"ś":{"ha":833,"x_min":0,"x_max":0,"o":"m 431 -17 b 731 185 624 -17 731 75 b 451 393 731 288 676 344 b 256 506 314 422 256 447 b 411 603 256 557 296 603 b 638 532 497 603 575 575 l 693 606 b 421 692 626 651 524 692 b 140 500 236 692 140 608 b 404 303 140 399 229 339 b 615 178 588 265 615 229 b 444 72 615 121 558 72 b 151 164 319 72 229 108 l 99 89 b 431 -17 181 32 299 -17 z m 392 789 l 610 1001 l 529 1079 l 332 846 z "},"ŝ":{"ha":833,"x_min":0,"x_max":0,"o":"m 431 -17 b 731 185 624 -17 731 75 b 451 393 731 288 676 344 b 256 506 314 422 256 447 b 411 603 256 557 296 603 b 638 532 497 603 575 575 l 693 606 b 421 692 626 651 524 692 b 140 500 236 692 140 608 b 404 303 140 399 229 339 b 615 178 588 265 615 229 b 444 72 615 121 558 72 b 151 164 319 72 229 108 l 99 89 b 431 -17 181 32 299 -17 z m 254 789 l 418 946 l 424 946 l 588 789 l 636 833 l 478 1028 l 364 1028 l 206 833 z "},"š":{"ha":833,"x_min":0,"x_max":0,"o":"m 431 -17 b 731 185 624 -17 731 75 b 451 393 731 288 676 344 b 256 506 314 422 256 447 b 411 603 256 557 296 603 b 638 532 497 603 575 575 l 693 606 b 421 692 626 651 524 692 b 140 500 236 692 140 608 b 404 303 140 399 229 339 b 615 178 588 265 615 229 b 444 72 615 121 558 72 b 151 164 319 72 229 108 l 99 89 b 431 -17 181 32 299 -17 z m 364 797 l 478 797 l 636 992 l 588 1036 l 424 879 l 418 879 l 254 1036 l 206 992 z "},"ṧ":{"ha":833,"x_min":0,"x_max":0,"o":"m 431 -17 b 731 185 624 -17 731 75 b 451 393 731 288 676 344 b 256 506 314 422 256 447 b 411 603 256 557 296 603 b 638 532 497 603 575 575 l 693 606 b 421 692 626 651 524 692 b 140 500 236 692 140 608 b 404 303 140 399 229 339 b 615 178 588 265 615 229 b 444 72 615 121 558 72 b 151 164 319 72 229 108 l 99 89 b 431 -17 181 32 299 -17 z m 421 974 b 499 1051 465 974 499 1004 b 421 1129 499 1099 465 1129 b 343 1051 376 1129 343 1099 b 421 974 343 1004 376 974 z m 364 797 l 478 797 l 636 992 l 593 1031 l 424 871 l 418 871 l 249 1031 l 206 992 z "},"ş":{"ha":833,"x_min":0,"x_max":0,"o":"m 315 -314 b 544 -187 463 -307 544 -268 b 443 -89 544 -131 507 -104 l 469 -15 b 731 185 638 -4 731 82 b 451 393 731 288 676 344 b 256 506 314 422 256 447 b 411 603 256 557 296 603 b 638 532 497 603 575 575 l 693 606 b 421 692 626 651 524 692 b 140 500 236 692 140 608 b 404 303 140 399 229 339 b 615 178 588 265 615 229 b 444 72 615 121 558 72 b 151 164 319 72 229 108 l 99 89 b 393 -15 172 38 276 -7 l 349 -122 b 456 -189 428 -133 456 -153 b 304 -258 456 -229 421 -250 z "},"ș":{"ha":833,"x_min":0,"x_max":0,"o":"m 431 -17 b 731 185 624 -17 731 75 b 451 393 731 288 676 344 b 256 506 314 422 256 447 b 411 603 256 557 296 603 b 638 532 497 603 575 575 l 693 606 b 421 692 626 651 524 692 b 140 500 236 692 140 608 b 404 303 140 399 229 339 b 615 178 588 265 615 229 b 444 72 615 121 558 72 b 151 164 319 72 229 108 l 99 89 b 431 -17 181 32 299 -17 z m 308 -314 b 538 -187 456 -307 538 -268 b 375 -81 538 -125 496 -94 l 350 -133 b 449 -192 414 -139 449 -156 b 297 -258 449 -229 414 -250 z "},"ṡ":{"ha":833,"x_min":0,"x_max":0,"o":"m 431 -17 b 731 185 624 -17 731 75 b 451 393 731 288 676 344 b 256 506 314 422 256 447 b 411 603 256 557 296 603 b 638 532 497 603 575 575 l 693 606 b 421 692 626 651 524 692 b 140 500 236 692 140 608 b 404 303 140 399 229 339 b 615 178 588 265 615 229 b 444 72 615 121 558 72 b 151 164 319 72 229 108 l 99 89 b 431 -17 181 32 299 -17 z m 421 817 b 513 906 472 817 513 851 b 421 994 513 958 472 994 b 329 906 369 994 329 958 b 421 817 329 851 369 817 z "},"ṣ":{"ha":833,"x_min":0,"x_max":0,"o":"m 431 -17 b 731 185 624 -17 731 75 b 451 393 731 288 676 344 b 256 506 314 422 256 447 b 411 603 256 557 296 603 b 638 532 497 603 575 575 l 693 606 b 421 692 626 651 524 692 b 140 500 236 692 140 608 b 404 303 140 399 229 339 b 615 178 588 265 615 229 b 444 72 615 121 558 72 b 151 164 319 72 229 108 l 99 89 b 431 -17 181 32 299 -17 z m 429 -299 b 521 -210 481 -299 521 -264 b 429 -121 521 -157 481 -121 b 338 -210 378 -121 338 -157 b 429 -299 338 -264 378 -299 z "},"ß":{"ha":833,"x_min":0,"x_max":0,"o":"m 557 -17 b 783 190 694 -17 783 74 b 504 519 783 410 504 385 b 629 800 504 615 629 661 b 401 1006 629 910 549 1006 b 122 721 228 1006 122 892 l 122 0 l 236 0 l 236 704 b 400 913 236 842 299 913 b 519 793 476 913 519 861 b 394 506 519 675 394 632 b 675 181 394 313 675 342 b 554 72 675 124 632 72 b 403 126 500 72 454 90 l 357 46 b 557 -17 415 7 479 -17 z "},"ſ":{"ha":833,"x_min":0,"x_max":0,"o":"m 336 0 l 449 0 l 449 736 b 619 913 449 846 499 913 b 776 881 678 913 721 906 l 803 967 b 608 1006 739 993 675 1006 b 336 732 422 1006 336 897 l 336 675 l 143 668 l 143 582 l 336 582 z "},"ť":{"ha":833,"x_min":0,"x_max":0,"o":"m 547 -17 b 758 24 632 -17 697 1 l 733 107 b 571 76 685 89 635 76 b 400 261 440 76 400 140 l 400 582 l 732 582 l 732 675 l 400 675 l 400 892 l 306 892 l 290 675 l 96 668 l 96 582 l 286 582 l 286 263 b 547 -17 286 96 350 -17 z m 554 761 l 633 761 l 653 1021 l 653 1133 l 550 1133 z "},"ţ":{"ha":833,"x_min":0,"x_max":0,"o":"m 419 -314 b 649 -187 567 -307 649 -268 b 547 -89 649 -131 611 -104 l 574 -17 b 758 24 646 -12 704 4 l 733 107 b 571 76 685 89 635 76 b 400 261 440 76 400 140 l 400 582 l 732 582 l 732 675 l 400 675 l 400 892 l 306 892 l 290 675 l 96 668 l 96 582 l 286 582 l 286 263 b 497 -14 286 111 339 4 l 453 -122 b 560 -189 532 -133 560 -153 b 408 -258 560 -229 525 -250 z "},"ț":{"ha":833,"x_min":0,"x_max":0,"o":"m 547 -17 b 758 24 632 -17 697 1 l 733 107 b 571 76 685 89 635 76 b 400 261 440 76 400 140 l 400 582 l 732 582 l 732 675 l 400 675 l 400 892 l 306 892 l 290 675 l 96 668 l 96 582 l 286 582 l 286 263 b 547 -17 286 96 350 -17 z m 406 -314 b 635 -187 553 -307 635 -268 b 472 -81 635 -125 593 -94 l 447 -133 b 546 -192 511 -139 546 -156 b 394 -258 546 -229 511 -250 z "},"ṭ":{"ha":833,"x_min":0,"x_max":0,"o":"m 547 -17 b 758 24 632 -17 697 1 l 733 107 b 571 76 685 89 635 76 b 400 261 440 76 400 140 l 400 582 l 732 582 l 732 675 l 400 675 l 400 892 l 306 892 l 290 675 l 96 668 l 96 582 l 286 582 l 286 263 b 547 -17 286 96 350 -17 z m 526 -299 b 618 -210 578 -299 618 -264 b 526 -121 618 -157 578 -121 b 435 -210 475 -121 435 -157 b 526 -299 435 -264 475 -299 z "},"ṯ":{"ha":833,"x_min":0,"x_max":0,"o":"m 547 -17 b 758 24 632 -17 697 1 l 733 107 b 571 76 685 89 635 76 b 400 261 440 76 400 140 l 400 582 l 732 582 l 732 675 l 400 675 l 400 892 l 306 892 l 290 675 l 96 668 l 96 582 l 286 582 l 286 263 b 547 -17 286 96 350 -17 z m 342 -236 l 711 -236 l 711 -157 l 342 -157 z "},"ẗ":{"ha":833,"x_min":0,"x_max":0,"o":"m 547 -17 b 758 24 632 -17 697 1 l 733 107 b 571 76 685 89 635 76 b 400 261 440 76 400 140 l 400 582 l 732 582 l 732 675 l 400 675 l 400 892 l 306 892 l 290 675 l 96 668 l 96 582 l 286 582 l 286 263 b 547 -17 286 96 350 -17 z m 229 1004 b 306 1082 274 1004 306 1038 b 229 1160 306 1125 274 1160 b 153 1082 185 1160 153 1125 b 229 1004 153 1038 185 1004 z m 499 1004 b 575 1082 543 1004 575 1038 b 499 1160 575 1125 543 1160 b 422 1082 454 1160 422 1125 b 499 1004 422 1038 454 1004 z "},"ŧ":{"ha":833,"x_min":0,"x_max":0,"o":"m 547 -17 b 758 24 632 -17 697 1 l 733 107 b 571 76 685 89 635 76 b 400 261 440 76 400 140 l 400 306 l 706 306 l 706 394 l 400 394 l 400 582 l 732 582 l 732 675 l 400 675 l 400 892 l 306 892 l 290 675 l 96 668 l 96 582 l 286 582 l 286 394 l 97 386 l 97 306 l 286 306 l 286 263 b 547 -17 286 96 350 -17 z "},"ù":{"ha":833,"x_min":0,"x_max":0,"o":"m 342 -17 b 593 118 446 -17 525 39 l 599 118 l 608 0 l 701 0 l 701 675 l 588 675 l 588 207 b 378 82 513 119 456 82 b 222 271 265 82 222 143 l 222 675 l 107 675 l 107 256 b 342 -17 107 78 181 -17 z m 439 789 l 499 846 l 301 1079 l 221 1001 z "},"ú":{"ha":833,"x_min":0,"x_max":0,"o":"m 342 -17 b 593 118 446 -17 525 39 l 599 118 l 608 0 l 701 0 l 701 675 l 588 675 l 588 207 b 378 82 513 119 456 82 b 222 271 265 82 222 143 l 222 675 l 107 675 l 107 256 b 342 -17 107 78 181 -17 z m 381 789 l 599 1001 l 518 1079 l 321 846 z "},"û":{"ha":833,"x_min":0,"x_max":0,"o":"m 342 -17 b 593 118 446 -17 525 39 l 599 118 l 608 0 l 701 0 l 701 675 l 588 675 l 588 207 b 378 82 513 119 456 82 b 222 271 265 82 222 143 l 222 675 l 107 675 l 107 256 b 342 -17 107 78 181 -17 z m 243 789 l 407 946 l 413 946 l 576 789 l 625 833 l 467 1028 l 353 1028 l 194 833 z "},"ũ":{"ha":833,"x_min":0,"x_max":0,"o":"m 342 -17 b 593 118 446 -17 525 39 l 599 118 l 608 0 l 701 0 l 701 675 l 588 675 l 588 207 b 378 82 513 119 456 82 b 222 271 265 82 222 143 l 222 675 l 107 675 l 107 256 b 342 -17 107 78 181 -17 z m 510 801 b 650 989 606 801 646 882 l 574 994 b 510 885 569 931 550 885 b 310 1001 444 885 408 1001 b 169 813 214 1001 174 921 l 246 808 b 311 918 250 874 269 918 b 510 801 375 918 411 801 z "},"ü":{"ha":833,"x_min":0,"x_max":0,"o":"m 342 -17 b 593 118 446 -17 525 39 l 599 118 l 608 0 l 701 0 l 701 675 l 588 675 l 588 207 b 378 82 513 119 456 82 b 222 271 265 82 222 143 l 222 675 l 107 675 l 107 256 b 342 -17 107 78 181 -17 z m 275 817 b 351 894 319 817 351 850 b 275 972 351 938 319 972 b 199 894 231 972 199 938 b 275 817 199 850 231 817 z m 544 817 b 621 894 589 817 621 850 b 544 972 621 938 589 972 b 468 894 500 972 468 938 b 544 817 468 850 500 817 z "},"ū":{"ha":833,"x_min":0,"x_max":0,"o":"m 342 -17 b 593 118 446 -17 525 39 l 599 118 l 608 0 l 701 0 l 701 675 l 588 675 l 588 207 b 378 82 513 119 456 82 b 222 271 265 82 222 143 l 222 675 l 107 675 l 107 256 b 342 -17 107 78 181 -17 z m 225 835 l 594 835 l 594 914 l 225 914 z "},"ŭ":{"ha":833,"x_min":0,"x_max":0,"o":"m 342 -17 b 593 118 446 -17 525 39 l 599 118 l 608 0 l 701 0 l 701 675 l 588 675 l 588 207 b 378 82 513 119 456 82 b 222 271 265 82 222 143 l 222 675 l 107 675 l 107 256 b 342 -17 107 78 181 -17 z m 410 793 b 626 1003 558 793 619 900 l 556 1014 b 410 869 544 943 500 869 b 264 1014 319 869 275 943 l 193 1003 b 410 793 200 900 261 793 z "},"ů":{"ha":833,"x_min":0,"x_max":0,"o":"m 342 -17 b 593 118 446 -17 525 39 l 599 118 l 608 0 l 701 0 l 701 675 l 588 675 l 588 207 b 378 82 513 119 456 82 b 222 271 265 82 222 143 l 222 675 l 107 675 l 107 256 b 342 -17 107 78 181 -17 z m 410 790 b 563 924 506 790 563 849 b 410 1057 563 999 506 1057 b 257 924 314 1057 257 999 b 410 790 257 849 314 790 z m 410 842 b 331 924 365 842 331 878 b 410 1006 331 971 365 1006 b 489 924 454 1006 489 971 b 410 842 489 878 454 842 z "},"ű":{"ha":833,"x_min":0,"x_max":0,"o":"m 342 -17 b 593 118 446 -17 525 39 l 599 118 l 608 0 l 701 0 l 701 675 l 588 675 l 588 207 b 378 82 513 119 456 82 b 222 271 265 82 222 143 l 222 675 l 107 675 l 107 256 b 342 -17 107 78 181 -17 z m 331 789 l 468 1018 l 388 1057 l 267 818 z m 540 789 l 678 1018 l 597 1057 l 476 818 z "},"ǔ":{"ha":833,"x_min":0,"x_max":0,"o":"m 342 -17 b 593 118 446 -17 525 39 l 599 118 l 608 0 l 701 0 l 701 675 l 588 675 l 588 207 b 378 82 513 119 456 82 b 222 271 265 82 222 143 l 222 675 l 107 675 l 107 256 b 342 -17 107 78 181 -17 z m 353 797 l 467 797 l 625 992 l 576 1036 l 413 879 l 407 879 l 243 1036 l 194 992 z "},"ų":{"ha":833,"x_min":0,"x_max":0,"o":"m 619 -312 b 749 -262 672 -312 717 -293 l 715 -208 b 643 -237 699 -225 674 -237 b 561 -161 601 -237 561 -212 b 701 -7 561 -107 601 -51 l 701 675 l 588 675 l 588 207 b 378 82 513 119 456 82 b 222 271 265 82 222 143 l 222 675 l 107 675 l 107 256 b 342 -17 107 78 181 -17 b 593 118 446 -17 525 39 l 599 118 l 608 0 b 476 -183 536 -44 476 -104 b 619 -312 476 -271 539 -312 z "},"ǖ":{"ha":833,"x_min":0,"x_max":0,"o":"m 342 -17 b 593 118 446 -17 525 39 l 599 118 l 608 0 l 701 0 l 701 675 l 588 675 l 588 207 b 378 82 513 119 456 82 b 222 271 265 82 222 143 l 222 675 l 107 675 l 107 256 b 342 -17 107 78 181 -17 z m 276 817 b 339 879 313 817 339 844 b 276 943 339 915 313 943 b 213 879 240 943 213 915 b 276 817 213 844 240 817 z m 543 817 b 607 879 579 817 607 844 b 543 943 607 915 579 943 b 481 879 507 943 481 915 b 543 817 481 844 507 817 z m 224 1042 l 594 1042 l 594 1107 l 224 1107 z "},"ǘ":{"ha":833,"x_min":0,"x_max":0,"o":"m 342 -17 b 593 118 446 -17 525 39 l 599 118 l 608 0 l 701 0 l 701 675 l 588 675 l 588 207 b 378 82 513 119 456 82 b 222 271 265 82 222 143 l 222 675 l 107 675 l 107 256 b 342 -17 107 78 181 -17 z m 276 817 b 339 879 313 817 339 844 b 276 943 339 915 313 943 b 213 879 240 943 213 915 b 276 817 213 844 240 817 z m 543 817 b 607 879 579 817 607 844 b 543 943 607 915 579 943 b 481 879 507 943 481 915 b 543 817 481 844 507 817 z m 400 979 l 533 1125 l 465 1172 l 351 1013 z "},"ǚ":{"ha":833,"x_min":0,"x_max":0,"o":"m 342 -17 b 593 118 446 -17 525 39 l 599 118 l 608 0 l 701 0 l 701 675 l 588 675 l 588 207 b 378 82 513 119 456 82 b 222 271 265 82 222 143 l 222 675 l 107 675 l 107 256 b 342 -17 107 78 181 -17 z m 276 817 b 339 879 313 817 339 844 b 276 943 339 915 313 943 b 213 879 240 943 213 915 b 276 817 213 844 240 817 z m 543 817 b 607 879 579 817 607 844 b 543 943 607 915 579 943 b 481 879 507 943 481 915 b 543 817 481 844 507 817 z m 363 1000 l 457 1000 l 588 1128 l 546 1167 l 413 1065 l 407 1065 l 274 1167 l 232 1128 z "},"ǜ":{"ha":833,"x_min":0,"x_max":0,"o":"m 342 -17 b 593 118 446 -17 525 39 l 599 118 l 608 0 l 701 0 l 701 675 l 588 675 l 588 207 b 378 82 513 119 456 82 b 222 271 265 82 222 143 l 222 675 l 107 675 l 107 256 b 342 -17 107 78 181 -17 z m 276 817 b 339 879 313 817 339 844 b 276 943 339 915 313 943 b 213 879 240 943 213 915 b 276 817 213 844 240 817 z m 543 817 b 607 879 579 817 607 844 b 543 943 607 915 579 943 b 481 879 507 943 481 915 b 543 817 481 844 507 817 z m 419 979 l 468 1013 l 354 1172 l 286 1125 z "},"ụ":{"ha":833,"x_min":0,"x_max":0,"o":"m 342 -17 b 593 118 446 -17 525 39 l 599 118 l 608 0 l 701 0 l 701 675 l 588 675 l 588 207 b 378 82 513 119 456 82 b 222 271 265 82 222 143 l 222 675 l 107 675 l 107 256 b 342 -17 107 78 181 -17 z m 426 -299 b 518 -210 478 -299 518 -264 b 426 -121 518 -157 478 -121 b 335 -210 375 -121 335 -157 b 426 -299 335 -264 375 -299 z "},"ủ":{"ha":833,"x_min":0,"x_max":0,"o":"m 342 -17 b 593 118 446 -17 525 39 l 599 118 l 608 0 l 701 0 l 701 675 l 588 675 l 588 207 b 378 82 513 119 456 82 b 222 271 265 82 222 143 l 222 675 l 107 675 l 107 256 b 342 -17 107 78 181 -17 z m 365 794 b 521 925 446 810 521 844 b 322 1056 521 1007 449 1053 l 315 981 b 431 915 393 976 431 956 b 353 850 431 879 397 861 z "},"ư":{"ha":833,"x_min":0,"x_max":0,"o":"m 342 -17 b 593 118 446 -17 525 39 l 599 118 l 608 0 l 701 0 l 701 635 b 831 817 767 660 831 710 b 799 931 831 858 818 900 l 710 889 b 729 808 724 867 729 836 b 610 675 729 717 676 685 l 588 675 l 588 207 b 378 82 513 119 456 82 b 222 271 265 82 222 143 l 222 675 l 107 675 l 107 256 b 342 -17 107 78 181 -17 z "},"ứ":{"ha":833,"x_min":0,"x_max":0,"o":"m 342 -17 b 593 118 446 -17 525 39 l 599 118 l 608 0 l 701 0 l 701 635 b 831 817 767 660 831 710 b 799 931 831 858 818 900 l 710 889 b 729 808 724 867 729 836 b 610 675 729 717 676 685 l 588 675 l 588 207 b 378 82 513 119 456 82 b 222 271 265 82 222 143 l 222 675 l 107 675 l 107 256 b 342 -17 107 78 181 -17 z m 381 789 l 599 1001 l 518 1079 l 321 846 z "},"ừ":{"ha":833,"x_min":0,"x_max":0,"o":"m 342 -17 b 593 118 446 -17 525 39 l 599 118 l 608 0 l 701 0 l 701 635 b 831 817 767 660 831 710 b 799 931 831 858 818 900 l 710 889 b 729 808 724 867 729 836 b 610 675 729 717 676 685 l 588 675 l 588 207 b 378 82 513 119 456 82 b 222 271 265 82 222 143 l 222 675 l 107 675 l 107 256 b 342 -17 107 78 181 -17 z m 439 789 l 499 846 l 301 1079 l 221 1001 z "},"ử":{"ha":833,"x_min":0,"x_max":0,"o":"m 342 -17 b 593 118 446 -17 525 39 l 599 118 l 608 0 l 701 0 l 701 635 b 831 817 767 660 831 710 b 799 931 831 858 818 900 l 710 889 b 729 808 724 867 729 836 b 610 675 729 717 676 685 l 588 675 l 588 207 b 378 82 513 119 456 82 b 222 271 265 82 222 143 l 222 675 l 107 675 l 107 256 b 342 -17 107 78 181 -17 z m 365 794 b 521 925 446 810 521 844 b 322 1056 521 1007 449 1053 l 315 981 b 431 915 393 976 431 956 b 353 850 431 879 397 861 z "},"ữ":{"ha":833,"x_min":0,"x_max":0,"o":"m 342 -17 b 593 118 446 -17 525 39 l 599 118 l 608 0 l 701 0 l 701 635 b 831 817 767 660 831 710 b 799 931 831 858 818 900 l 710 889 b 729 808 724 867 729 836 b 610 675 729 717 676 685 l 588 675 l 588 207 b 378 82 513 119 456 82 b 222 271 265 82 222 143 l 222 675 l 107 675 l 107 256 b 342 -17 107 78 181 -17 z m 499 801 b 639 989 594 801 635 882 l 563 994 b 499 885 558 931 539 885 b 299 1001 433 885 397 1001 b 158 813 203 1001 163 921 l 235 808 b 300 918 239 874 258 918 b 499 801 364 918 400 801 z "},"ự":{"ha":833,"x_min":0,"x_max":0,"o":"m 342 -17 b 593 118 446 -17 525 39 l 599 118 l 608 0 l 701 0 l 701 635 b 831 817 767 660 831 710 b 799 931 831 858 818 900 l 710 889 b 729 808 724 867 729 836 b 610 675 729 717 676 685 l 588 675 l 588 207 b 378 82 513 119 456 82 b 222 271 265 82 222 143 l 222 675 l 107 675 l 107 256 b 342 -17 107 78 181 -17 z m 426 -299 b 518 -210 478 -299 518 -264 b 426 -121 518 -157 478 -121 b 335 -210 375 -121 335 -157 b 426 -299 335 -264 375 -299 z "},"ṿ":{"ha":833,"x_min":0,"x_max":0,"o":"m 356 0 l 483 0 l 763 675 l 653 675 l 497 292 b 424 93 469 224 447 157 l 418 93 b 342 292 394 157 369 224 l 186 675 l 71 675 z m 417 -299 b 508 -210 468 -299 508 -264 b 417 -121 508 -157 468 -121 b 325 -210 365 -121 325 -157 b 417 -299 325 -264 365 -299 z "},"ẁ":{"ha":833,"x_min":0,"x_max":0,"o":"m 158 0 l 306 0 l 381 322 b 414 522 392 369 403 436 l 419 522 b 453 322 431 436 442 369 l 531 0 l 678 0 l 822 675 l 717 675 l 636 283 b 606 97 624 219 617 161 l 600 97 b 558 283 592 161 574 219 l 478 633 l 364 633 l 281 283 b 242 97 265 221 250 161 l 236 97 b 206 283 228 161 218 219 l 125 675 l 11 675 z m 446 789 l 506 846 l 308 1079 l 228 1001 z "},"ẃ":{"ha":833,"x_min":0,"x_max":0,"o":"m 158 0 l 306 0 l 381 322 b 414 522 392 369 403 436 l 419 522 b 453 322 431 436 442 369 l 531 0 l 678 0 l 822 675 l 717 675 l 636 283 b 606 97 624 219 617 161 l 600 97 b 558 283 592 161 574 219 l 478 633 l 364 633 l 281 283 b 242 97 265 221 250 161 l 236 97 b 206 283 228 161 218 219 l 125 675 l 11 675 z m 388 789 l 606 1001 l 525 1079 l 328 846 z "},"ŵ":{"ha":833,"x_min":0,"x_max":0,"o":"m 158 0 l 306 0 l 381 322 b 414 522 392 369 403 436 l 419 522 b 453 322 431 436 442 369 l 531 0 l 678 0 l 822 675 l 717 675 l 636 283 b 606 97 624 219 617 161 l 600 97 b 558 283 592 161 574 219 l 478 633 l 364 633 l 281 283 b 242 97 265 221 250 161 l 236 97 b 206 283 228 161 218 219 l 125 675 l 11 675 z m 250 789 l 414 946 l 419 946 l 583 789 l 632 833 l 474 1028 l 360 1028 l 201 833 z "},"ẅ":{"ha":833,"x_min":0,"x_max":0,"o":"m 158 0 l 306 0 l 381 322 b 414 522 392 369 403 436 l 419 522 b 453 322 431 436 442 369 l 531 0 l 678 0 l 822 675 l 717 675 l 636 283 b 606 97 624 219 617 161 l 600 97 b 558 283 592 161 574 219 l 478 633 l 364 633 l 281 283 b 242 97 265 221 250 161 l 236 97 b 206 283 228 161 218 219 l 125 675 l 11 675 z m 282 817 b 358 894 326 817 358 850 b 282 972 358 938 326 972 b 206 894 238 972 206 938 b 282 817 206 850 238 817 z m 551 817 b 628 894 596 817 628 850 b 551 972 628 938 596 972 b 475 894 507 972 475 938 b 551 817 475 850 507 817 z "},"ỳ":{"ha":833,"x_min":0,"x_max":0,"o":"m 182 -290 b 468 -56 335 -290 418 -189 l 765 675 l 657 675 l 510 301 b 438 106 488 240 461 169 l 432 106 b 349 301 404 171 375 242 l 183 675 l 68 675 l 383 -1 l 363 -51 b 178 -196 329 -135 272 -196 b 117 -186 157 -196 135 -192 l 93 -276 b 182 -290 117 -285 150 -290 z m 451 789 l 511 846 l 314 1079 l 233 1001 z "},"ý":{"ha":833,"x_min":0,"x_max":0,"o":"m 182 -290 b 468 -56 335 -290 418 -189 l 765 675 l 657 675 l 510 301 b 438 106 488 240 461 169 l 432 106 b 349 301 404 171 375 242 l 183 675 l 68 675 l 383 -1 l 363 -51 b 178 -196 329 -135 272 -196 b 117 -186 157 -196 135 -192 l 93 -276 b 182 -290 117 -285 150 -290 z m 393 789 l 611 1001 l 531 1079 l 333 846 z "},"ŷ":{"ha":833,"x_min":0,"x_max":0,"o":"m 182 -290 b 468 -56 335 -290 418 -189 l 765 675 l 657 675 l 510 301 b 438 106 488 240 461 169 l 432 106 b 349 301 404 171 375 242 l 183 675 l 68 675 l 383 -1 l 363 -51 b 178 -196 329 -135 272 -196 b 117 -186 157 -196 135 -192 l 93 -276 b 182 -290 117 -285 150 -290 z m 256 789 l 419 946 l 425 946 l 589 789 l 638 833 l 479 1028 l 365 1028 l 207 833 z "},"ÿ":{"ha":833,"x_min":0,"x_max":0,"o":"m 182 -290 b 468 -56 335 -290 418 -189 l 765 675 l 657 675 l 510 301 b 438 106 488 240 461 169 l 432 106 b 349 301 404 171 375 242 l 183 675 l 68 675 l 383 -1 l 363 -51 b 178 -196 329 -135 272 -196 b 117 -186 157 -196 135 -192 l 93 -276 b 182 -290 117 -285 150 -290 z m 288 817 b 364 894 332 817 364 850 b 288 972 364 938 332 972 b 211 894 243 972 211 938 b 288 817 211 850 243 817 z m 557 817 b 633 894 601 817 633 850 b 557 972 633 938 601 972 b 481 894 513 972 481 938 b 557 817 481 850 513 817 z "},"ẏ":{"ha":833,"x_min":0,"x_max":0,"o":"m 182 -290 b 468 -56 335 -290 418 -189 l 765 675 l 657 675 l 510 301 b 438 106 488 240 461 169 l 432 106 b 349 301 404 171 375 242 l 183 675 l 68 675 l 383 -1 l 363 -51 b 178 -196 329 -135 272 -196 b 117 -186 157 -196 135 -192 l 93 -276 b 182 -290 117 -285 150 -290 z m 422 817 b 514 906 474 817 514 851 b 422 994 514 958 474 994 b 331 906 371 994 331 958 b 422 817 331 851 371 817 z "},"ỵ":{"ha":833,"x_min":0,"x_max":0,"o":"m 182 -290 b 468 -56 335 -290 418 -189 l 765 675 l 657 675 l 510 301 b 438 106 488 240 461 169 l 432 106 b 349 301 404 171 375 242 l 183 675 l 68 675 l 383 -1 l 363 -51 b 178 -196 329 -135 272 -196 b 117 -186 157 -196 135 -192 l 93 -276 b 182 -290 117 -285 150 -290 z m 636 -293 b 728 -204 688 -293 728 -258 b 636 -115 728 -151 688 -115 b 544 -204 585 -115 544 -151 b 636 -293 544 -258 585 -293 z "},"ỷ":{"ha":833,"x_min":0,"x_max":0,"o":"m 182 -290 b 468 -56 335 -290 418 -189 l 765 675 l 657 675 l 510 301 b 438 106 488 240 461 169 l 432 106 b 349 301 404 171 375 242 l 183 675 l 68 675 l 383 -1 l 363 -51 b 178 -196 329 -135 272 -196 b 117 -186 157 -196 135 -192 l 93 -276 b 182 -290 117 -285 150 -290 z m 378 794 b 533 925 458 810 533 844 b 335 1056 533 1007 461 1053 l 328 981 b 443 915 406 976 443 956 b 365 850 443 879 410 861 z "},"ỹ":{"ha":833,"x_min":0,"x_max":0,"o":"m 182 -290 b 468 -56 335 -290 418 -189 l 765 675 l 657 675 l 510 301 b 438 106 488 240 461 169 l 432 106 b 349 301 404 171 375 242 l 183 675 l 68 675 l 383 -1 l 363 -51 b 178 -196 329 -135 272 -196 b 117 -186 157 -196 135 -192 l 93 -276 b 182 -290 117 -285 150 -290 z m 522 801 b 663 989 618 801 658 882 l 586 994 b 522 885 582 931 563 885 b 322 1001 457 885 421 1001 b 182 813 226 1001 186 921 l 258 808 b 324 918 263 874 282 918 b 522 801 388 918 424 801 z "},"ź":{"ha":833,"x_min":0,"x_max":0,"o":"m 99 0 l 738 0 l 738 93 l 261 93 l 725 614 l 725 675 l 150 675 l 150 582 l 561 582 l 99 61 z m 418 789 l 636 1001 l 556 1079 l 358 846 z "},"ž":{"ha":833,"x_min":0,"x_max":0,"o":"m 99 0 l 738 0 l 738 93 l 261 93 l 725 614 l 725 675 l 150 675 l 150 582 l 561 582 l 99 61 z m 390 797 l 504 797 l 663 992 l 614 1036 l 450 879 l 444 879 l 281 1036 l 232 992 z "},"ż":{"ha":833,"x_min":0,"x_max":0,"o":"m 99 0 l 738 0 l 738 93 l 261 93 l 725 614 l 725 675 l 150 675 l 150 582 l 561 582 l 99 61 z m 447 817 b 539 906 499 817 539 851 b 447 994 539 958 499 994 b 356 906 396 994 356 958 b 447 817 356 851 396 817 z "},"ẑ":{"ha":833,"x_min":0,"x_max":0,"o":"m 99 0 l 738 0 l 738 93 l 261 93 l 725 614 l 725 675 l 150 675 l 150 582 l 561 582 l 99 61 z m 281 789 l 444 946 l 450 946 l 614 789 l 663 833 l 504 1028 l 390 1028 l 232 833 z "},"ẓ":{"ha":833,"x_min":0,"x_max":0,"o":"m 99 0 l 738 0 l 738 93 l 261 93 l 725 614 l 725 675 l 150 675 l 150 582 l 561 582 l 99 61 z m 436 -299 b 528 -210 488 -299 528 -264 b 436 -121 528 -157 488 -121 b 344 -210 385 -121 344 -157 b 436 -299 344 -264 385 -299 z "},"ẕ":{"ha":833,"x_min":0,"x_max":0,"o":"m 99 0 l 738 0 l 738 93 l 261 93 l 725 614 l 725 675 l 150 675 l 150 582 l 561 582 l 99 61 z m 251 -236 l 621 -236 l 621 -157 l 251 -157 z "},"ð":{"ha":833,"x_min":0,"x_max":0,"o":"m 190 308 b 417 532 190 436 268 532 b 633 414 489 532 568 500 b 635 353 635 394 635 374 b 417 78 635 192 564 78 b 190 308 293 78 190 169 z m 414 -17 b 744 357 617 -17 744 135 b 550 840 744 576 667 728 l 714 925 l 672 994 l 482 897 b 282 1014 421 943 353 981 l 229 942 b 389 850 288 913 342 883 l 208 758 l 250 686 l 461 794 b 621 510 542 722 596 632 b 400 621 569 579 486 621 b 83 308 217 621 83 497 b 414 -17 83 107 239 -17 z "},"þ":{"ha":833,"x_min":0,"x_max":0,"o":"m 129 -285 l 243 -285 l 243 -57 l 239 71 l 243 71 b 443 -17 301 18 376 -17 b 750 347 603 -17 750 118 b 468 692 750 557 650 692 b 243 589 389 692 306 651 l 239 589 l 243 710 l 243 989 l 129 989 z m 424 79 b 243 158 376 79 307 101 l 243 494 b 440 596 313 564 381 596 b 632 347 575 596 632 496 b 424 79 632 181 542 79 z "},"ŋ":{"ha":833,"x_min":0,"x_max":0,"o":"m 538 -254 b 726 -19 672 -254 726 -164 l 726 419 b 493 692 726 597 653 692 b 239 560 388 692 310 635 l 233 560 l 224 675 l 129 675 l 129 0 l 243 0 l 243 471 b 457 593 322 553 376 593 b 613 404 568 593 613 532 l 613 -19 b 525 -161 613 -107 594 -161 b 454 -147 499 -161 474 -154 l 432 -235 b 538 -254 457 -244 496 -254 z "},"ȷ":{"ha":833,"x_min":0,"x_max":0,"o":"m 269 -301 b 553 -17 488 -301 553 -183 l 553 675 l 125 675 l 125 582 l 439 582 l 439 -25 b 268 -208 439 -140 403 -208 b 114 -171 217 -208 163 -194 l 76 -256 b 269 -301 131 -282 199 -301 z "},"ĳ":{"ha":833,"x_min":0,"x_max":0,"o":"m 156 0 l 269 0 l 269 675 l 156 675 z m 214 814 b 297 894 261 814 297 846 b 214 975 297 943 261 975 b 129 894 165 975 129 943 b 214 814 129 846 165 814 z m 515 -301 b 700 -76 650 -301 700 -214 l 700 675 l 586 675 l 586 -76 b 503 -208 586 -158 571 -208 b 439 -197 479 -208 457 -203 l 417 -283 b 515 -301 440 -293 474 -301 z m 644 814 b 728 894 692 814 728 846 b 644 975 728 943 692 975 b 560 894 596 975 560 943 b 644 814 560 846 596 814 z "},"ɐ":{"ha":833,"x_min":0,"x_max":0,"o":"m 406 -17 b 706 81 524 -17 638 36 l 661 158 b 424 78 599 119 513 78 b 246 249 294 78 249 156 b 735 500 593 275 735 349 b 504 692 735 622 632 692 b 239 583 410 692 313 642 l 235 583 l 225 675 l 131 675 l 131 261 b 406 -17 131 93 221 -17 z m 246 322 l 246 500 b 475 600 322 564 397 600 b 624 492 553 600 624 568 b 246 322 624 403 535 346 z "},"ɒ":{"ha":833,"x_min":0,"x_max":0,"o":"m 444 -17 b 750 349 606 -17 750 118 b 471 692 750 557 651 692 b 238 586 381 692 292 643 l 233 586 l 224 675 l 129 675 l 129 0 l 221 0 l 231 75 l 235 75 b 444 -17 299 18 378 -17 z m 425 79 b 243 158 375 79 308 100 l 243 494 b 440 596 303 561 374 596 b 632 343 575 596 632 496 b 425 79 632 181 543 79 z "},"ɓ":{"ha":833,"x_min":0,"x_max":0,"o":"m 446 -17 b 750 343 604 -17 750 115 b 469 682 750 549 651 682 b 243 579 390 682 304 642 l 238 579 l 243 749 b 390 913 247 851 290 913 b 482 892 418 913 451 906 l 508 979 b 379 1006 474 993 426 1006 b 129 746 211 1006 129 900 l 129 0 l 221 0 l 231 75 l 235 75 b 446 -17 299 17 379 -17 z m 426 79 b 243 158 378 79 307 100 l 243 485 b 442 586 311 554 382 586 b 632 342 575 586 632 488 b 426 79 632 179 543 79 z "},"ɔ":{"ha":833,"x_min":0,"x_max":0,"o":"m 357 -17 b 722 336 563 -17 722 113 b 365 692 722 563 558 692 b 99 593 243 692 156 647 l 157 519 b 358 597 214 568 278 597 b 604 336 501 597 604 492 b 346 78 604 182 500 78 b 136 163 263 78 190 115 l 85 89 b 357 -17 157 22 253 -17 z "},"ɕ":{"ha":833,"x_min":0,"x_max":0,"o":"m 572 211 b 656 154 632 211 656 188 b 501 75 656 108 603 75 b 385 96 460 75 419 82 b 572 211 447 168 518 211 z m 257 -142 b 325 15 274 -85 297 -32 b 499 -17 378 -6 436 -17 b 746 156 663 -17 746 60 b 579 293 746 239 686 293 b 306 143 492 293 392 239 b 224 336 254 188 224 254 b 483 601 224 494 336 601 b 678 522 561 601 624 572 l 733 593 b 479 692 675 650 594 692 b 111 336 283 692 111 563 b 244 60 111 214 163 119 b 164 -103 213 13 186 -43 z "},"ɖ":{"ha":833,"x_min":0,"x_max":0,"o":"m 758 -244 b 843 -226 793 -244 824 -236 l 821 -139 b 771 -151 807 -144 789 -151 b 701 -29 717 -151 701 -106 l 701 989 l 586 989 l 586 729 l 593 604 l 589 604 b 389 692 531 658 469 692 b 83 336 231 692 83 556 b 374 -17 83 111 200 -17 b 589 85 457 -17 536 29 l 593 85 l 590 -54 b 758 -244 590 -172 643 -244 z m 400 79 b 201 338 276 79 201 176 b 408 596 201 492 294 596 b 586 517 465 596 525 574 l 586 181 b 400 79 528 114 465 79 z "},"ɗ":{"ha":833,"x_min":0,"x_max":0,"o":"m 374 -17 b 592 89 457 -17 538 32 l 596 89 l 606 0 l 700 0 l 700 788 b 782 915 700 865 721 915 b 825 907 799 915 813 911 l 847 994 b 769 1008 826 1003 801 1008 b 589 807 647 1008 589 932 l 589 729 l 592 604 l 588 604 b 388 692 529 660 467 692 b 83 336 229 692 83 556 b 374 -17 83 111 199 -17 z m 399 79 b 201 338 275 79 201 176 b 407 596 201 492 294 596 b 586 517 465 596 525 574 l 586 181 b 399 79 526 114 464 79 z "},"ɘ":{"ha":833,"x_min":0,"x_max":0,"o":"m 403 601 b 621 394 514 601 601 528 l 190 394 b 403 601 201 533 288 601 z m 375 -17 b 738 336 575 -17 738 115 b 410 692 738 557 588 692 b 88 375 217 692 88 565 b 92 306 88 351 89 322 l 624 306 b 363 75 610 153 501 75 b 156 138 282 75 218 99 l 115 63 b 375 -17 182 19 267 -17 z "},"ɑ":{"ha":833,"x_min":0,"x_max":0,"o":"m 375 -17 b 596 89 460 -17 542 32 l 600 89 l 610 0 l 704 0 l 704 675 l 613 675 l 603 600 l 599 600 b 392 692 536 660 471 692 b 83 336 229 692 83 556 b 375 -17 83 111 201 -17 z m 400 79 b 201 338 275 79 201 176 b 413 596 201 492 296 596 b 590 517 471 596 529 574 l 590 181 b 400 79 531 114 467 79 z "},"ʙ":{"ha":833,"x_min":0,"x_max":0,"o":"m 160 0 l 483 0 b 764 193 647 0 764 60 b 617 356 764 290 696 336 l 617 360 b 735 504 689 382 735 429 b 472 675 735 626 628 675 l 160 675 z m 272 394 l 272 583 l 461 583 b 624 493 575 583 624 556 b 453 394 624 431 575 394 z m 272 92 l 272 306 l 464 306 b 650 200 586 306 650 268 b 471 92 650 125 593 92 z "},"ə":{"ha":833,"x_min":0,"x_max":0,"o":"m 413 -17 b 746 339 599 -17 746 114 b 400 692 746 560 604 692 b 139 613 292 692 207 656 l 181 538 b 388 601 242 576 307 601 b 631 381 525 601 617 526 l 101 381 b 96 311 99 364 96 335 b 413 -17 96 118 210 -17 z m 410 75 b 199 292 285 75 208 149 l 631 292 b 410 75 617 149 531 75 z "},"ɚ":{"ha":833,"x_min":0,"x_max":0,"o":"m 301 -17 b 582 328 471 -17 582 129 b 575 419 582 360 579 390 l 649 450 b 776 319 667 350 724 319 b 863 354 814 319 842 338 l 832 414 b 785 393 821 404 803 393 b 717 519 746 393 725 414 l 657 543 l 556 499 b 288 692 510 625 413 692 b 71 622 197 692 131 664 l 111 544 b 278 601 160 578 207 601 b 454 456 357 601 424 558 l 31 274 b 301 -17 44 113 131 -17 z m 474 306 b 300 74 474 168 406 74 b 131 231 218 74 156 119 l 471 375 b 474 306 472 353 474 331 z "},"ɛ":{"ha":833,"x_min":0,"x_max":0,"o":"m 442 -17 b 743 82 564 -17 658 8 l 693 157 b 460 75 626 97 550 75 b 240 197 319 75 240 118 b 460 306 240 274 318 306 l 553 306 l 553 394 l 479 394 b 275 497 344 394 275 431 b 458 601 275 567 340 601 b 681 531 550 601 615 575 l 726 606 b 453 692 654 657 565 692 b 161 511 283 692 161 633 b 285 361 161 444 208 390 l 285 356 b 126 188 196 332 126 283 b 442 -17 126 57 254 -17 z "},"ɜ":{"ha":833,"x_min":0,"x_max":0,"o":"m 389 -17 b 713 186 582 -17 713 57 b 558 354 713 283 650 331 l 558 360 b 679 510 639 390 679 443 b 388 692 679 633 558 692 b 103 601 269 692 181 658 l 150 525 b 381 601 221 576 283 601 b 567 499 503 601 567 567 b 374 394 567 432 503 394 l 274 394 l 274 306 l 390 306 b 599 196 525 306 599 272 b 379 75 599 118 519 75 b 136 160 296 75 214 96 l 86 85 b 389 -17 182 7 279 -17 z "},"ɞ":{"ha":833,"x_min":0,"x_max":0,"o":"m 454 -17 b 746 186 632 -17 746 57 b 594 354 746 282 676 336 l 594 360 b 711 510 671 385 711 443 b 446 692 711 633 596 692 b 85 335 257 692 85 569 b 454 -17 85 104 243 -17 z m 456 75 b 200 335 299 75 200 164 b 450 601 200 503 308 601 b 600 497 540 601 600 567 b 447 394 600 435 543 394 l 410 394 l 410 306 l 458 306 b 632 196 558 306 632 269 b 456 75 632 118 568 75 z "},"ɟ":{"ha":833,"x_min":0,"x_max":0,"o":"m 269 -301 b 553 -17 488 -301 553 -183 l 553 286 l 783 286 l 783 378 l 553 378 l 553 675 l 125 675 l 125 582 l 439 582 l 439 378 l 169 369 l 169 286 l 439 286 l 439 -25 b 268 -208 439 -140 403 -208 b 114 -171 217 -208 163 -194 l 76 -256 b 269 -301 131 -282 199 -301 z "},"ɠ":{"ha":833,"x_min":0,"x_max":0,"o":"m 388 -300 b 701 -33 583 -300 701 -200 l 701 653 b 783 781 701 731 722 781 b 826 772 800 781 814 778 l 849 860 b 771 874 828 868 803 874 b 589 671 646 874 589 792 l 592 604 l 588 604 b 390 692 533 657 469 692 b 83 347 232 692 83 558 b 374 7 83 135 200 7 b 588 104 457 7 536 50 l 592 104 l 586 -31 b 388 -208 585 -139 517 -208 b 175 -146 319 -208 243 -190 l 132 -226 b 388 -300 207 -274 300 -300 z m 400 101 b 201 349 276 101 201 197 b 408 596 201 493 294 596 b 586 517 465 596 525 575 l 586 203 b 400 101 526 136 465 101 z "},"ɡ":{"ha":833,"x_min":0,"x_max":0,"o":"m 389 -301 b 704 -26 589 -301 704 -196 l 704 675 l 613 675 l 603 600 l 599 600 b 392 692 539 657 471 692 b 83 347 228 692 83 558 b 375 7 83 135 201 7 b 592 104 458 7 539 50 l 596 104 l 593 -31 b 389 -210 590 -139 518 -210 b 174 -147 321 -210 243 -192 l 132 -229 b 389 -301 206 -276 301 -301 z m 400 101 b 200 349 276 101 200 197 b 411 596 200 493 297 596 b 590 517 471 596 529 574 l 590 203 b 400 101 529 136 465 101 z "},"ɢ":{"ha":833,"x_min":0,"x_max":0,"o":"m 471 -17 b 731 79 581 -17 674 25 l 731 364 l 444 364 l 444 282 l 631 282 l 631 126 b 476 75 592 94 538 75 b 225 338 332 75 225 174 b 483 601 225 506 344 601 b 671 522 571 601 624 564 l 728 594 b 478 692 672 646 597 692 b 108 338 279 692 108 558 b 471 -17 108 108 271 -17 z "},"ɣ":{"ha":833,"x_min":0,"x_max":0,"o":"m 419 -311 b 581 -147 522 -311 581 -244 b 494 72 581 -82 544 -25 l 763 675 l 651 675 l 496 306 b 422 135 469 242 450 197 l 417 135 b 344 306 389 197 371 242 l 188 675 l 71 675 l 344 72 b 258 -147 294 -25 258 -82 b 419 -311 258 -244 317 -311 z m 419 -232 b 357 -150 378 -232 357 -196 b 415 15 357 -106 382 -47 l 422 15 b 482 -150 457 -47 482 -103 b 419 -232 482 -196 463 -232 z "},"ɤ":{"ha":833,"x_min":0,"x_max":0,"o":"m 417 -17 b 675 218 575 -17 675 72 b 496 504 675 321 600 415 b 647 597 553 567 594 597 b 714 578 672 597 696 590 l 750 661 b 633 692 721 681 676 692 b 417 571 558 692 489 649 b 200 692 343 649 275 692 b 83 661 157 692 113 681 l 119 578 b 186 597 138 590 161 597 b 338 504 238 597 281 567 b 158 218 232 415 158 321 b 417 -17 158 72 258 -17 z m 417 78 b 268 221 325 78 268 138 b 417 450 268 301 331 376 b 565 221 503 376 565 301 b 417 78 565 138 508 78 z "},"ɥ":{"ha":833,"x_min":0,"x_max":0,"o":"m 590 -285 l 704 -285 l 704 675 l 590 675 l 590 204 b 376 82 511 124 457 82 b 221 271 265 82 221 143 l 221 675 l 107 675 l 107 256 b 340 -17 107 78 181 -17 b 596 115 446 -17 524 42 l 590 -43 z "},"ɦ":{"ha":833,"x_min":0,"x_max":0,"o":"m 129 0 l 243 0 l 243 461 b 457 582 322 542 376 582 b 613 394 568 582 613 522 l 613 0 l 726 0 l 726 408 b 493 682 726 588 653 682 b 240 550 388 682 310 624 l 235 550 l 243 749 b 390 913 247 851 290 913 b 482 892 418 913 451 906 l 508 979 b 379 1006 474 993 426 1006 b 129 746 211 1006 129 900 z "},"ɧ":{"ha":833,"x_min":0,"x_max":0,"o":"m 533 -254 b 726 -19 674 -254 726 -164 l 726 408 b 493 682 726 588 653 682 b 240 550 388 682 310 624 l 235 550 l 243 749 b 390 913 247 851 290 913 b 482 892 418 913 450 906 l 508 979 b 379 1006 472 993 426 1006 b 129 746 211 1006 129 900 l 129 0 l 243 0 l 243 461 b 457 582 322 542 376 582 b 613 394 568 582 613 522 l 613 -19 b 521 -161 613 -107 594 -161 b 447 -147 493 -161 467 -154 l 425 -235 b 533 -254 450 -244 489 -254 z "},"ʜ":{"ha":833,"x_min":0,"x_max":0,"o":"m 129 0 l 243 0 l 243 300 l 590 300 l 590 0 l 704 0 l 704 675 l 590 675 l 590 401 l 243 401 l 243 675 l 129 675 z "},"ɨ":{"ha":833,"x_min":0,"x_max":0,"o":"m 439 0 l 553 0 l 553 292 l 783 292 l 783 378 l 553 378 l 553 675 l 125 675 l 125 582 l 439 582 l 439 378 l 183 369 l 183 292 l 439 292 z m 483 817 b 575 906 535 817 575 851 b 483 994 575 958 535 994 b 392 906 432 994 392 958 b 483 817 392 851 432 817 z "},"ɪ":{"ha":833,"x_min":0,"x_max":0,"o":"m 119 0 l 714 0 l 714 93 l 472 93 l 472 582 l 714 582 l 714 675 l 119 675 l 119 582 l 358 582 l 358 93 l 119 93 z "},"ʝ":{"ha":833,"x_min":0,"x_max":0,"o":"m 581 -347 l 669 -306 b 539 -128 631 -231 586 -172 b 553 -28 549 -97 553 -64 l 553 675 l 125 675 l 125 582 l 439 582 l 439 -51 l 439 -54 b 257 -8 378 -22 315 -8 b 78 -147 140 -8 78 -65 b 279 -301 78 -231 150 -301 b 493 -215 378 -301 449 -269 b 581 -347 524 -251 553 -294 z m 169 -146 b 256 -90 169 -114 196 -90 b 417 -144 308 -90 363 -106 b 278 -211 394 -183 351 -211 b 169 -146 208 -211 169 -182 z m 483 817 b 575 906 535 817 575 851 b 483 994 575 958 535 994 b 392 906 432 994 392 958 b 483 817 392 851 432 817 z "},"ʞ":{"ha":833,"x_min":0,"x_max":0,"o":"m 572 -285 l 686 -285 l 686 675 l 572 675 l 572 492 l 414 346 l 193 675 l 75 675 l 342 279 l 39 0 l 176 0 l 567 356 l 572 356 z "},"ɫ":{"ha":833,"x_min":0,"x_max":0,"o":"m 565 -17 b 746 24 639 -17 683 -3 l 717 108 b 590 78 671 88 629 78 b 457 218 510 78 457 119 l 457 453 b 531 438 479 443 503 438 b 663 615 621 438 657 515 l 586 628 b 522 521 582 565 563 521 b 457 544 499 521 478 531 l 457 989 l 103 989 l 103 896 l 343 896 l 343 622 b 269 638 321 632 297 638 b 138 460 179 638 143 560 l 214 446 b 278 554 218 510 238 554 b 343 531 301 554 322 544 l 343 226 b 565 -17 343 67 422 -17 z "},"ɬ":{"ha":833,"x_min":0,"x_max":0,"o":"m 297 508 b 197 561 231 508 197 528 b 242 606 197 589 217 606 b 343 517 311 606 343 558 l 343 508 z m 565 -17 b 746 24 639 -17 683 -3 l 717 108 b 590 78 671 88 629 78 b 457 218 510 78 457 119 l 457 419 l 651 419 l 651 508 l 457 508 l 457 989 l 103 989 l 103 896 l 343 896 l 343 639 b 231 686 318 667 282 686 b 106 567 158 686 106 636 b 322 419 106 481 167 419 l 343 419 l 343 226 b 565 -17 343 67 422 -17 z "},"ɭ":{"ha":833,"x_min":0,"x_max":0,"o":"m 564 -254 b 746 -214 638 -254 685 -236 l 717 -128 b 589 -158 667 -150 628 -158 b 457 -19 508 -158 457 -118 l 457 989 l 103 989 l 103 896 l 343 896 l 343 -11 b 564 -254 343 -171 421 -254 z "},"ɮ":{"ha":833,"x_min":0,"x_max":0,"o":"m 110 0 l 224 0 l 224 582 l 619 582 l 349 224 l 396 163 b 493 183 426 176 446 183 b 676 0 607 183 676 114 b 488 -207 676 -125 592 -207 b 272 -121 385 -207 321 -167 l 215 -193 b 497 -301 274 -249 358 -301 b 793 3 650 -301 793 -192 b 497 264 793 156 689 279 l 763 614 l 763 675 l 224 675 l 224 989 l 110 989 z "},"ʟ":{"ha":833,"x_min":0,"x_max":0,"o":"m 206 0 l 739 0 l 739 93 l 319 93 l 319 675 l 206 675 z "},"ɯ":{"ha":833,"x_min":0,"x_max":0,"o":"m 753 675 l 639 675 l 639 186 b 528 82 606 117 575 82 b 458 200 478 82 458 122 l 458 675 l 353 675 l 353 186 b 244 82 317 117 292 82 b 172 200 194 82 172 122 l 172 675 l 58 675 l 58 192 b 208 -17 58 57 114 -17 b 367 100 286 -17 328 28 b 494 -17 386 22 428 -17 b 649 89 572 -17 614 26 l 651 89 l 661 0 l 753 0 z "},"ɰ":{"ha":833,"x_min":0,"x_max":0,"o":"m 644 -285 l 753 -285 l 753 675 l 639 675 l 639 186 b 528 82 606 117 575 82 b 458 200 478 82 458 122 l 458 675 l 353 675 l 353 186 b 244 82 317 117 292 82 b 172 200 194 82 172 122 l 172 675 l 58 675 l 58 192 b 208 -17 58 57 114 -17 b 367 100 286 -17 328 28 b 494 -17 386 22 428 -17 b 647 93 572 -17 611 25 l 653 93 l 644 -46 z "},"ɱ":{"ha":833,"x_min":0,"x_max":0,"o":"m 604 -254 b 775 -44 725 -254 775 -175 l 775 483 b 625 692 775 618 719 692 b 467 575 547 692 506 647 b 339 692 447 653 406 692 b 185 586 261 692 219 649 l 182 586 l 172 675 l 81 675 l 81 0 l 194 0 l 194 489 b 306 593 228 558 258 593 b 375 475 356 593 375 553 l 375 0 l 481 0 l 481 489 b 589 593 517 558 542 593 b 661 475 639 593 661 553 l 661 -39 b 592 -161 661 -112 651 -161 b 535 -150 571 -161 550 -156 l 513 -237 b 604 -254 535 -247 568 -254 z "},"ɲ":{"ha":833,"x_min":0,"x_max":0,"o":"m 78 -254 b 250 -39 204 -254 250 -172 l 250 471 b 461 593 328 553 381 593 b 613 404 567 593 613 536 l 613 0 l 726 0 l 726 419 b 494 692 726 597 653 692 b 244 560 392 692 315 635 l 239 560 l 229 675 l 135 675 l 135 -39 b 65 -161 135 -115 119 -161 b 15 -149 47 -161 29 -154 l -7 -236 b 78 -254 13 -246 43 -254 z "},"ɳ":{"ha":833,"x_min":0,"x_max":0,"o":"m 778 -254 b 863 -236 813 -254 843 -246 l 840 -149 b 790 -161 826 -154 808 -161 b 721 -39 736 -161 721 -115 l 721 419 b 488 692 721 597 647 692 b 239 560 385 692 310 635 l 233 560 l 224 675 l 129 675 l 129 0 l 243 0 l 243 471 b 454 593 322 553 375 593 b 607 404 561 593 607 536 l 607 -39 b 778 -254 607 -172 653 -254 z "},"ɴ":{"ha":833,"x_min":0,"x_max":0,"o":"m 133 0 l 242 0 l 242 281 b 231 526 242 353 236 439 l 236 526 b 329 382 264 483 301 424 l 590 0 l 700 0 l 700 675 l 592 675 l 592 394 b 603 149 592 322 597 236 l 597 149 b 504 293 568 192 532 251 l 243 675 l 133 675 z "},"ɵ":{"ha":833,"x_min":0,"x_max":0,"o":"m 417 -17 b 750 336 596 -17 750 104 b 417 692 750 571 596 692 b 83 336 238 692 83 571 b 417 -17 83 104 238 -17 z m 417 603 b 638 394 533 603 618 526 l 196 394 b 417 603 215 526 300 603 z m 417 74 b 193 306 292 74 204 158 l 640 306 b 417 74 629 158 542 74 z "},"ɶ":{"ha":833,"x_min":0,"x_max":0,"o":"m 331 -17 b 467 0 375 -17 415 -12 l 815 0 l 815 94 l 538 94 l 538 306 l 750 306 l 750 394 l 538 394 l 538 581 l 801 581 l 801 675 l 467 675 b 331 692 413 689 375 692 b 46 338 175 692 46 569 b 331 -17 46 106 175 -17 z m 340 76 b 164 338 242 76 164 158 b 340 597 164 513 242 597 b 432 581 369 597 404 589 l 432 93 b 340 76 403 85 368 76 z "},"ɸ":{"ha":833,"x_min":0,"x_max":0,"o":"m 361 -285 l 472 -285 l 472 -12 b 772 339 633 -3 772 121 b 472 688 772 556 633 678 l 472 989 l 361 989 l 361 688 b 61 339 200 678 61 556 b 361 -12 61 121 200 -3 z m 178 339 b 361 596 178 494 256 588 l 361 79 b 178 339 256 88 178 182 z m 656 339 b 472 79 656 182 578 88 l 472 596 b 656 339 578 588 656 494 z "},"ɹ":{"ha":833,"x_min":0,"x_max":0,"o":"m 631 675 l 517 675 l 517 279 b 239 86 436 139 340 86 b 114 110 186 86 161 93 l 88 11 b 221 -17 129 -10 171 -17 b 522 160 346 -17 451 51 l 526 160 l 536 0 l 631 0 z "},"ɺ":{"ha":833,"x_min":0,"x_max":0,"o":"m 221 -17 b 522 160 346 -17 451 51 l 526 160 l 536 0 l 631 0 l 631 989 l 517 989 l 517 279 b 239 86 436 139 340 86 b 114 110 186 86 161 93 l 88 11 b 221 -17 129 -10 171 -17 z "},"ɻ":{"ha":833,"x_min":0,"x_max":0,"o":"m 606 -254 b 722 -228 647 -254 694 -242 l 697 -142 b 618 -161 675 -151 644 -161 b 524 -21 547 -161 524 -119 l 524 675 l 410 675 l 410 251 b 221 86 361 129 289 86 b 114 110 176 86 154 93 l 88 11 b 208 -17 131 -10 169 -17 b 415 128 299 -17 369 39 l 419 128 l 419 -35 b 606 -254 419 -174 469 -254 z "},"ɽ":{"ha":833,"x_min":0,"x_max":0,"o":"m 463 -254 b 674 -214 550 -254 613 -236 l 650 -131 b 488 -161 601 -149 553 -161 b 317 24 357 -161 317 -97 l 317 396 b 594 589 397 536 493 589 b 719 565 647 589 672 582 l 746 664 b 613 692 704 685 663 692 b 311 515 488 692 382 624 l 307 515 l 297 675 l 203 675 l 203 25 b 463 -254 203 -142 267 -254 z "},"ɾ":{"ha":833,"x_min":0,"x_max":0,"o":"m 203 0 l 317 0 l 317 322 b 569 590 317 510 435 590 b 719 565 622 590 663 585 l 746 664 b 557 692 696 682 632 692 b 203 346 340 692 203 569 z "},"ʀ":{"ha":833,"x_min":0,"x_max":0,"o":"m 138 0 l 253 0 l 253 264 l 438 264 l 628 0 l 757 0 l 556 272 b 726 475 650 294 726 358 b 471 675 726 624 617 675 l 138 675 z m 253 353 l 253 583 l 451 583 b 613 472 553 583 613 553 b 451 353 613 393 553 353 z "},"ʁ":{"ha":833,"x_min":0,"x_max":0,"o":"m 253 322 l 451 322 b 613 203 553 322 613 282 b 451 92 613 122 553 92 l 253 92 z m 628 675 l 438 411 l 253 411 l 253 675 l 138 675 l 138 0 l 471 0 b 726 200 617 0 726 51 b 556 403 726 317 650 381 l 757 675 z "},"ʂ":{"ha":833,"x_min":0,"x_max":0,"o":"m 431 -17 b 731 185 624 -17 731 75 b 451 393 731 288 676 344 b 256 506 314 422 256 447 b 411 603 256 557 296 603 b 638 532 497 603 575 575 l 693 606 b 421 692 626 651 524 692 b 140 500 236 692 140 608 b 404 303 140 399 229 339 b 615 178 588 265 615 229 b 444 72 615 121 558 72 b 151 164 319 72 229 108 l 99 89 l 99 -29 b 274 -254 99 -176 150 -254 b 372 -236 315 -254 350 -246 l 350 -151 b 286 -162 333 -157 310 -162 b 201 -42 219 -162 201 -114 l 201 32 b 431 -17 268 3 347 -17 z "},"ʃ":{"ha":833,"x_min":0,"x_max":0,"o":"m 260 -301 b 475 -42 417 -301 475 -204 l 475 747 b 604 915 475 849 501 915 b 719 881 646 915 679 901 l 751 965 b 592 1008 701 990 658 1008 b 361 747 425 1008 361 910 l 361 -40 b 246 -208 361 -142 340 -208 b 114 -172 199 -208 156 -192 l 78 -257 b 260 -301 131 -283 186 -301 z "},"ʄ":{"ha":833,"x_min":0,"x_max":0,"o":"m 260 -301 b 475 -42 417 -301 475 -204 l 475 308 l 717 308 l 717 397 l 475 397 l 475 747 b 604 915 475 849 501 915 b 719 881 646 915 679 901 l 751 965 b 592 1008 701 990 658 1008 b 361 747 425 1008 361 910 l 361 397 l 117 389 l 117 308 l 361 308 l 361 -40 b 246 -208 361 -142 340 -208 b 114 -172 199 -208 156 -192 l 78 -257 b 260 -301 131 -283 186 -301 z "},"ʇ":{"ha":833,"x_min":0,"x_max":0,"o":"m 286 692 b 75 651 201 692 136 674 l 100 568 b 263 599 149 586 199 599 b 433 414 393 599 433 535 l 433 93 l 101 93 l 101 0 l 433 0 l 433 -217 l 528 -217 l 543 0 l 738 7 l 738 93 l 547 93 l 547 413 b 286 692 547 579 483 692 z "},"ʈ":{"ha":833,"x_min":0,"x_max":0,"o":"m 546 -254 b 758 -214 619 -254 697 -236 l 733 -131 b 571 -161 686 -149 635 -161 b 400 24 440 -161 400 -97 l 400 582 l 732 582 l 732 675 l 400 675 l 400 892 l 306 892 l 290 675 l 96 668 l 96 582 l 286 582 l 286 25 b 546 -254 286 -142 350 -254 z "},"ʉ":{"ha":833,"x_min":0,"x_max":0,"o":"m 342 -17 b 567 106 435 -17 503 31 l 569 106 l 578 0 l 672 0 l 672 353 l 814 353 l 814 442 l 672 442 l 672 675 l 558 675 l 558 442 l 250 442 l 250 675 l 136 675 l 136 442 l 3 433 l 3 353 l 136 353 l 136 247 b 342 -17 136 75 200 -17 z m 250 261 l 250 353 l 558 353 l 558 197 b 378 83 494 117 447 83 b 250 261 289 83 250 136 z "},"ʊ":{"ha":833,"x_min":0,"x_max":0,"o":"m 417 -17 b 747 290 626 -17 747 133 b 617 579 747 428 678 521 l 617 582 l 764 582 l 764 675 l 493 675 l 493 601 b 631 314 572 535 631 449 b 417 78 631 188 558 78 b 203 314 275 78 203 188 b 340 601 203 449 261 535 l 340 675 l 69 675 l 69 582 l 217 582 l 217 579 b 86 290 156 521 86 428 b 417 -17 86 133 207 -17 z "},"ʋ":{"ha":833,"x_min":0,"x_max":0,"o":"m 413 -17 b 750 407 635 -17 750 163 b 533 692 750 601 665 692 b 443 681 489 692 469 688 l 461 592 b 510 600 479 597 485 600 b 632 390 593 600 632 526 b 417 78 632 213 556 78 b 222 304 308 78 222 142 l 222 675 l 107 675 l 107 294 b 413 -17 107 79 238 -17 z "},"ʌ":{"ha":833,"x_min":0,"x_max":0,"o":"m 478 675 l 350 675 l 71 0 l 181 0 l 336 383 b 410 582 364 451 386 518 l 415 582 b 492 383 439 518 464 451 l 647 0 l 763 0 z "},"ʍ":{"ha":833,"x_min":0,"x_max":0,"o":"m 675 675 l 528 675 l 453 353 b 419 153 442 306 431 239 l 414 153 b 381 353 403 239 392 306 l 303 675 l 156 675 l 11 0 l 117 0 l 197 392 b 228 578 210 456 217 514 l 233 578 b 275 392 242 514 260 456 l 356 42 l 469 42 l 553 392 b 592 578 568 454 583 514 l 597 578 b 628 392 606 514 615 456 l 708 0 l 822 0 z "},"ʎ":{"ha":833,"x_min":0,"x_max":0,"o":"m 68 0 l 176 0 l 324 374 b 396 569 346 435 372 506 l 401 569 b 485 374 429 504 458 433 l 650 0 l 765 0 l 450 676 l 488 764 b 663 911 519 849 574 911 b 721 901 685 911 704 907 l 746 992 b 657 1006 721 1000 689 1006 b 382 769 511 1006 432 903 z "},"ʏ":{"ha":833,"x_min":0,"x_max":0,"o":"m 361 0 l 475 0 l 475 228 l 757 675 l 635 675 l 518 483 b 422 314 482 424 453 375 l 417 314 b 321 483 385 375 353 425 l 203 675 l 79 675 l 361 228 z "},"ʐ":{"ha":833,"x_min":0,"x_max":0,"o":"m 776 -254 b 861 -236 811 -254 842 -246 l 839 -149 b 789 -161 825 -154 807 -161 b 718 -39 735 -161 718 -115 l 718 93 l 261 93 l 715 614 l 715 675 l 150 675 l 150 582 l 551 582 l 99 61 l 99 0 l 604 0 l 604 -50 b 776 -254 604 -172 650 -254 z "},"ʑ":{"ha":833,"x_min":0,"x_max":0,"o":"m 675 217 b 722 169 703 217 722 200 b 618 89 722 128 686 89 b 558 89 597 89 578 89 b 675 217 594 181 636 217 z m 497 -161 b 529 0 507 -99 518 -46 l 592 0 b 808 175 736 0 808 75 b 683 300 808 250 756 300 b 471 90 596 300 524 229 b 250 93 403 90 332 92 l 699 614 l 699 675 l 150 675 l 150 582 l 549 582 l 99 61 l 99 0 l 443 0 b 411 -147 431 -44 421 -93 z "},"ʒ":{"ha":833,"x_min":0,"x_max":0,"o":"m 400 -301 b 732 8 572 -301 732 -190 b 432 278 732 169 619 278 b 372 269 415 278 394 275 l 703 614 l 703 675 l 138 675 l 138 582 l 554 582 l 206 226 l 251 163 b 385 197 303 186 325 197 b 617 6 533 197 617 125 b 390 -207 617 -122 514 -207 b 138 -97 271 -207 199 -154 l 82 -171 b 400 -301 151 -236 243 -301 z "},"ʤ":{"ha":833,"x_min":0,"x_max":0,"o":"m 215 -17 b 360 81 281 -17 331 31 l 364 81 l 374 0 l 456 0 l 456 582 l 708 582 l 506 235 l 551 163 b 621 183 576 176 592 183 b 744 0 701 183 744 117 b 617 -207 744 -139 692 -207 b 482 -147 557 -207 519 -183 l 428 -219 b 625 -301 476 -267 533 -301 b 858 0 756 -301 858 -192 b 650 272 858 150 782 272 b 633 271 644 272 639 272 l 829 614 l 829 675 l 456 675 l 456 989 l 350 989 l 350 743 l 356 614 l 353 614 b 228 692 325 661 283 692 b 0 336 107 692 0 553 b 215 -17 0 114 90 -17 z m 239 79 b 114 338 157 79 114 178 b 247 596 114 490 168 596 b 350 517 292 596 319 567 l 350 183 b 239 79 322 122 288 79 z "},"ʦ":{"ha":833,"x_min":0,"x_max":0,"o":"m 456 -17 b 792 185 703 -17 792 60 b 525 526 792 418 525 400 b 614 607 525 578 560 607 b 739 558 661 607 699 590 l 783 625 b 606 692 735 667 674 692 b 511 675 571 692 539 686 l 250 675 l 250 892 l 154 892 l 140 675 l 35 668 l 35 582 l 136 582 l 136 244 b 456 -17 136 76 217 -17 z m 461 72 b 250 243 303 72 250 122 l 250 582 l 424 582 b 417 529 419 567 417 549 b 688 186 417 338 688 358 b 461 72 688 117 632 72 z "},"ʧ":{"ha":833,"x_min":0,"x_max":0,"o":"m 490 -301 b 672 -76 621 -301 672 -214 l 672 782 b 765 915 672 864 690 915 b 815 903 783 915 801 908 l 838 990 b 754 1008 817 1000 789 1008 b 558 786 614 1008 558 921 l 558 675 l 282 675 l 282 892 l 186 892 l 171 675 l 67 668 l 67 582 l 167 582 l 167 208 b 357 -17 167 75 215 -17 b 479 8 399 -17 442 -4 l 458 94 b 378 76 433 85 404 76 b 282 207 306 76 282 124 l 282 582 l 558 582 l 558 -76 b 481 -208 558 -158 543 -208 b 417 -197 457 -208 433 -203 l 393 -283 b 490 -301 417 -293 450 -301 z "},"ʔ":{"ha":833,"x_min":0,"x_max":0,"o":"m 332 0 l 446 0 l 446 382 b 708 728 599 481 708 567 b 393 1006 708 911 568 1006 b 99 872 251 1006 160 940 l 160 799 b 385 911 208 857 279 911 b 592 726 517 911 592 839 b 332 432 592 606 514 535 z "},"ʕ":{"ha":833,"x_min":0,"x_max":0,"o":"m 386 0 l 500 0 l 500 432 b 239 726 318 535 239 606 b 446 911 239 839 315 911 b 672 799 551 911 622 857 l 732 872 b 438 1006 672 940 581 1006 b 124 728 264 1006 124 911 b 386 382 124 567 232 481 z "},"ʡ":{"ha":833,"x_min":0,"x_max":0,"o":"m 332 0 l 446 0 l 446 349 l 719 349 l 719 436 l 508 436 b 708 728 614 508 708 596 b 399 1006 708 911 571 1006 b 99 872 254 1006 160 939 l 160 799 b 390 911 211 856 283 911 b 592 726 519 911 592 839 b 350 436 592 615 503 524 l 208 436 l 103 429 l 103 349 l 332 349 z "},"ʢ":{"ha":833,"x_min":0,"x_max":0,"o":"m 388 0 l 501 0 l 501 349 l 731 349 l 731 436 l 482 436 b 240 726 331 524 240 615 b 443 911 240 839 314 911 b 674 799 550 911 622 856 l 735 872 b 435 1006 672 939 579 1006 b 125 728 261 1006 125 911 b 325 436 125 596 219 508 l 219 436 l 114 429 l 114 349 l 388 349 z "}}}
